<svg xmlns="http://www.w3.org/2000/svg" xmlns:xlink="http://www.w3.org/1999/xlink" width="67.477" height="52" viewBox="0 0 67.477 52">
  <defs>
    <linearGradient id="linear-gradient" x1="0.042" y1="0.573" x2="1.031" y2="0.567" gradientUnits="objectBoundingBox">
      <stop offset="0" stop-color="#59cfbb"/>
      <stop offset="1" stop-color="#004b42"/>
    </linearGradient>
  </defs>
  <path id="Tracé_4" data-name="Tracé 4" d="M1266.821,713.258c.141-.253.445-.25.7-.254a7.577,7.577,0,0,0,.478,2.673.679.679,0,0,0,.764.349q1.765-1.435,3.535-2.864a.654.654,0,0,1,1.081.462,17.841,17.841,0,0,1-1.209,6.617l.312.285a26.563,26.563,0,0,0,.295,4.156c-.055,1.053-.231,2.1-.29,3.149a2.79,2.79,0,0,0,1.192,1.729,19.1,19.1,0,0,0,4.148,2.281c1.244.532,2.511,1.012,3.791,1.456a7.086,7.086,0,0,1,1.74,1.013,27.777,27.777,0,0,1,8.193,8.436,23.076,23.076,0,0,1,3.109,13.936c-.062.981-.146,1.96-.193,2.942a40.764,40.764,0,0,0,9.576,1.486,20.107,20.107,0,0,0,4.443-1.234,10.163,10.163,0,0,0,4.115-2.937,7.612,7.612,0,0,0,1.556-3.633,4.569,4.569,0,0,0-.007-1.99c-.377-1.442-.744-2.886-1.118-4.328.1-.1.2-.2.3-.3a7.132,7.132,0,0,1,1.291.038,7.239,7.239,0,0,1,2.418,6.048,17.064,17.064,0,0,1-1.648,5.053,11.51,11.51,0,0,1-3.448,4.023,13.418,13.418,0,0,1-5.467,2.23,31.852,31.852,0,0,1-6.334.326c-3.16-.181-6.32-.4-9.473-.674-2.295-.215-4.59-.446-6.865-.819a20.445,20.445,0,0,1-2.635-.591c-.133.765-.966,1.034-1.613,1.225a32.193,32.193,0,0,1-7.106.589c-1.058.255-2.106.556-3.16.826-.3.107-.587-.079-.864-.166a2.469,2.469,0,0,1-1.506-1.213,4.009,4.009,0,0,1,.021-1.156,2.334,2.334,0,0,1,1.342-.867,29.408,29.408,0,0,1,5.4-1.046,1.558,1.558,0,0,1,1.183-.689,13.9,13.9,0,0,1,2.25-.224,22.235,22.235,0,0,1-1.849-9.01c-.658-.461-1.321-.915-1.978-1.376a.823.823,0,0,0-.492-.141,35.777,35.777,0,0,1-1.154,7.281,10.1,10.1,0,0,1-1.881,3.841,3.306,3.306,0,0,1-2.667,1.2,1.77,1.77,0,0,1-1.425-.895c-.181-.294-.45-.672-.169-.993a11.763,11.763,0,0,1,2.648-2.318c.148-.593.3-1.183.457-1.774a2.9,2.9,0,0,0,.154-.855,20.736,20.736,0,0,0-1.547-6.988,3.309,3.309,0,0,0-.655.028,83.389,83.389,0,0,1-11.732,2.989c-.612,1.392-1.216,2.788-1.845,4.172a12.567,12.567,0,0,1-1.257.924,2.025,2.025,0,0,1-1.832-.788,3.409,3.409,0,0,1-.251-2.239,6.959,6.959,0,0,1,2.459-4.236,18.221,18.221,0,0,1,5.877-3.176c.7-.266,1.435-.442,2.135-.705a9.014,9.014,0,0,0,2.128-4.711c-.11-.723-.347-1.428-.453-2.156a61.166,61.166,0,0,1-.754-6.9c.18-1.91.4-3.819.616-5.726a23.229,23.229,0,0,1-2.935-4.844,6.555,6.555,0,0,1-.49-2.078,4.069,4.069,0,0,1,1.723-1.434,5.344,5.344,0,0,1,2.02-.393c.3-.3.61-.6.918-.893h3.405A5.355,5.355,0,0,1,1266.821,713.258Z" transform="translate(-1249.567 -713)" fill="url(#linear-gradient)"/>
</svg>