<svg xmlns="http://www.w3.org/2000/svg" xmlns:xlink="http://www.w3.org/1999/xlink" width="296.2" height="66.6" viewBox="0 0 296.2 66.6">
  <defs>
    <linearGradient id="linear-gradient" x1="0.499" y1="1.144" x2="0.499" y2="0.146" gradientUnits="objectBoundingBox">
      <stop offset="0" stop-color="#fcb653"/>
      <stop offset="1" stop-color="#f79351"/>
    </linearGradient>
    <linearGradient id="linear-gradient-2" x1="0.5" y1="1.211" x2="0.5" y2="0.211" xlink:href="#linear-gradient"/>
    <linearGradient id="linear-gradient-3" x1="0.497" y1="1.334" x2="0.497" y2="0.334" xlink:href="#linear-gradient"/>
    <linearGradient id="linear-gradient-4" x1="0.5" y1="1.538" x2="0.5" y2="0.54" xlink:href="#linear-gradient"/>
    <linearGradient id="linear-gradient-5" x1="0.5" y1="1.564" x2="0.5" y2="0.568" xlink:href="#linear-gradient"/>
    <linearGradient id="linear-gradient-6" x1="0.499" y1="1.106" x2="0.499" y2="0.108" xlink:href="#linear-gradient"/>
    <linearGradient id="linear-gradient-7" x1="0.501" y1="1.343" x2="0.501" y2="0.343" xlink:href="#linear-gradient"/>
    <linearGradient id="linear-gradient-8" x1="0.498" y1="1.565" x2="0.498" y2="0.565" xlink:href="#linear-gradient"/>
    <linearGradient id="linear-gradient-9" x1="0.5" y1="1.15" x2="0.5" y2="0.15" xlink:href="#linear-gradient"/>
    <linearGradient id="linear-gradient-10" x1="0.5" y1="1.09" x2="0.5" y2="0.089" xlink:href="#linear-gradient"/>
  </defs>
  <g id="logo-nav" transform="translate(-1.9 -14.2)">
    <path id="Tracé_10" data-name="Tracé 10" d="M90.2,39,112,67.4,95.8,38.3c1.6-.8,8.5-2.6,8.5-10.8,0-7.2-5.3-8.8-10.2-9.1-2.1-.1-13.3-.1-13.3-.1v.8h4.6v40h-.9L74.3,17.4,54.2,75.9l.3.2L67.3,42.8h8.4l3.8,16.4H75.1V60H93.8v-.8H90V39Zm0-19.4c1.1,0,9.2-1.3,9.2,8.3,0,8.4-6.7,10.7-9.2,10.8ZM67.8,41.5l4.7-11.6,2.9,11.6Z" fill="url(#linear-gradient)"/>
    <path id="Tracé_11" data-name="Tracé 11" d="M174.5,39l25,33.3L180,38.4c1.6-.8,8.5-2.6,8.5-10.8,0-7.2-5.3-8.8-10.2-9.1-2.1-.1-13.3-.1-13.3-.1v.8h4.6v40H165V60h13.9v-.8h-4.6V39Zm-.1-19.4c1.1,0,9.2-1.3,9.2,8.3,0,8.4-6.7,10.7-9.2,10.8Z" fill="url(#linear-gradient-2)"/>
    <path id="Tracé_12" data-name="Tracé 12" d="M111.7,39l21.8,28.3-16.1-29c1.6-.8,8.5-2.6,8.5-10.8,0-7.2-5.3-8.8-10.2-9.1-2.1-.1-13.3-.1-13.3-.1v.8H107V60h9.3v-.8h-4.6Zm.1-19.3c1.1,0,9.2-1.3,9.2,8.3,0,8.4-6.7,10.7-9.2,10.8Z" fill="url(#linear-gradient-3)"/>
    <path id="Tracé_13" data-name="Tracé 13" d="M152,17.8c8.1,0,14.8,9.7,14.8,21.6S160.2,61,152,61c-8.1,0-14.8-9.7-14.8-21.6s6.6-21.6,14.8-21.6m-9.4,21.5c0,11.2,4.2,20.3,9.3,20.3s9.3-9.1,9.3-20.3S157,19,151.9,19s-9.3,9-9.3,20.3" fill="url(#linear-gradient-4)"/>
    <path id="Tracé_14" data-name="Tracé 14" d="M244.3,18.3v18h1.1c0-12.9,3.2-16.7,7.7-16.7V59.3h-4.6v.8H261v-.8h-3V19.5c4.5,0,7.7,3.8,7.7,16.7h1.1v-18H244.3Z" fill="url(#linear-gradient-5)"/>
    <path id="Tracé_15" data-name="Tracé 15" d="M298.1,58.6c0-7.9-4.3-13.1-14.6-18.9-12.4-6.9-10.5-13.9-7.2-17.4a8.519,8.519,0,0,1,6.2-2.5h.2c9.8,0,7.9,14.6,7.9,14.6h.8V14.2h-.8v1.3c0,2.1-1.5,2.5-4.1,2.4-2.4-.1-5.4-.7-9.4,1.2-10.5,5-12.9,19,4.6,28.7,8.3,4.6,10.8,8.3,10.8,14.2s-6.7,14-17,14c-9.2,0-13-9.5-13.7-16.9-.3-4-.3-7.4-.3-7.4h-.8l-.1,29,.4.1s.8-2.9,2-6.2a25.338,25.338,0,0,0,11.8,3.5c9,0,12.6-2.3,16.5-5.7,4.7-4.1,6.8-8.8,6.8-13.8" fill="url(#linear-gradient-6)"/>
    <path id="Tracé_16" data-name="Tracé 16" d="M247.5,59.1,237.2,17.3,220.3,67.2l.3.2,9.5-24.7h8.4l3.8,16.4h-4.4V60h11.8l.1-.8A16.95,16.95,0,0,0,247.5,59.1ZM230.8,41.5l4.7-11.6,2.9,11.6Z" fill="url(#linear-gradient-7)"/>
    <path id="Tracé_17" data-name="Tracé 17" d="M138.8,19.2v-.9h-14v.9h4.6v40h-.8v.9h10.2v-.9h-4.7v-40Z" fill="url(#linear-gradient-8)"/>
    <path id="Tracé_18" data-name="Tracé 18" d="M225.5,18.2c-2.2,0-3.8-.9-7-.9-8.7,0-19,8.6-19,26.4,0,20.2,11.1,34.4,25.4,34.4,9.1,0,14.2-11,14.2-14.4l-1.5.1s-3.1,12.7-12.4,12.7c-12.3,0-18.9-20.8-18.9-32.5,0-10.2,4.7-24.4,12.1-24.4,5.9,0,10.2,2.7,10.2,16.8h.8v-22h-.8c-.1,3.1-1.2,3.8-3.1,3.8" fill="url(#linear-gradient-9)"/>
    <path id="Tracé_19" data-name="Tracé 19" d="M70.2,18.3H57.6v.9h4.5L52.8,60,42.3,19.2h4.4v-.9h-17v.9h4.8L24.7,60.4,14,19.2h4.6v-.9H1.9v.9H6.4L21.8,78.3,36.5,25.8,49.9,78.3l16-59.1h4.3Z" fill="url(#linear-gradient-10)"/>
  </g>
</svg>
