<?xml version="1.0" encoding="utf-8"?>
<!-- Generator: Adobe Illustrator 27.5.0, SVG Export Plug-In . SVG Version: 6.00 Build 0)  -->
<svg version="1.1" xmlns="http://www.w3.org/2000/svg" xmlns:xlink="http://www.w3.org/1999/xlink" x="0px" y="0px"
	 viewBox="0 0 500 500" style="enable-background:new 0 0 500 500;" xml:space="preserve">
<g id="Background">
</g>
<g id="Objects">
	<path id="XMLID_72_" style="fill:#231F20;" d="M276.731,476.111c-0.466,0.296-0.97,0.615-1.465,0.928
		c-0.401-0.338-0.9-0.76-1.353-1.143c0.213-0.469,0.467-1.03,0.728-1.603c0.452,0.051,1.066,0.12,1.708,0.193
		C276.452,474.929,276.595,475.534,276.731,476.111z"/>
	<path id="XMLID_38_" style="fill:#231F20;" d="M248.754,478.189c0.333,0.207,0.651,0.406,0.978,0.61
		c-0.067,0.32-0.143,0.684-0.223,1.067c-0.363,0.038-0.762,0.081-1.137,0.12c-0.155-0.33-0.313-0.666-0.465-0.99
		C248.199,478.72,248.502,478.43,248.754,478.189z"/>
	<g id="XMLID_22_">
		<path id="XMLID_13_" style="fill:#DA9A8E;" d="M413.927,132.981c0,0,7.568,0.843,18.055,0c10.487-0.843,22.183,2.384,16.738,6.215
			c-5.445,3.832-18.956,2.717-29.241,1.661c-10.285-1.056-27.426,2.372-32.266,5.599c-4.84,3.227,7.865-4.235,26.62-2.823
			c18.755,1.412,34.081,5.647,41.139-1.008c7.058-6.655,1.613-14.318-12.705-15.125c-14.318-0.807-27.023-1.613-27.023-1.613h-6.655
			L413.927,132.981z"/>
		<path id="XMLID_9_" style="fill:#E5E5E5;" d="M304.889,96.204c0,0,6.704-10.266,2.095-17.389
			c-4.609-7.123-24.931-3.562-33.73-6.285s-8.59-10.475-0.629-17.598s23.674-13.827,31.006-16.76
			c7.333-2.933,26.188-2.095,35.615,4.19s27.445,25.769,38.967,30.587c11.523,4.819,29.54,27.445,32.892,41.691
			c3.352,14.246,9.428,11.313,9.428,11.313s-6.914,2.305-6.076,2.933c0.838,0.629,3.562,2.514,1.048,2.514s-0.21,3.143-4.19,2.514
			c-3.98-0.629-11.942-0.838-23.255,1.885c-11.313,2.724-24.931,2.305-27.864,0.629s-6.914,3.771-6.914,3.771
			s-9.218-3.143-6.495-7.123c2.724-3.981-0.838-6.285-2.305-11.732c0,0-10.898-8.325-17.513-17.127
			c-2.52-3.353-6.677-5.094-10.844-4.623c-2.096,0.237-4.544,0.671-7.258,1.429L304.889,96.204z"/>
		<path id="XMLID_3_" style="fill:#E5E5E5;" d="M304.889,96.204c0,0,6.704-10.266,2.095-17.389
			c-4.609-7.123-24.931-3.562-33.73-6.285s-8.59-10.475-0.629-17.598s23.674-13.827,31.006-16.76
			c7.333-2.933,26.188-2.095,35.615,4.19s27.445,25.769,38.967,30.587c11.523,4.819,29.54,27.445,32.892,41.691
			c3.352,14.246,9.428,11.313,9.428,11.313s-6.914,2.305-6.076,2.933c0.838,0.629,3.562,2.514,1.048,2.514s-0.21,3.143-4.19,2.514
			c-3.98-0.629-11.942-0.838-23.255,1.885c-11.313,2.724-24.931,2.305-27.864,0.629s-6.914,3.771-6.914,3.771
			s-9.218-3.143-6.495-7.123c2.724-3.981-0.838-6.285-2.305-11.732c0,0-10.898-8.325-17.513-17.127
			c-2.52-3.353-6.677-5.094-10.844-4.623c-2.096,0.237-4.544,0.671-7.258,1.429L304.889,96.204z"/>
		<path id="XMLID_26_" style="fill:#605F60;" d="M345.75,47.444c-2.423-2.063-4.636-3.837-6.503-5.082
			c-9.428-6.285-28.283-7.123-35.615-4.19c-5.033,2.013-14.013,5.803-21.726,10.286c-2.634,4.806-4.198,10.693,1.42,13.416
			c10.123,4.908,18.558-1.233,29.601,1.761C323.13,66.401,337.248,61.614,345.75,47.444z"/>
		<path id="XMLID_8_" style="fill:#605F60;" d="M303.776,42.722c0,0,8.239-20.026,17.745-19.139
			c9.506,0.887,3.295,8.999,3.295,8.999l-10.393,11.914l-8.239,1.394L303.776,42.722z"/>
		<path id="XMLID_7_" style="fill:#DA9A8E;" d="M319.72,49.099c0,0,0.995-5.542-1.563-3.979c-2.558,1.563-5.968,2.274-6.963-0.853
			c-0.995-3.126,3.553-21.884,13.926-21.174c10.374,0.711,12.221,11.795,8.1,20.179C329.099,51.657,321.71,55.068,319.72,49.099z"/>
		<path id="XMLID_4_" style="fill:#DA9A8E;" d="M304.889,96.204c0,0-3.288,4.075-5.257,4.45c-1.969,0.375-4.875,0.375-6.188-0.375
			c-1.313-0.75-2.156-1.406-4.031-2.625c-1.875-1.219-3.281-0.563-1.594,1.875c1.688,2.438,4.125,2.344,3,3
			c-1.125,0.656-7.032-2.344-5.719-0.188c1.313,2.156,3.844,2.438,6.375,2.25c2.531-0.188,1.313,1.313-1.594,1.313
			s-4.313,1.875-0.094,2.063s6.469-1.969,8.532-2.906c2.063-0.938,10.55-4.038,10.55-4.038L304.889,96.204z"/>
		<path id="XMLID_14_" style="fill:#DA9A8E;" d="M346.43,133.776c0,0-4.093,5.02-6.97,5.107s-10.461,0.523-14.209,0
			c-3.748-0.523-5.143,1.133-6.451,2.005c-1.308,0.872,0.349,1.133,3.225,0.61s3.748,0.436,1.395,0.872s-4.533,0-7.235,1.569
			c-2.702,1.569-1.656,2.877,0.349,2.179s5.492-1.743,7.671-1.831c2.179-0.087-1.632-0.262-3.475,1.133
			c-1.843,1.395-2.889,2.877-0.622,2.441s3.836-1.308,11.594-1.569c7.758-0.262,15.342-0.349,18.306-2.441
			c2.964-2.092,3.276-3.652,3.276-3.652l-2.404-5.065L346.43,133.776z"/>
		<path id="XMLID_17_" style="fill:#231F20;" d="M291.718,56.452c-0.25-0.187,2.185-3.381,5.618-4.343
			c3.433-0.962,7.282,2.679,7.282,2.679S300.04,62.694,291.718,56.452z"/>
		<circle id="XMLID_16_" style="fill:#F9F2F4;" cx="296.669" cy="55.603" r="1.441"/>
		<path id="XMLID_19_" style="fill:#DA9A8E;" d="M266.678,65.8c0,0,5.553-2.302,6.793-2.159c1.24,0.143-3.148,1.86-3.911,3.244
			c-0.763,1.383-0.676,3.305-0.676,3.305S266.801,68.96,266.678,65.8z"/>
		<path id="XMLID_27_" style="fill:#605F60;" d="M377.716,105.173c-9.403-3.242-5.674-11.835-19.778-12.969
			s-12.617,17.851-12.617,17.851l-9.747,3.595c4.743,4.509,8.911,7.695,8.911,7.695c1.467,5.447,5.028,7.752,2.305,11.732
			c-2.724,3.98,6.495,7.123,6.495,7.123s3.98-5.447,6.914-3.771c2.933,1.676,16.551,2.095,27.864-0.629
			c1.562-0.376,3.045-0.685,4.478-0.956C402.132,121.44,386.73,108.281,377.716,105.173z"/>
		<path id="XMLID_10_" style="opacity:0.32;fill:#231F20;" d="M355.056,103.834c0,0-14.39-1.441-16.854,12.24
			c3.555,3.185,6.284,5.27,6.284,5.27C344.437,120.762,339.666,107.373,355.056,103.834z"/>
		<path id="XMLID_25_" style="fill:#CC8279;" d="M319.513,38.854c-3.625,3.681-6.513,5.256-8.078,5.915
			c1.205,2.489,4.325,1.816,6.722,0.351c2.558-1.563,1.563,3.979,1.563,3.979c0.171,0.514,0.395,0.933,0.641,1.31
			c0.879-1.65,1.942-4.097,2.799-7.499C324.947,35.812,325.005,33.277,319.513,38.854z"/>
	</g>
	<g id="XMLID_39_">
		<path id="XMLID_6_" style="fill:#848484;" d="M268.631,219.278c0,0-0.087-0.06-0.237-0.176c-1.077-0.834-5.396-4.556-3.888-9.541
			c1.719-5.679,2.161-8.796,1.904-10.729c-0.258-1.933,1.256,0.762,1.239,2.003s1.185-5.856,1.74-5.682
			c0.555,0.174,0.763,1.971,1.757,1.283s1.757-7.767,2.312-6.935c0.555,0.832,0.74,2.959,1.387,2.312
			c0.647-0.647,3.699-8.784,7.12-9.986s0.462,1.017,0,2.219s4.143-1.664,4.66-3.051c0.518-1.387,2.381-3.285,1.997-1.202
			s-1.617,2.504-0.164,2.299s4.811-5.521,4.972-4.201c0.161,1.321,0.058,1.883,1.462,0.782c1.404-1.1,6.244-6.597,6.182-4.681
			s0.308,0.793,2.296-0.402c1.988-1.195,8.275-3.599,7.351-2.027c-0.925,1.572,7.025,3.479,11.649,1.786
			c4.624-1.693,15.928-2.633,14.887-1.416c-1.041,1.217-2.219,2.496-0.74,2.312s4.808-4.177,6.103-3.198
			c1.294,0.979-1.752,0.885-1.754,2.365s4.618-0.752,5.544,0.04s-0.742,1.274-0.32,2.329s6.68-1.617,8.579-1.266
			c1.899,0.352-0.352,0.49-0.914,1.581c-0.563,1.091,6.969-1.037,6.047,0c-0.921,1.037-0.417,2.858,1.336,1.794
			c1.753-1.064,6.539-3.797,7.243-3.305c0.703,0.492-1.336,0.795-1.758,1.733s2.25,0.96,3.938,0c1.688-0.96,5.402-1.731,4.289-0.538
			c-1.112,1.193-0.422,2.25,1.055,1.688c1.477-0.563,4.895-1.494,4.416-0.36s3.589-1.004,3.641-0.026
			c0.051,0.978,1.167,1.921,2.514,0.832s2.068-3.148,2.273-2.582c0.206,0.566-0.927,1.905,0.515,2.059
			c1.441,0.154,6.898-2.059,5.817-0.669c-1.081,1.39-1.53,1.949-0.039,1.868c1.491-0.081,5.077-0.545,4.363,0.378
			c-0.713,0.923,1.011,1.175,2.266,1.259c1.255,0.084,2.685-0.168,1.888,0.755c-0.797,0.923-0.712,2.774,1.846,2.769
			s6.323-0.42,5.454,0.126s-0.462,2.224,0.839,2.308s3.608-0.042,2.643,0.755c-0.965,0.797-0.965,1.217,0.671,1.72
			c1.636,0.503,3.056,0.797,1.947,1.133c-1.108,0.336,5.199,2.467,6.37,5.293c1.171,2.826-1.418-0.071-2.589,0.669
			c-1.171,0.74,3.267,2.034,3.39,4.007c0.123,1.972-2.096-0.863-2.281,0.431c-0.185,1.294,5.671,6.102,3.883,6.904
			c-1.788,0.801-2.466-0.308-3.082,0.74c-0.616,1.048,6.164,0.123,4.808,1.233s-5.054,1.603-5.424,3.39
			c-0.37,1.788,3.772,0,2.163,1.264c-1.608,1.264-3.488,3.701-3.134,5.749c0.354,2.048,2.584,1.051-0.007,2.689
			s-7.366,3.556-5.938,3.522c1.429-0.034,4.757-1.39,4.387-0.712s-6.287,3.329-8.506,4.068c-2.219,0.74,3.144,0.123,1.788,1.11
			c-1.356,0.986-3.326,2.157-5.639,2.157s0.399,0.555-0.895,1.418c-1.294,0.863-3.883-0.185-4.87,0
			c-0.986,0.185-1.074,3.012-1.739,2.123c-0.665-0.89-1.148-2.281-2.139-0.938c-0.991,1.343-4.874,3.438-4.874,2.329
			s0.311-2.806-1.563-1.786c-1.874,1.02-5.649,2.372-5.34,1.339c0.308-1.033,0.37-1.033-1.972-0.293
			c-2.342,0.74-4.13,1.911-3.575,0.678c0.555-1.233,1.288-2.587,0.44-2.389c-0.848,0.198-6.882,3.622-7.76,2.636
			s2.45-2.219,1.279-2.342c-1.171-0.123-4.061,3.1-5.698,2.352s1.41-2.29,0.164-2.167s-2.848,3.111-3.773,2.357
			c-0.925-0.754-1.603-1.802-1.603-1.802s-7.545,2.65-7.163,1.418s1.143-2.216,0-2.219s-7.015,1.603-6.583,0.493
			c0.431-1.11,1.233-2.034-0.185-2.034s-5.301,1.294-5.486,0.185c-0.185-1.11-0.308-1.971-2.342-1.078s-4.618,1.262-3.76,0.092
			c0.858-1.17-0.678,0.431-1.479,0.554c-0.801,0.123,0.057-1.901-2.514-0.646c-2.571,1.255-4.703,1.711-4.546,0.686
			c0.156-1.025-0.275-0.531-2.371-0.686c-2.096-0.155-1.418-1.203-3.513-0.34c-2.096,0.863-5.794,1.048-5.116-0.308
			c0.678-1.356,0.845-1.775-1.565-1.73c-2.411,0.045-7.681,1.143-7.372-0.413c0.308-1.555-1.541-2.078-3.822-1.662
			c-2.281,0.415-0.905-0.446-1.069-1.803c-0.164-1.357-3.665-1.157-5.181-0.301c-1.517,0.855-5.09,1.716-3.982,0.732
			c1.108-0.984,0.609-2.638-1.021-2.613c-1.63,0.024-5.698-0.751-6.544-0.864c-0.847-0.114-2.174-0.159-3.9,0.026
			c-1.726,0.185-0.714,2.023-1.664,1.294c-0.95-0.728-1.788-0.799-2.712-1.016c-0.925-0.217,0.308,1.632-1.356,0.769
			s-7.835-3.691-9.438-5.137"/>
		<path id="XMLID_32_" style="fill:#DA9A8E;" d="M382.24,234.508c-0.349-0.267-18.839,4.618-20.845,6.275
			c-2.006,1.657-7.326,3.925-4.535,3.576s7.501-3.053,9.769-3.402s0.349,0.262-2.093,2.791c-2.442,2.529-6.541,5.233-4.012,4.448
			s9.071-5.669,11.426-5.756s-2.529,1.657-3.576,3.314s-2.878,4.099-0.698,2.965s4.623-3.314,8.111-4.099s12.211-3.731,12.821-5.398
			s1.047-6.639,1.047-6.639L382.24,234.508z"/>
		<path id="XMLID_36_" style="fill:#DA9A8E;" d="M417.19,215.419c0,0,21.074-6.706,29.559,0.958
			c8.485,7.663,0.684,16.148-8.348,17.516s-18.748-1.094-27.506,4.653s2.737,0.411,6.979,0c4.242-0.411,14.232,1.505,25.59-0.821
			c11.358-2.326,16.148-8.211,15.737-15.053c-0.411-6.842-9.032-22.032-38.044-16.148
			C392.147,212.408,417.19,215.419,417.19,215.419z"/>
		<path id="XMLID_30_" style="fill:#DA9A8E;" d="M321.274,230.404c0,0-11.251,2.617-10.117,3.838s7.414-1.483,5.931,0
			s-8.373,4.623-4.274,3.838s8.984-4.012,8.46-2.529c-0.523,1.483-4.884,3.489-2.878,3.663s7.588-2.006,8.896-3.14
			s3.576-6.28,3.576-6.28L321.274,230.404z"/>
		<path id="XMLID_29_" style="fill:#231F20;" d="M286.65,200.437c-0.255-0.125,1.378-3.399,4.286-4.846s6.974,1.154,6.974,1.154
			S295.164,204.602,286.65,200.437z"/>
		<circle id="XMLID_28_" style="fill:#F9F2F4;" cx="290.937" cy="198.832" r="1.313"/>
		<path id="XMLID_34_" style="fill:#3A3A3A;" d="M270.227,210.672c-0.586-0.976-3.397-0.137-5.858,1.233
			c0.269,2.634,1.778,4.773,3.403,6.346c0.933-1.674,0.243-3.173,0.989-4.251C269.935,212.305,271.009,211.976,270.227,210.672z"/>
		<path id="XMLID_33_" style="fill:#6D6D6D;" d="M364.462,236.791c0,0-0.013-4.245-1.779-4.76s-1.84-2.208-0.957-4.195
			c0.883-1.987,1.398-3.312,0.957-5.005s0.81-4.048,2.282-5.005c1.472-0.957,4.784-3.974,3.238-3.533s-7.213,3.68-6.992,5.667
			c0.221,1.987,1.03,3.091,0,4.637c-1.03,1.546-3.165,5.373-0.81,7.433c2.355,2.061,1.826,4.116,1.826,4.116
			S363.773,235.86,364.462,236.791z"/>
		<path id="XMLID_35_" style="fill:#6D6D6D;" d="M335.061,231.964c0,0,6.256-4.157,5.361-5.663
			c-0.894-1.506-0.518-2.212,0.141-2.636s-0.706,0.933,0.188,1.855s0.141,3.04-1.035,4.028s-3.342,2.621-3.342,2.621
			S334.312,233.438,335.061,231.964z"/>
		<path id="XMLID_24_" style="fill:#6B6B6B;" d="M313.827,173.543c-2.104-0.483-3.528-1.264-3.107-1.979
			c0.311-0.529-0.203-0.602-1.086-0.428c-1.094,2.624-3.282,7.848-3.383,9.654l3.996-2.363L313.827,173.543z"/>
		<path id="XMLID_20_" style="fill:#848484;" d="M306.251,180.79c0,0,3.35-4.802,4.154-6.512c0.804-1.71,0.393-1.179,0.842-0.225
			c0.449,0.954,1.684-4.771,2.133-4.715c0.449,0.056,0.168,1.762,0.449,1.554c0.281-0.207,2.133-5.708,2.414-4.754
			c0.281,0.954,0.73,0.505,2.077-1.067c1.347-1.572,4.435-3.929,5.052-3.705c0.617,0.225,0.225,0.868,1.628-0.015
			s6.121-1.863,7.13-0.84c1.01,1.023-3.201,6.356-3.201,6.356l-17.177,15.886l-1.762,0.049L306.251,180.79z"/>
		<g id="XMLID_5_">
			<path id="XMLID_18_" style="fill:#DA9A8E;" d="M331.65,188.194c0,0-0.013-11.909,2.206-19.974
				c2.164-7.863-1.432-8.073-3.109-7.557c-1.989,0.627-4.135,1.533-6.375,2.596c-7.225,3.43-14.381,19.544-14.381,19.544
				s1.475,0.123,2.09,0.983c0.615,0.86,2.458-1.352,4.056-0.492c1.598,0.86,2.458,0.369,3.933-1.844
				c1.475-2.212,0.369,2.95,3.565,3.073c3.196,0.123,1.967-1.352,2.581,2.212c0.39,2.262,3.105,2.196,5.352,1.784
				C331.597,188.417,331.623,188.306,331.65,188.194L331.65,188.194z"/>
			<path id="XMLID_42_" style="fill:#CC8279;" d="M325.71,177.773c-2.537-0.373-0.373-2.015-1.567-6.123
				c-0.936-3.222-7.146,7.05-9.785,11.637c0.578-0.207,1.194-0.306,1.778,0.008c1.598,0.86,2.458,0.369,3.933-1.844
				c1.475-2.212,0.369,2.95,3.565,3.073c3.097,0.119,2.052-1.221,2.543,1.936C327.334,182.942,327.603,178.051,325.71,177.773z"/>
		</g>
	</g>
	<g id="XMLID_55_">
		<path id="XMLID_54_" style="fill:#DA9A8E;" d="M185.5,417.191c0,0,32.496-1.912,43.618,4.692s14.25,21.201-3.823,25.024
			c-18.073,3.823-33.018-9.34-34.582-8.58c-1.564,0.76,6.604,12.056,22.417,13.446c15.814,1.39,30.585-1.216,31.28-14.423
			c0.695-13.207-12.338-21.896-26.24-23.286c-13.902-1.39-26.588-4.344-26.588-4.344L185.5,417.191z"/>
		<path id="XMLID_48_" style="fill:#DA9A8E;" d="M87.621,424.563c0,0,0.544,4.453-1.947,4.912c-2.491,0.459-9.845,0.459-8.778,1.764
			c1.068,1.305,6.756-0.237,5.335,0.593s-6.376,2.016-5.44,2.965c0.935,0.949,6.866-2.254,6.392-1.305
			c-0.474,0.949-3.562,4.033-1.01,3.084c2.552-0.949,5.517-4.27,7.534-4.745c2.016-0.474,1.068-6.287,1.423-8.303
			C91.486,421.512,87.621,424.563,87.621,424.563z"/>
		<path id="XMLID_47_" style="fill:#DA9A8E;" d="M145.203,426.609c-0.496,0-10.308,3.106-13.877,3.188
			c-3.568,0.083-4.46,0.182-6.542,2.065c-2.082,1.883,0.846,0.911,2.403,0.589c1.556-0.322,3.542-0.429,2.469,0
			s-1.879,0.483-3.328,2.201c-1.449,1.717-2.523,2.791-0.644,2.147c1.879-0.644,4.669-2.147,5.689-2.04
			c1.02,0.107-0.966,0.537-1.61,1.771c-0.644,1.234-1.073,2.147-0.268,1.664c0.805-0.483,3.059-1.61,4.669-1.664
			c1.61-0.054,8.66-3.167,11.039-3.006c2.379,0.161,3.775,0.644,4.043-0.268c0.268-0.912,0.322-5.689,0.322-5.689L145.203,426.609z"
			/>
		<path id="XMLID_40_" style="fill:#E5E5E5;" d="M102.093,373.872c0,0-17.755-7.672-35.949,0
			c-18.194,7.672-27.181,23.674-25.427,29.592c1.754,5.918,11.837,3.288,18.194,2.63s20.824,2.192,24.112,9.426
			s2.439,9.672,4.52,10.296c2.081,0.624,5.619,2.705,6.867,0c1.249-2.705,8.948-7.908,12.486-6.867
			c3.538,1.04,24.971,8.532,34.752,4.786c0,0,1.04,3.538,2.705,5.202c0,0,3.954,2.705,12.486,0
			c8.532-2.705,12.486-1.873,18.937-3.954c6.451-2.081,10.613-6.451,13.734-7.075c3.121-0.624,8.74-2.497,6.659-4.37
			c-2.081-1.873,2.913-1.665,0.624-3.954s-6.659-6.035-9.572-10.613c-2.913-4.578-6.867-28.509-27.677-32.255
			c-20.81-3.746-30.798,3.121-37.665,4.994C115.011,373.584,114.355,375.408,102.093,373.872z"/>
		<path id="XMLID_45_" style="fill:#231F20;" d="M59.361,389.757c-0.288-0.141,1.555-3.837,4.838-5.47s7.872,1.303,7.872,1.303
			S68.97,394.459,59.361,389.757z"/>
		<circle id="XMLID_44_" style="fill:#F9F2F4;" cx="64.199" cy="387.945" r="1.482"/>
		<path id="XMLID_46_" style="fill:#DA9A8E;" d="M40.717,403.464c0,0,4.052-4.145,3.969-2.97c-0.084,1.175-1.679,2.854-1.511,3.693
			s-0.473,1.894-0.473,1.894S41.448,406.014,40.717,403.464z"/>
		<path id="XMLID_50_" style="fill:#C1C1C1;" d="M141.647,423.735c0.709-0.586-3.196-10.669,1.831-16.915
			c0,0-9.249,8.351-4.847,17.683C138.631,424.504,140.819,424.42,141.647,423.735z"/>
		<path id="XMLID_49_" style="fill:#C1C1C1;" d="M80.294,380.198c0,0-4.369-3.819-5.605-8.908c0,0,2.383-0.4,3.186-0.495
			C78.678,370.701,80.386,378.158,80.294,380.198z"/>
		<path id="XMLID_41_" style="fill:#E5E5E5;" d="M90.768,353.38c0,0-7.149,2.256-11.388,10.041
			c-4.239,7.785,1.837,18.246,1.714,18.858c-0.122,0.612,8.082-1.469,8.082-1.469L90.768,353.38z"/>
		<path id="XMLID_43_" style="fill:#DA9A8E;" d="M84.523,377.871c0,0-4.041-19.838,6.245-24.491
			c10.286-4.653,15.387,5.871,12.123,12.735c-3.264,6.865-6.782,14.695-9.085,13.103c-2.303-1.592-2.058-6.245-3.895-4.531
			C88.074,376.402,87.462,380.198,84.523,377.871z"/>
		<g id="XMLID_53_">
			<defs>
				<path id="XMLID_51_" d="M84.523,377.871c0,0-4.041-19.838,6.245-24.491c10.286-4.653,15.387,5.871,12.123,12.735
					c-3.264,6.865-6.782,14.695-9.085,13.103c-2.303-1.592-2.058-6.245-3.895-4.531C88.074,376.402,87.462,380.198,84.523,377.871z"
					/>
			</defs>
			<clipPath id="XMLID_00000047027572743020909340000011047249118647241124_">
				<use xlink:href="#XMLID_51_"  style="overflow:visible;"/>
			</clipPath>
			<path id="XMLID_52_" style="clip-path:url(#XMLID_00000047027572743020909340000011047249118647241124_);fill:#C98279;" d="
				M88.302,378.707c-0.163-0.245-1.143-6.531,2.857-9.959c4-3.429,0.245,5.439,1.469,10.679S88.302,378.707,88.302,378.707z"/>
		</g>
	</g>
	<g id="XMLID_2_">
		<path id="XMLID_163_" style="fill:#DA9A8E;" d="M406.563,430.382c0,0,32.165-1.892,43.173,4.644
			c11.008,6.536,14.104,20.985-3.784,24.769c-17.889,3.784-32.681-9.245-34.229-8.493c-1.548,0.752,6.536,11.933,22.189,13.309
			s30.273-1.204,30.961-14.276c0.688-13.072-12.212-21.673-25.973-23.049c-13.76-1.376-26.317-4.3-26.317-4.3L406.563,430.382z"/>
		<path id="XMLID_162_" style="fill:#DA9A8E;" d="M309.681,437.679c0,0,0.538,4.408-1.927,4.862
			c-2.466,0.454-9.745,0.454-8.688,1.746c1.057,1.292,6.687-0.235,5.281,0.587c-1.406,0.822-6.311,1.996-5.385,2.935
			c0.926,0.939,6.796-2.231,6.327-1.291s-3.526,3.992-1,3.053c2.526-0.939,5.461-4.227,7.457-4.696
			c1.996-0.47,1.057-6.223,1.409-8.219S309.681,437.679,309.681,437.679z"/>
		<path id="XMLID_161_" style="fill:#DA9A8E;" d="M366.677,439.704c-0.491,0-10.203,3.074-13.735,3.156s-4.415,0.18-6.475,2.044
			s0.837,0.902,2.378,0.583c1.541-0.319,3.506-0.425,2.444,0c-1.063,0.425-1.859,0.478-3.294,2.178s-2.497,2.763-0.638,2.125
			s4.622-2.125,5.631-2.019c1.009,0.106-0.956,0.531-1.594,1.753c-0.638,1.222-1.063,2.125-0.266,1.647
			c0.797-0.478,3.028-1.594,4.622-1.647s8.571-3.134,10.926-2.975c2.355,0.159,3.736,0.637,4.002-0.266
			c0.266-0.903,0.319-5.631,0.319-5.631L366.677,439.704z"/>
		<path id="XMLID_160_" style="fill:#BCBCBC;" d="M324.006,387.504c0,0-17.574-7.594-35.583,0
			c-18.008,7.594-26.904,23.432-25.168,29.291c1.736,5.858,11.716,3.254,18.008,2.604c6.292-0.651,20.612,2.17,23.866,9.33
			s2.414,9.573,4.474,10.191c2.06,0.618,5.561,2.678,6.797,0c1.236-2.678,8.857-7.827,12.358-6.797
			c3.502,1.03,24.717,8.445,34.398,4.737c0,0,1.03,3.502,2.678,5.149c0,0,3.914,2.678,12.358,0
			c8.445-2.678,12.358-1.854,18.744-3.914s10.505-6.385,13.594-7.003s8.651-2.472,6.591-4.325c-2.06-1.854,2.884-1.648,0.618-3.914
			c-2.266-2.266-6.591-5.973-9.475-10.505c-2.884-4.531-6.797-28.219-27.395-31.926c-20.597-3.708-30.484,3.09-37.281,4.943
			C336.792,387.22,336.143,389.024,324.006,387.504z"/>
		<path id="XMLID_159_" style="fill:#231F20;" d="M281.709,403.227c-0.285-0.14,1.54-3.797,4.789-5.414
			c3.249-1.617,7.792,1.29,7.792,1.29S291.221,407.881,281.709,403.227z"/>
		<circle id="XMLID_158_" style="fill:#F9F2F4;" cx="286.498" cy="401.434" r="1.467"/>
		<path id="XMLID_157_" style="fill:#DA9A8E;" d="M263.255,416.795c0,0,4.011-4.103,3.928-2.94
			c-0.083,1.163-1.661,2.825-1.495,3.655c0.166,0.831-0.468,1.874-0.468,1.874S263.979,419.319,263.255,416.795z"/>
		<path id="XMLID_156_" style="fill:#A0A0A0;" d="M363.157,436.86c0.702-0.58-3.163-10.56,1.813-16.742
			c0,0-9.155,8.266-4.797,17.503C360.172,437.62,362.337,437.537,363.157,436.86z"/>
		<path id="XMLID_154_" style="fill:#A0A0A0;" d="M303.453,393.537c0,0-4.325-3.78-5.547-8.817c0,0,2.358-0.396,3.153-0.49
			C301.854,384.137,303.544,391.518,303.453,393.537z"/>
		<path id="XMLID_150_" style="fill:#BCBCBC;" d="M317.791,373.127c0,0-7.42-0.04-13.774,6.011
			c-6.354,6.051-3.798,17.749-4.099,18.289c-0.301,0.54,8.061,1.064,8.061,1.064L317.791,373.127z"/>
		<path id="XMLID_147_" style="fill:#DA9A8E;" d="M304.485,394.312c0,0,2.203-19.917,13.306-21.185
			c11.103-1.268,12.72,10.194,7.564,15.674c-5.156,5.479-10.843,11.791-12.531,9.594s-0.047-6.508-2.297-5.45
			C308.277,394.003,306.549,397.395,304.485,394.312z"/>
		<g id="XMLID_140_">
			<defs>
				<path id="XMLID_145_" d="M306.615,391.463c0,0-4-19.635,6.182-24.241c10.181-4.606,15.23,5.811,11.999,12.605
					c-3.231,6.795-6.713,14.545-8.992,12.969c-2.28-1.576-2.037-6.182-3.855-4.485S309.524,393.766,306.615,391.463z"/>
			</defs>
			<clipPath id="XMLID_00000054261534373248315830000012525155422508611738_">
				<use xlink:href="#XMLID_145_"  style="overflow:visible;"/>
			</clipPath>
			<path id="XMLID_146_" style="clip-path:url(#XMLID_00000054261534373248315830000012525155422508611738_);fill:#C98279;" d="
				M310.356,392.29c-0.162-0.242-1.131-6.464,2.828-9.858c3.959-3.394,0.242,5.384,1.454,10.57
				C315.85,398.189,310.356,392.29,310.356,392.29z"/>
		</g>
	</g>
	<g id="XMLID_119_">
		<path id="XMLID_76_" style="fill:#CE8278;" d="M168.443,315.098c0.147,0.441,9.398,1.341,21.88,0.891s22.762,3.101,23.79,11.678
			s-14.538,5.744-24.083,4.003c-9.545-1.741-20.999,1.184-24.083,4.861c-3.084,3.677,9.251-3.53,21.587,0
			c12.335,3.53,26.58,8.288,32.013-2.557c5.433-10.845-4.699-21.961-20.118-22.254s-28.489-4.405-28.489-4.405L168.443,315.098z"/>
		<path id="XMLID_73_" style="fill:#DA9A8E;" d="M105.761,317.404c-0.588-0.118-7.823,0.941-10.293,2.823s-2.353,3.117-1.47,2.647
			c0.882-0.471,3.294-1.412,3.411-1.294s-1.235,1-2.117,2.647c-0.882,1.647-0.529,1.235,1.941,0s3.059-1.588,2.941-1.059
			c-0.118,0.529-1.516,3.706-0.582,3.117c0.935-0.588,4.228-2.823,6.522-3.647s5.705-1.941,6.117-4
			C112.642,316.581,105.761,317.404,105.761,317.404z"/>
		<path id="XMLID_74_" style="fill:#DA9A8E;" d="M144.947,317.241c0,0-7.36,2.028-10.843,2.816c-3.483,0.789-4.535,1.971-5.52,3.22
			c-0.986,1.249,2.563-0.394,3.154-0.46c0.591-0.066-3.352,3.154-2.103,3.089c1.249-0.066,4.929-2.432,4.863-1.709
			c-0.066,0.723-2.826,4.14-0.986,3.352s4.47-2.694,6.572-3.023c2.102-0.329,9.66-1.972,10.12-3.22s0.854-4.065,0.854-4.065H144.947
			z"/>
		<path id="XMLID_56_" style="fill:#B28346;" d="M58.007,315.6c0,0-8.64,1.69-12.772-4.32c-4.132-6.01,0.563-21.975,6.386-29.112
			s33.807-33.244,58.599-34.371c24.792-1.127,47.518,3.005,61.229,26.67c13.711,23.665,3.381,42.071-3.756,44.325
			c-7.137,2.254-27.609-1.315-27.609-1.315s-20.097,3.944-36.812,0.563C86.556,314.661,86.18,314.849,58.007,315.6z"/>
		<g id="XMLID_63_">
			<defs>
				<path id="XMLID_61_" d="M58.007,315.6c0,0-8.64,1.69-12.772-4.32c-4.132-6.01,0.563-21.975,6.386-29.112
					s33.807-33.244,58.599-34.371c24.792-1.127,47.518,3.005,61.229,26.67c13.711,23.665,3.381,42.071-3.756,44.325
					c-7.137,2.254-27.609-1.315-27.609-1.315s-20.097,3.944-36.812,0.563C86.556,314.661,86.18,314.849,58.007,315.6z"/>
			</defs>
			<clipPath id="XMLID_00000085217117643492681340000008653330696765882505_">
				<use xlink:href="#XMLID_61_"  style="overflow:visible;"/>
			</clipPath>
			<path id="XMLID_62_" style="clip-path:url(#XMLID_00000085217117643492681340000008653330696765882505_);fill:#E2C6A3;" d="
				M46.827,315.988c0,0,13.73-7.293,18.815-8.945s28.273,0.992,34.375-2.669c6.102-3.661,11.391,1.831,23.188,0
				c11.797-1.831,32.951-1.627,36.612,1.627c3.661,3.254,14.645,4.436,13.831,12.185c-0.814,7.749-11.391,16.088-11.391,16.088
				l-104.345-2.848l-19.527-9.56L46.827,315.988z"/>
			<path id="XMLID_65_" style="clip-path:url(#XMLID_00000085217117643492681340000008653330696765882505_);fill:#A06E33;" d="
				M74.85,277.927c0,0-5.147-7.065-3.767-14.975s7.726-2.759,7.726-2.759L74.85,277.927z"/>
		</g>
		<path id="XMLID_60_" style="fill:#D1AC84;" d="M144.687,318.186c7.039-3.612,8.954-8.943,8.954-8.943
			c-6.247,6.452-13.557,8.235-13.557,8.235S141.925,317.798,144.687,318.186z"/>
		<path id="XMLID_59_" style="fill:#B28346;" d="M74.85,277.927c0,0-6.519-22.198,12.803-28.988l-2.466,22.791l-1.908,11.855
			L74.85,277.927z"/>
		<path id="XMLID_58_" style="fill:#DA9A8E;" d="M82.483,276.66c0,0-10.178-18.776,7.157-29.029
			c17.335-10.253,22.424,15.511,15.426,22.349s-11.132,9.86-13.041,6.679c-1.908-3.181-1.749-4.612-4.453-3.022
			C84.869,275.228,85.028,280.158,82.483,276.66z"/>
		<path id="XMLID_57_" style="fill:#845215;" d="M44.415,309.654c0,0,5.197-3.555,4.801-2.368s-2.9,3.351-2.39,5.781
			C46.827,313.066,45.072,312.651,44.415,309.654z"/>
		<g id="XMLID_68_">
			<defs>
				<path id="XMLID_64_" d="M82.483,276.66c0,0-10.178-18.776,7.157-29.029c17.335-10.253,22.424,15.511,15.426,22.349
					s-11.132,9.86-13.041,6.679c-1.908-3.181-1.749-4.612-4.453-3.022C84.869,275.228,85.028,280.158,82.483,276.66z"/>
			</defs>
			<clipPath id="XMLID_00000158712176380577537050000014470554960069989256_">
				<use xlink:href="#XMLID_64_"  style="overflow:visible;"/>
			</clipPath>
			<path id="XMLID_67_" style="clip-path:url(#XMLID_00000158712176380577537050000014470554960069989256_);fill:#CC8279;" d="
				M84.568,280.975c0,0,0.951-17.96,7.607-19.387c6.656-1.426-2.219,7.977-2.007,19.387
				C90.379,292.385,84.568,280.975,84.568,280.975z"/>
		</g>
		<path id="XMLID_71_" style="fill:#231F20;" d="M59.587,293.411c-0.276-0.027,0.1-3.57,2.261-5.881
			c2.161-2.31,6.757-1.321,6.757-1.321S68.773,294.313,59.587,293.411z"/>
		<circle id="XMLID_70_" style="fill:#F9F2F4;" cx="62.952" cy="290.487" r="1.278"/>
	</g>
	<g id="XMLID_100_">
		<path id="XMLID_97_" style="fill:#DA9A8E;" d="M198.862,200.781c0,0,19.242-2.724,23.138,2.82
			c3.896,5.544-1.498,9.49-14.834,8.791c-13.335-0.7-30.416-1.525-39.256,4.956c-8.84,6.481,3.596-1.61,14.234-1.46
			c10.638,0.15,36.709,4.046,44.8-0.599c8.091-4.645,8.541-14.534-0.599-18.13c-9.14-3.596-22.53-4.612-32.214-7.791
			C181.236,185.133,187.481,200.659,198.862,200.781z"/>
		<path id="XMLID_81_" style="fill:#DA9A8E;" d="M104.521,208.555c-0.638-0.217-8.858-0.099-11.888,1.637s-3.08,3.13-2.027,2.735
			c1.052-0.395,3.879-1.09,3.993-0.942c0.114,0.148-1.524,0.933-2.749,2.64s-0.771,1.299,2.164,0.285s3.642-1.321,3.434-0.749
			c-0.209,0.573-2.234,3.908-1.106,3.39c1.128-0.519,5.128-2.527,7.805-3.108c2.678-0.581,6.644-1.326,7.405-3.561
			C112.313,208.647,104.521,208.555,104.521,208.555z"/>
		<path id="XMLID_80_" style="fill:#DA9A8E;" d="M157.261,205.172c0,0-10.195,2.809-15.019,3.901
			c-4.824,1.092-6.281,2.731-7.646,4.46s3.55-0.546,4.369-0.637s-4.642,4.369-2.913,4.278s6.827-3.368,6.736-2.367
			c-0.091,1.001-3.914,5.734-1.365,4.642c2.549-1.092,6.191-3.732,9.103-4.187c2.912-0.455,13.38-2.731,14.017-4.46
			c0.637-1.729,1.183-5.63,1.183-5.63H157.261z"/>
		<path id="XMLID_77_" style="fill:#8C623F;" d="M92.126,155.487c-1.258,0.21-13.421-0.839-29.567,13.421
			c-16.147,14.259-22.228,24.115-20.131,29.987c2.097,5.872,10.695,7.491,20.76,5.318s22.647,0.763,32.293,3.489
			c9.646,2.726,22.018,4.404,33.342,2.097s31.245,0.629,43.617-4.194c12.372-4.823,27.47-3.775,26.422-4.823
			c-1.048-1.048-4.823-3.775-2.307-4.404c2.516-0.629,3.039-0.419,2.358-2.516c-0.681-2.097-0.471-2.097,1.416-1.887
			c1.887,0.21,3.565,2.582,1.678-1.645s-11.743-31.068-30.826-38.827s-45.085-2.097-47.601-3.355
			c-2.516-1.258-1.887-5.033-4.613-2.726c-2.726,2.307-4.823,4.404-4.823,1.468s-1.258-2.726-3.355-0.419
			c-2.097,2.307-8.598,5.662-11.743,6.501C95.901,153.809,92.126,155.487,92.126,155.487z"/>
		<g id="XMLID_75_">
			<path id="XMLID_83_" style="fill:#231F20;" d="M63.013,184.571c-0.31-0.03,0.113-4.014,2.542-6.612
				c2.429-2.598,7.596-1.485,7.596-1.485S73.34,185.586,63.013,184.571z"/>
			<circle id="XMLID_82_" style="fill:#F9F2F4;" cx="66.796" cy="181.284" r="1.437"/>
		</g>
		<path id="XMLID_84_" style="fill:#51331D;" d="M42.428,198.894c0,0,5.565-4.194,5.176-2.64c-0.389,1.554-3.212,3.358-1.898,6.634
			C45.707,202.888,42.813,201.808,42.428,198.894z"/>
		<path id="XMLID_88_" style="fill:#7C5233;" d="M89.838,156.634c0,0-0.289-0.392-0.756-0.947
			c-2.289,0.236-5.734,0.865-10.025,2.616c-0.787,5.378,0.328,10.916,0.328,10.916L89.838,156.634z"/>
		<path id="XMLID_79_" style="fill:#8C623F;" d="M79.761,166.899c0,0,0.066-0.236,0.2-0.658c1.072-3.379,6.501-18.677,17.387-20.25
			c0,0-1.093,16.907-1.336,17.271s-10.43,12.977-10.43,12.977l-6.549-4.851L79.761,166.899z"/>
		<path id="XMLID_78_" style="fill:#CE8278;" d="M86.431,167.627c0,0,3.881-20.042,13.583-22.937
			c9.702-2.895,10.43,12.871,4.366,19.299c-6.064,6.428-10.187,8.247-10.309,4.73s-0.849-0.121-2.304-1.091
			c-1.455-0.97-1.455-3.638-2.426-1.455C88.371,168.355,86.795,170.901,86.431,167.627z"/>
		<g id="XMLID_87_">
			<defs>
				<path id="XMLID_85_" d="M86.431,167.627c0,0,3.881-20.042,13.583-22.937c9.702-2.895,10.43,12.871,4.366,19.299
					c-6.064,6.428-10.187,8.247-10.309,4.73s-0.849-0.121-2.304-1.091c-1.455-0.97-1.455-3.638-2.426-1.455
					C88.371,168.355,86.795,170.901,86.431,167.627z"/>
			</defs>
			<clipPath id="XMLID_00000142154344192619399600000005867070575068121517_">
				<use xlink:href="#XMLID_85_"  style="overflow:visible;"/>
			</clipPath>
			<path id="XMLID_86_" style="clip-path:url(#XMLID_00000142154344192619399600000005867070575068121517_);fill:#BA6A65;" d="
				M89.442,169.219c0,0,3.379-10.71,6.369-10.125c2.99,0.585-3.704,13.973-3.444,14.298S89.442,169.219,89.442,169.219z"/>
		</g>
		<g id="XMLID_95_">
			<defs>
				<path id="XMLID_94_" d="M92.126,155.487c-1.258,0.21-13.421-0.839-29.567,13.421c-16.147,14.259-22.228,24.115-20.131,29.987
					c2.097,5.872,10.695,7.491,20.76,5.318s22.647,0.763,32.293,3.489c9.646,2.726,22.018,4.404,33.342,2.097
					s31.245,0.629,43.617-4.194c12.372-4.823,27.47-3.775,26.422-4.823c-1.048-1.048-4.823-3.775-2.307-4.404
					c2.516-0.629,3.039-0.419,2.358-2.516c-0.681-2.097-0.471-2.097,1.416-1.887c1.887,0.21,3.565,2.582,1.678-1.645
					s-11.743-31.068-30.826-38.827s-45.085-2.097-47.601-3.355c-2.516-1.258-1.887-5.033-4.613-2.726
					c-2.726,2.307-4.823,4.404-4.823,1.468s-1.258-2.726-3.355-0.419c-2.097,2.307-8.598,5.662-11.743,6.501
					C95.901,153.809,92.126,155.487,92.126,155.487z"/>
			</defs>
			<clipPath id="XMLID_00000120523149560495710540000017600590690730722988_">
				<use xlink:href="#XMLID_94_"  style="overflow:visible;"/>
			</clipPath>
			<g id="XMLID_93_" style="clip-path:url(#XMLID_00000120523149560495710540000017600590690730722988_);">
				<path id="XMLID_90_" style="fill:#BA855D;" d="M165.726,211.665c0,0-12.865-9.043-21.387-10.26
					c-8.521-1.217-24.173-0.348-24.173-2.956s1.391,0.522-4.869-2.609c-6.261-3.13-7.13-6.152-11.478-5.511
					c-4.348,0.641,4.695-4.054,11.478-2.663c6.782,1.391,13.043,2.087,15.13,3.478c2.087,1.391,4.521,1.391,12.347,2.087
					c7.826,0.696,9.565,0.348,10.782,2.956c1.217,2.609,13.564,0.522,14.26,4.174s8.869,5.791,8.347,8.112
					C175.642,210.796,165.726,211.665,165.726,211.665z"/>
				<path id="XMLID_89_" style="fill:#BA855D;" d="M186.25,208.474c-0.348-1.33-9.565-12.286-17.912-16.634
					c-8.347-4.348-14.608-2.782-14.434-5.739s-9.739,1.097-9.739-1.452c0-2.548-19.129-3.766-18.086-5.505
					c1.043-1.739-9.912-1.642-8.869-2.908s-13.391,3.179-12.347,0c1.043-3.179-7.652-1.092-5.565-2.483
					c2.087-1.391,21.042-4.174,28.346-1.565c7.304,2.609,7.234-0.87,11.79,1.043s9.948-0.37,14.469,2.771
					c4.521,3.141,9.739,4.555,14.608,6.717s14.956,5.815,16.521,9.119s5.422,6.495,7.667,9.769
					C194.945,204.883,186.25,208.474,186.25,208.474z"/>
				<path id="XMLID_92_" style="fill:#BA855D;" d="M201.38,200.536c0,0-9.043-12.499-16.695-17.814s-15.13-4.967-13.391-7.576
					s-12.869-2.367-11.825-4.662c1.043-2.294-11.652-3.512-10.782-4.729c0.87-1.217-13.217-0.696-10.26-1.391
					s9.565-4.691,19.129-1.911c9.565,2.78,8.869-1.219,12.521,1.563c3.652,2.782,8.173,1.537,10.782,5.203
					c2.609,3.666,9.739,4.459,10.782,7.019c1.043,2.56,6.779,3.452,7.041,6.484s11.74,4.678,10.871,7.073
					c-0.87,2.394-3.13,6.742-3.13,6.742L201.38,200.536z"/>
				<path id="XMLID_91_" style="fill:#BA855D;" d="M195.815,169.219c-0.522-1.029-20.521-11.985-26.607-12.507
					c-6.087-0.522-12.521-1.043-12.173-2.609c0.348-1.565-11.304,0.174-9.912-1.043c1.391-1.217-11.13,0.696-10.608-0.522
					c0.522-1.217-12.173,0.522-10.782,0s-5.904-0.174-3.3-1.739c2.604-1.565,20.618-5.089,27.61-6.109
					c6.992-1.021,29.6,1.301,29.6,1.301l16.869,9.696L195.815,169.219z"/>
			</g>
			<path id="XMLID_96_" style="clip-path:url(#XMLID_00000120523149560495710540000017600590690730722988_);fill:#BA855D;" d="
				M54.202,190.629c0.14-0.19,8.493-4.483,10.774-2.752c2.281,1.73,7.471-0.786,10.459-1.73c2.988-0.944,4.325-2.988,5.898-2.91
				c1.573,0.079,3.382-5.662,4.561-4.876c1.18,0.786,12.74-1.101,9.83,0.708s-7.628,2.674-8.572,5.898
				c-0.944,3.224-3.775,4.483-7.471,4.325c-3.696-0.157-3.618,3.382-7.392,2.674c-3.775-0.708-7.471-0.629-7.471-0.629h-4.561
				c0,0,1.494,0.55-1.022,0.079S52.865,192.438,54.202,190.629z"/>
			<path id="XMLID_98_" style="clip-path:url(#XMLID_00000120523149560495710540000017600590690730722988_);fill:#BA855D;" d="
				M41.305,198.336c1.352,0.741,10.695-9.594,9.437-11.56c-1.258-1.966,1.26-3.775,3.186-5.898
				c1.926-2.123,12.127-9.83,11.43-10.774c-0.697-0.944,3.55-1.18,3.629-2.752c0.079-1.573,5.112-1.73,5.269-3.303
				c0.157-1.573,3.46-1.18,2.359-5.505c-1.101-4.325-16.121,1.73-16.121,1.73l-1.887,5.741l-17.301,14.429v9.635
				C41.305,190.079,38.867,196.999,41.305,198.336z"/>
			<path id="XMLID_99_" style="clip-path:url(#XMLID_00000120523149560495710540000017600590690730722988_);fill:#BA855D;" d="
				M66.796,173.328c1.719-1.022,4-3.722,5.494-2.844c1.494,0.878,3.122-2.543,4.55-1.265c1.427,1.278,5.517,0.492,2.764,1.75
				c-2.752,1.258-4.568,1.337-6.452,1.966s-4.097-0.393-5.114,0.786c-1.017,1.18-2.533,2.045-2.679,1.651
				C65.212,174.98,66.796,173.328,66.796,173.328z"/>
		</g>
	</g>
	<g id="XMLID_118_">
		<path id="XMLID_113_" style="fill:#DA9A8E;" d="M173.45,104.284c1.058,0,15.078-1.444,29.626,1.394
			c14.549,2.838,31.213-1.251,39.413,0s12.168-2.452,0-6.684c-12.168-4.232-22.22,2.381-32.536,0
			c-10.316-2.381-31.478-5.026-31.478-5.026L173.45,104.284z"/>
		<path id="XMLID_102_" style="fill:#C08B57;" d="M84.969,42.993c0,0-16.43-1.917-27.384,7.941s-16.704,33.408-12.87,39.159
			s7.668,6.024,13.966,5.477c6.298-0.548,11.501-3.447,13.966,0.193c2.465,3.641,11.951,5.802,16.332,7.992
			c4.381,2.191,1.917,5.203,3.012,5.751c1.095,0.548,2.974-2.198,5.713-1.102c2.738,1.095,12.087-2.458,13.73-3.827
			c1.643-1.369,6.123,3.316,10.23,3.59c4.108,0.274,10.132,0.822,13.966,2.738s3.834,5.203,13.418,7.12
			c9.584,1.917,23.824-5.477,29.575-11.501c5.751-6.024,7.941-4.929,6.024-8.215c-1.917-3.286,3.834,0.822,1.917-3.286
			c-1.917-4.108-4.929-7.783-7.394-14.434c-2.465-6.651-11.775-25.82-35.599-30.475s-15.883-8.516-22.729-7.27
			c-6.846,1.246-3.56-2.314-7.394-1.493s-2.465-5.203-6.572-1.643c-4.108,3.56-7.394-0.548-13.418,2.191
			C87.433,44.636,84.969,42.993,84.969,42.993z"/>
		<path id="XMLID_104_" style="fill:#966335;" d="M46.405,92.275c0,0,5.642-5.954,5.09-3.966c-0.552,1.988-2.139,4.513-0.849,6.84
			C50.647,95.149,48.096,94.457,46.405,92.275z"/>
		<g id="XMLID_107_">
			<defs>
				<path id="XMLID_105_" d="M84.969,42.993c0,0-16.43-1.917-27.384,7.941s-16.704,33.408-12.87,39.159s7.668,6.024,13.966,5.477
					c6.298-0.548,11.501-3.447,13.966,0.193c2.465,3.641,11.951,5.802,16.332,7.992c4.381,2.191,1.917,5.203,3.012,5.751
					c1.095,0.548,2.974-2.198,5.713-1.102c2.738,1.095,12.087-2.458,13.73-3.827c1.643-1.369,6.123,3.316,10.23,3.59
					c4.108,0.274,10.132,0.822,13.966,2.738s3.834,5.203,13.418,7.12c9.584,1.917,23.824-5.477,29.575-11.501
					c5.751-6.024,7.941-4.929,6.024-8.215c-1.917-3.286,3.834,0.822,1.917-3.286c-1.917-4.108-4.929-7.783-7.394-14.434
					c-2.465-6.651-11.775-25.82-35.599-30.475s-15.883-8.516-22.729-7.27c-6.846,1.246-3.56-2.314-7.394-1.493
					s-2.465-5.203-6.572-1.643c-4.108,3.56-7.394-0.548-13.418,2.191C87.433,44.636,84.969,42.993,84.969,42.993z"/>
			</defs>
			<clipPath id="XMLID_00000026854676188712331140000009806031315058862778_">
				<use xlink:href="#XMLID_105_"  style="overflow:visible;"/>
			</clipPath>
			<path id="XMLID_106_" style="clip-path:url(#XMLID_00000026854676188712331140000009806031315058862778_);fill:#E5B991;" d="
				M61.574,99.728c0.339-1.358,1.018-14.427,7.129-13.918c6.11,0.509,22.585,14.767,30.642,11.881s25.2-3.734,26.898-0.339
				c1.697,3.395,28.515,13.749,36.663,10.524s14.937-6.62,16.634,0.17c1.697,6.789-26.648,21.047-26.648,21.047l-48.714-3.055
				l-31.231-6.28L61.574,99.728z"/>
			<path id="XMLID_109_" style="clip-path:url(#XMLID_00000026854676188712331140000009806031315058862778_);fill:#B27844;" d="
				M74.688,52.012c0,0-1.489-7.237,1.147-12.699c2.637-5.462,9.146,1.102,9.146,1.102L74.688,52.012z"/>
		</g>
		<path id="XMLID_103_" style="fill:#C08B57;" d="M74.688,52.012c0,0,5.99-22.987,22.151-27.027c0,0-4.04,18.25-8.777,26.051
			c-4.737,7.802-6.687,12.538-8.08,9.891S73.994,54.263,74.688,52.012z"/>
		<path id="XMLID_101_" style="fill:#DA9A8E;" d="M91.962,55.774c-0.388,0.155-2.229,0.279-2.508-2.09s-4.319,2.508-5.294,0
			s-1.603-7.935,1.567-15.113c3.17-7.178,11.111-13.586,11.111-13.586s3.483,0,2.786,11.145S94.052,54.938,91.962,55.774z"/>
		<g id="XMLID_111_">
			<path id="XMLID_110_" style="fill:#231F20;" d="M58.515,70.897c-0.281-0.028,0.102-3.643,2.307-6
				c2.205-2.357,6.894-1.348,6.894-1.348S67.887,71.817,58.515,70.897z"/>
			<circle id="XMLID_108_" style="fill:#F9F2F4;" cx="61.948" cy="67.914" r="1.304"/>
		</g>
		<path id="XMLID_112_" style="fill:#C08B57;" d="M88.488,95.032c0,0,3.596,3.259,3.034,6.967c-0.562,3.708,0.787,6.855-0.45,9.664
			c-1.236,2.809-3.596,5.956-5.169,5.731c-1.573-0.225-4.72,0.112-6.855,2.023c-2.135,1.91,3.147,0.225,3.933,0.787
			c0.787,0.562,0,2.697,3.484,1.236c3.484-1.461,5.057-1.236,7.192-1.798c2.135-0.562,2.472-2.248,3.147-6.068
			s4.495-10.114,8.99-11.462c4.495-1.349,6.63-6.181,10.226-7.08c3.596-0.899-7.529-5.619-7.529-5.619L88.488,95.032z"/>
		<path id="XMLID_114_" style="fill:#C08B57;" d="M147.595,105.677c0.304,0.418,6.685,3.76,5.165,7.102s-11.85,5.943-15.345,5.554
			c-3.494-0.389-6.989,2.743-8.356,3.608c-1.367,0.865,5.014-0.105,8.356,0c3.342,0.105-0.456,1.928,2.431,1.017
			c2.887-0.912,6.229-2.279,10.331-1.975c4.102,0.304,22.401-4.764,28.444-14.46s-14.011-11.367-14.011-11.367L147.595,105.677z"/>
		<g id="XMLID_117_">
			<defs>
				<path id="XMLID_115_" d="M91.962,55.774c-0.388,0.155-2.229,0.279-2.508-2.09s-4.319,2.508-5.294,0s-1.603-7.935,1.567-15.113
					c3.17-7.178,11.111-13.586,11.111-13.586s3.483,0,2.786,11.145S94.052,54.938,91.962,55.774z"/>
			</defs>
			<clipPath id="XMLID_00000011753754182533351180000013461746175725539510_">
				<use xlink:href="#XMLID_115_"  style="overflow:visible;"/>
			</clipPath>
			<path id="XMLID_116_" style="clip-path:url(#XMLID_00000011753754182533351180000013461746175725539510_);fill:#D38E89;" d="
				M85.728,57.838c0,0,1.186-16.791,5.093-15.461s0.249,14.381-1.413,16.376C87.745,60.747,85.728,57.838,85.728,57.838z"/>
		</g>
	</g>
	<g id="XMLID_132_">
		<path id="XMLID_134_" style="fill:#D38E89;" d="M425.922,327.134c0.582,0,15.69-0.557,14.636,10.685
			c-1.054,11.242-18.517,6.391-27.249,8.331s-17.076,9.896-17.076,13.001c0,3.105,7.762-7.374,18.628-7.568
			c10.866-0.194,29.494,3.105,33.375-6.985c3.881-10.09-3.299-22.121-13.971-25.419C423.594,315.88,425.922,327.134,425.922,327.134
			z"/>
		<path id="XMLID_123_" style="fill:#D38E89;" d="M329.351,329.985c-0.631,0.153-17.914,5.063-12.851,5.841
			c5.063,0.779,10.255-1.558,6.75,0.649c-3.505,2.207-9.866,5.582-4.673,4.673c5.192-0.909,7.918-1.817,10.774-2.596
			c2.856-0.779,8.568-4.284,8.568-5.582S330.635,329.674,329.351,329.985z"/>
		<path id="XMLID_125_" style="fill:#D38E89;" d="M394.646,332.322c-0.649-0.13-20.38,3.335-23.755,5.497
			c-3.375,2.162-1.558,2.162,2.726,1.513c4.284-0.649-4.803,2.986-2.337,2.986s8.568-4.024,8.308-2.337
			c-0.26,1.688,0.389,2.077,5.452,0c5.063-2.077,8.438-2.34,13.111-2.663s11.553-1.88,9.866-6.554S394.646,332.322,394.646,332.322z
			"/>
		<path id="XMLID_120_" style="fill:#C39347;" d="M277.993,314.916c0,0-16.934-5.731-14.85-12.245
			c2.084-6.513,11.723-9.9,20.06-16.413c8.337-6.513,24.229-11.723,35.17-9.118s28.657,6.253,39.86,4.168
			c11.202-2.084,19.279-2.866,27.355-2.345c8.076,0.521,23.707,3.387,35.952,19.8c12.245,16.413,21.884,21.363,18.237,22.926
			c-3.647,1.563-8.337,0.521-6.774,2.866c1.563,2.345-0.261,2.605-2.866,3.126c-2.605,0.521,1.042,0.782-1.303,2.084
			s-16.152,4.689-21.884,4.429c-5.732-0.261-27.094,1.331-28.657,0.014c-1.563-1.317-20.759-1.838-26.532-0.535
			s-15.412,6.774-20.362,2.605c-4.95-4.168-8.858-5.992-19.018-13.287C302.222,315.697,288.646,320.134,277.993,314.916z"/>
		<g id="XMLID_143_">
			<defs>
				<path id="XMLID_133_" d="M277.993,314.916c0,0-16.934-5.731-14.85-12.245c2.084-6.513,11.723-9.9,20.06-16.413
					c8.337-6.513,24.229-11.723,35.17-9.118s28.657,6.253,39.86,4.168c11.202-2.084,19.279-2.866,27.355-2.345
					c8.076,0.521,23.707,3.387,35.952,19.8c12.245,16.413,21.884,21.363,18.237,22.926c-3.647,1.563-8.337,0.521-6.774,2.866
					c1.563,2.345-0.261,2.605-2.866,3.126c-2.605,0.521,1.042,0.782-1.303,2.084s-16.152,4.689-21.884,4.429
					c-5.732-0.261-27.094,1.331-28.657,0.014c-1.563-1.317-20.759-1.838-26.532-0.535s-15.412,6.774-20.362,2.605
					c-4.95-4.168-8.858-5.992-19.018-13.287C302.222,315.697,288.646,320.134,277.993,314.916z"/>
			</defs>
			<clipPath id="XMLID_00000156561760539385589360000000931233767387940002_">
				<use xlink:href="#XMLID_133_"  style="overflow:visible;"/>
			</clipPath>
			<path id="XMLID_130_" style="clip-path:url(#XMLID_00000156561760539385589360000000931233767387940002_);fill:#CE9E57;" d="
				M354.387,281.79c0,0-18.054,8.079-9.651,8.079c8.402,0,25.515-1.878,20.507,0.313c-5.009,2.191-9.182,4.069-5.426,3.756
				c3.756-0.313,23.895,4.174,3.235,8.452c-20.66,4.278-26.092,7.409-18.315,7.409c7.776,0,39.184,1.67,30.106,4.069
				c-9.078,2.4-11.791,4.8-3.548,3.756c8.243-1.043,44.243,4.069,32.451,4.696c-11.791,0.626-22.643,4.487-12.73,3.861
				c9.913-0.626,29.425,0.054,18.469,2.844c-10.956,2.79-31.304,7.475-15.756,6.646c15.547-0.829,48.804-1.836,43.924-3.753
				c-4.88-1.917-25.096-4.88-18.299-6.797c6.797-1.917,9.585-4.357,0.174-7.32c-9.411-2.963-24.747-7.24-12.025-9.023
				s23.876-8.579-1.917-9.102c-25.793-0.523-14.116-7.095-7.145-8.515c6.971-1.419-36.946-3.859-33.112-6.299
				c3.834-2.44,25.793-7.842,17.253-9.411C374.042,273.885,354.387,281.79,354.387,281.79z"/>
			<path id="XMLID_131_" style="clip-path:url(#XMLID_00000156561760539385589360000000931233767387940002_);fill:#C69752;" d="
				M346.301,337.172c0,0.505-23.105-6.064-17.424-8.146c5.682-2.081,4.04-4.354-5.555-7.763
				c-9.596-3.409,17.819-11.237,9.414-12.247s-33.025-2.273-22.166-4.04s17.676-3.409,7.828-4.167s-28.661-1.389-23.358,0.126
				s-17.045,4.06-15.277,1.083s-0.884-1.462-5.555-4.871c-4.672-3.409-6.944-8.459-6.944-8.459l-10.479,12.626l21.085,20.706
				l52.018,21.464l17.929-4.293L346.301,337.172z"/>
		</g>
		<path id="XMLID_121_" style="fill:#AF7C33;" d="M263.387,302.02c0,0,8.414-0.065,6.979,0.796c-1.435,0.861-5.86,1.05-6.411,3.719
			C263.955,306.535,261.861,304.566,263.387,302.02z"/>
		<path id="XMLID_127_" style="fill:#AF7C33;" d="M321.781,277.929c-1.187-0.268-2.337-0.534-3.407-0.789
			c-2.605-0.62-5.495-0.786-8.493-0.608c-0.627,2.701-1.189,6.861,0.085,10.378C311.478,291.083,318.212,282.78,321.781,277.929z"/>
		<path id="XMLID_124_" style="fill:#C39347;" d="M309.966,286.91c0.046-0.545,4.788-17.289,22.771-14.641l-4.168,14.641
			l-16.522,5.743C312.047,292.653,309.477,292.662,309.966,286.91z"/>
		<path id="XMLID_122_" style="fill:#D38E89;" d="M316.33,286.42c-0.657,0.057,3.916-16.155,18.847-13.952
			c14.931,2.203,10.525,17.623-0.612,19.459c-11.137,1.836-17.746-0.122-16.032-2.448C320.246,287.155,321.96,285.931,316.33,286.42
			z"/>
		<path id="XMLID_129_" style="fill:#231F20;" d="M287.699,293.112c-0.245-0.12,1.321-3.258,4.108-4.645s6.685,1.107,6.685,1.107
			S295.86,297.104,287.699,293.112z"/>
		<circle id="XMLID_126_" style="fill:#F9F2F4;" cx="291.808" cy="291.573" r="1.258"/>
	</g>
</g>
<g id="Designed_by_Freepik">
	<g id="XMLID_1_">
		<g id="XMLID_466_">
			<g id="XMLID_503_">
				<path id="XMLID_528_" style="fill:#231F20;" d="M189.271,475.728v-0.14c-0.19,0.217-0.377,0.394-0.561,0.53
					c-0.184,0.137-0.385,0.24-0.6,0.311c-0.215,0.072-0.45,0.106-0.706,0.106c-0.338,0-0.651-0.071-0.939-0.214
					c-0.288-0.143-0.537-0.348-0.747-0.613c-0.211-0.265-0.37-0.577-0.479-0.936c-0.108-0.359-0.163-0.747-0.163-1.164
					c0-0.883,0.216-1.572,0.647-2.065c0.431-0.492,0.998-0.739,1.702-0.739c0.407,0,0.75,0.07,1.029,0.209
					c0.279,0.14,0.552,0.355,0.818,0.644v-2.084c0-0.29,0.057-0.509,0.173-0.657c0.115-0.148,0.28-0.222,0.494-0.222
					c0.214,0,0.378,0.068,0.494,0.204c0.116,0.137,0.173,0.337,0.173,0.602v6.228c0,0.269-0.062,0.471-0.186,0.605
					c-0.124,0.134-0.284,0.202-0.481,0.202c-0.193,0-0.353-0.07-0.479-0.209C189.334,476.185,189.271,475.986,189.271,475.728z
					 M186.494,473.654c0,0.383,0.059,0.708,0.178,0.978c0.119,0.269,0.282,0.472,0.489,0.607c0.207,0.137,0.433,0.205,0.678,0.205
					c0.248,0,0.475-0.065,0.68-0.195c0.205-0.129,0.369-0.328,0.491-0.594c0.123-0.267,0.183-0.602,0.183-1.001
					c0-0.376-0.061-0.699-0.183-0.971c-0.122-0.27-0.288-0.477-0.497-0.621c-0.209-0.143-0.437-0.214-0.685-0.214
					c-0.258,0-0.49,0.073-0.693,0.22c-0.203,0.146-0.361,0.356-0.473,0.631C186.549,472.973,186.494,473.291,186.494,473.654z"/>
				<path id="XMLID_525_" style="fill:#231F20;" d="M195.498,474.011h-2.762c0.003,0.32,0.068,0.603,0.194,0.848
					c0.126,0.245,0.293,0.43,0.502,0.554c0.209,0.124,0.439,0.186,0.691,0.186c0.169,0,0.323-0.019,0.463-0.059
					c0.14-0.041,0.275-0.102,0.406-0.187c0.131-0.084,0.252-0.175,0.362-0.272c0.11-0.097,0.253-0.228,0.429-0.394
					c0.072-0.062,0.176-0.093,0.311-0.093c0.145,0,0.262,0.04,0.351,0.12c0.09,0.08,0.135,0.191,0.135,0.336
					c0,0.128-0.051,0.276-0.15,0.447c-0.101,0.171-0.252,0.335-0.453,0.492c-0.202,0.157-0.455,0.287-0.761,0.39
					c-0.305,0.104-0.656,0.155-1.052,0.155c-0.907,0-1.612-0.259-2.115-0.776c-0.503-0.517-0.755-1.219-0.755-2.105
					c0-0.417,0.062-0.805,0.186-1.161c0.124-0.357,0.306-0.663,0.543-0.918c0.238-0.255,0.531-0.45,0.88-0.587
					c0.348-0.136,0.734-0.204,1.159-0.204c0.551,0,1.025,0.115,1.419,0.349c0.395,0.232,0.691,0.533,0.888,0.902
					c0.196,0.369,0.295,0.746,0.295,1.128c0,0.356-0.102,0.585-0.305,0.691C196.154,473.958,195.868,474.011,195.498,474.011z
					 M192.736,473.209h2.561c-0.034-0.483-0.165-0.845-0.391-1.084c-0.226-0.24-0.523-0.359-0.892-0.359
					c-0.352,0-0.641,0.121-0.866,0.364C192.922,472.373,192.785,472.733,192.736,473.209z"/>
				<path id="XMLID_523_" style="fill:#231F20;" d="M201.933,474.688c0,0.39-0.094,0.724-0.285,1.001
					c-0.189,0.278-0.47,0.488-0.841,0.631c-0.37,0.143-0.821,0.214-1.353,0.214c-0.507,0-0.941-0.078-1.303-0.233
					c-0.362-0.155-0.63-0.349-0.802-0.581c-0.173-0.233-0.259-0.466-0.259-0.701c0-0.155,0.055-0.288,0.166-0.398
					c0.11-0.11,0.25-0.165,0.419-0.165c0.148,0,0.261,0.036,0.341,0.108c0.079,0.072,0.156,0.174,0.227,0.305
					c0.145,0.253,0.319,0.439,0.521,0.564c0.202,0.124,0.476,0.186,0.825,0.186c0.283,0,0.515-0.063,0.696-0.189
					c0.181-0.127,0.271-0.27,0.271-0.432c0-0.248-0.094-0.429-0.282-0.543c-0.188-0.114-0.498-0.223-0.929-0.327
					c-0.486-0.12-0.882-0.247-1.187-0.38c-0.305-0.132-0.549-0.307-0.732-0.524c-0.183-0.218-0.274-0.485-0.274-0.802
					c0-0.282,0.084-0.55,0.253-0.802c0.169-0.251,0.418-0.452,0.748-0.602c0.329-0.15,0.726-0.225,1.192-0.225
					c0.366,0,0.694,0.038,0.985,0.114c0.292,0.075,0.535,0.178,0.73,0.305c0.195,0.127,0.343,0.268,0.445,0.423
					c0.102,0.155,0.152,0.307,0.152,0.456c0,0.162-0.054,0.295-0.162,0.398c-0.109,0.103-0.263,0.155-0.463,0.155
					c-0.145,0-0.268-0.042-0.37-0.125c-0.102-0.082-0.218-0.206-0.349-0.372c-0.107-0.138-0.232-0.248-0.377-0.331
					c-0.145-0.083-0.341-0.124-0.59-0.124c-0.255,0-0.467,0.054-0.636,0.163c-0.169,0.108-0.253,0.243-0.253,0.405
					c0,0.149,0.062,0.27,0.186,0.365c0.124,0.095,0.292,0.174,0.502,0.236c0.21,0.062,0.499,0.137,0.869,0.227
					c0.438,0.107,0.795,0.235,1.073,0.383c0.277,0.148,0.488,0.323,0.632,0.526C201.862,474.199,201.933,474.429,201.933,474.688z"
					/>
				<path id="XMLID_520_" style="fill:#231F20;" d="M203.376,470.137c-0.197,0-0.365-0.061-0.504-0.181
					c-0.14-0.12-0.21-0.291-0.21-0.512c0-0.2,0.071-0.364,0.214-0.494c0.143-0.13,0.31-0.194,0.499-0.194
					c0.183,0,0.345,0.059,0.486,0.176c0.141,0.118,0.212,0.288,0.212,0.512c0,0.218-0.069,0.387-0.207,0.51
					C203.729,470.075,203.565,470.137,203.376,470.137z M204.074,471.595v4.081c0,0.283-0.067,0.497-0.202,0.642
					c-0.135,0.145-0.305,0.217-0.512,0.217c-0.207,0-0.375-0.074-0.505-0.222c-0.13-0.148-0.194-0.361-0.194-0.637v-4.04
					c0-0.279,0.064-0.489,0.194-0.631c0.129-0.142,0.297-0.212,0.505-0.212c0.207,0,0.377,0.071,0.512,0.212
					C204.007,471.147,204.074,471.343,204.074,471.595z"/>
				<path id="XMLID_517_" style="fill:#231F20;" d="M210.26,471.828v4.102c0,0.469-0.051,0.873-0.151,1.211
					c-0.099,0.337-0.26,0.617-0.481,0.838c-0.221,0.22-0.509,0.385-0.866,0.491c-0.357,0.107-0.801,0.161-1.332,0.161
					c-0.486,0-0.921-0.068-1.304-0.204c-0.382-0.137-0.677-0.312-0.885-0.528c-0.206-0.215-0.311-0.437-0.311-0.665
					c0-0.172,0.059-0.313,0.176-0.421c0.117-0.109,0.259-0.163,0.424-0.163c0.207,0,0.388,0.091,0.543,0.274
					c0.076,0.093,0.154,0.188,0.235,0.282c0.081,0.095,0.171,0.176,0.269,0.244c0.098,0.066,0.217,0.116,0.354,0.15
					c0.138,0.032,0.297,0.049,0.476,0.049c0.366,0,0.649-0.051,0.851-0.153c0.202-0.102,0.343-0.244,0.424-0.427
					c0.081-0.182,0.128-0.378,0.142-0.587c0.014-0.209,0.024-0.544,0.031-1.007c-0.217,0.304-0.468,0.535-0.753,0.694
					c-0.284,0.159-0.623,0.238-1.016,0.238c-0.473,0-0.885-0.121-1.239-0.362c-0.353-0.242-0.625-0.579-0.814-1.014
					c-0.19-0.435-0.284-0.936-0.284-1.505c0-0.424,0.057-0.807,0.173-1.148c0.116-0.342,0.281-0.63,0.494-0.864
					c0.214-0.235,0.46-0.411,0.74-0.53c0.279-0.119,0.586-0.178,0.921-0.178c0.4,0,0.746,0.077,1.04,0.23
					c0.293,0.154,0.566,0.395,0.817,0.722v-0.192c0-0.245,0.06-0.434,0.181-0.569c0.121-0.134,0.276-0.202,0.466-0.202
					c0.272,0,0.453,0.089,0.543,0.267C210.215,471.237,210.26,471.493,210.26,471.828z M206.168,473.617
					c0,0.572,0.125,1.005,0.375,1.298c0.25,0.294,0.574,0.44,0.97,0.44c0.234,0,0.456-0.063,0.664-0.189
					c0.209-0.126,0.379-0.316,0.51-0.569c0.131-0.254,0.197-0.561,0.197-0.923c0-0.576-0.127-1.024-0.38-1.345
					c-0.254-0.321-0.587-0.481-1.001-0.481c-0.404,0-0.727,0.154-0.97,0.46C206.29,472.615,206.168,473.052,206.168,473.617z"/>
				<path id="XMLID_515_" style="fill:#231F20;" d="M212.505,471.574v0.171c0.248-0.328,0.52-0.568,0.814-0.722
					c0.295-0.153,0.633-0.23,1.016-0.23c0.373,0,0.705,0.081,0.999,0.243c0.293,0.162,0.512,0.392,0.657,0.687
					c0.094,0.173,0.154,0.36,0.181,0.559c0.028,0.201,0.042,0.455,0.042,0.766v2.627c0,0.283-0.065,0.497-0.194,0.642
					c-0.129,0.145-0.297,0.217-0.504,0.217c-0.211,0-0.381-0.074-0.512-0.222c-0.131-0.148-0.197-0.361-0.197-0.637v-2.353
					c0-0.465-0.065-0.822-0.194-1.068c-0.13-0.246-0.387-0.37-0.774-0.37c-0.251,0-0.481,0.075-0.688,0.225
					c-0.207,0.151-0.359,0.357-0.455,0.619c-0.069,0.211-0.104,0.603-0.104,1.179v1.769c0,0.286-0.067,0.501-0.199,0.645
					c-0.133,0.143-0.304,0.214-0.514,0.214c-0.204,0-0.371-0.074-0.502-0.222c-0.131-0.148-0.197-0.361-0.197-0.637v-4.081
					c0-0.269,0.059-0.47,0.176-0.603c0.117-0.133,0.278-0.199,0.481-0.199c0.124,0,0.237,0.029,0.337,0.088
					c0.099,0.059,0.18,0.147,0.24,0.263C212.474,471.262,212.505,471.405,212.505,471.574z"/>
				<path id="XMLID_512_" style="fill:#231F20;" d="M221.095,474.011h-2.762c0.004,0.32,0.068,0.603,0.194,0.848
					c0.126,0.245,0.293,0.43,0.502,0.554c0.208,0.124,0.439,0.186,0.69,0.186c0.169,0,0.323-0.019,0.463-0.059
					c0.139-0.041,0.274-0.102,0.406-0.187c0.131-0.084,0.251-0.175,0.362-0.272c0.11-0.097,0.253-0.228,0.429-0.394
					c0.072-0.062,0.176-0.093,0.31-0.093c0.145,0,0.262,0.04,0.352,0.12c0.09,0.08,0.134,0.191,0.134,0.336
					c0,0.128-0.05,0.276-0.15,0.447c-0.1,0.171-0.251,0.335-0.453,0.492c-0.202,0.157-0.455,0.287-0.76,0.39
					s-0.656,0.155-1.053,0.155c-0.907,0-1.612-0.259-2.116-0.776c-0.503-0.517-0.755-1.219-0.755-2.105
					c0-0.417,0.062-0.805,0.186-1.161c0.124-0.357,0.305-0.663,0.544-0.918c0.238-0.255,0.531-0.45,0.879-0.587
					c0.348-0.136,0.735-0.204,1.159-0.204c0.552,0,1.024,0.115,1.419,0.349c0.395,0.232,0.691,0.533,0.888,0.902
					c0.196,0.369,0.295,0.746,0.295,1.128c0,0.356-0.102,0.585-0.305,0.691C221.751,473.958,221.465,474.011,221.095,474.011z
					 M218.333,473.209h2.56c-0.034-0.483-0.165-0.845-0.39-1.084c-0.226-0.24-0.523-0.359-0.892-0.359
					c-0.352,0-0.641,0.121-0.867,0.364C218.518,472.373,218.382,472.733,218.333,473.209z"/>
				<path id="XMLID_509_" style="fill:#231F20;" d="M226.852,475.728v-0.14c-0.19,0.217-0.377,0.394-0.561,0.53
					c-0.185,0.137-0.384,0.24-0.6,0.311c-0.215,0.072-0.451,0.106-0.706,0.106c-0.339,0-0.651-0.071-0.939-0.214
					c-0.288-0.143-0.537-0.348-0.748-0.613c-0.21-0.265-0.37-0.577-0.478-0.936c-0.109-0.359-0.163-0.747-0.163-1.164
					c0-0.883,0.215-1.572,0.646-2.065c0.431-0.492,0.999-0.739,1.702-0.739c0.407,0,0.75,0.07,1.03,0.209
					c0.279,0.14,0.552,0.355,0.817,0.644v-2.084c0-0.29,0.058-0.509,0.174-0.657c0.115-0.148,0.28-0.222,0.494-0.222
					c0.214,0,0.378,0.068,0.494,0.204c0.115,0.137,0.173,0.337,0.173,0.602v6.228c0,0.269-0.062,0.471-0.186,0.605
					c-0.124,0.134-0.284,0.202-0.481,0.202c-0.193,0-0.353-0.07-0.479-0.209C226.915,476.185,226.852,475.986,226.852,475.728z
					 M224.074,473.654c0,0.383,0.059,0.708,0.178,0.978c0.119,0.269,0.282,0.472,0.489,0.607c0.207,0.137,0.432,0.205,0.677,0.205
					c0.249,0,0.475-0.065,0.68-0.195c0.205-0.129,0.369-0.328,0.491-0.594c0.123-0.267,0.184-0.602,0.184-1.001
					c0-0.376-0.061-0.699-0.184-0.971c-0.122-0.27-0.288-0.477-0.496-0.621c-0.209-0.143-0.437-0.214-0.686-0.214
					c-0.258,0-0.49,0.073-0.693,0.22c-0.203,0.146-0.361,0.356-0.473,0.631C224.13,472.973,224.074,473.291,224.074,473.654z"/>
				<path id="XMLID_506_" style="fill:#231F20;" d="M232.624,469.5v2.157c0.265-0.275,0.536-0.487,0.812-0.633
					c0.276-0.146,0.617-0.22,1.024-0.22c0.469,0,0.88,0.111,1.234,0.333c0.353,0.223,0.627,0.546,0.822,0.968
					c0.195,0.422,0.293,0.923,0.293,1.503c0,0.428-0.055,0.819-0.163,1.177c-0.109,0.357-0.267,0.666-0.473,0.928
					c-0.207,0.262-0.458,0.465-0.753,0.608c-0.295,0.143-0.62,0.214-0.975,0.214c-0.217,0-0.422-0.026-0.613-0.078
					c-0.192-0.052-0.355-0.119-0.489-0.204c-0.134-0.084-0.249-0.171-0.344-0.261c-0.095-0.089-0.22-0.225-0.375-0.404v0.14
					c0,0.265-0.064,0.466-0.191,0.603c-0.127,0.136-0.289,0.204-0.486,0.204c-0.2,0-0.36-0.068-0.478-0.204
					c-0.119-0.137-0.178-0.338-0.178-0.603v-6.166c0-0.286,0.058-0.503,0.173-0.649c0.116-0.146,0.277-0.22,0.484-0.22
					c0.217,0,0.384,0.07,0.502,0.209C232.565,469.043,232.624,469.241,232.624,469.5z M232.691,473.695
					c0,0.562,0.128,0.994,0.385,1.295c0.257,0.302,0.594,0.454,1.011,0.454c0.355,0,0.661-0.154,0.918-0.463
					c0.257-0.309,0.385-0.751,0.385-1.327c0-0.372-0.053-0.694-0.16-0.962c-0.107-0.269-0.258-0.477-0.455-0.623
					c-0.197-0.146-0.426-0.22-0.688-0.22c-0.269,0-0.509,0.073-0.719,0.22c-0.21,0.146-0.376,0.358-0.497,0.636
					C232.751,472.981,232.691,473.312,232.691,473.695z"/>
				<path id="XMLID_504_" style="fill:#231F20;" d="M238.639,476.711l0.129-0.316l-1.738-4.376
					c-0.107-0.251-0.161-0.435-0.161-0.548c0-0.121,0.031-0.232,0.093-0.336c0.062-0.104,0.147-0.187,0.256-0.248
					c0.109-0.063,0.222-0.094,0.339-0.094c0.203,0,0.357,0.065,0.461,0.194c0.104,0.129,0.195,0.314,0.274,0.556l1.195,3.476
					l1.133-3.233c0.089-0.261,0.171-0.467,0.243-0.615c0.072-0.148,0.149-0.248,0.23-0.299c0.081-0.052,0.196-0.078,0.344-0.078
					c0.107,0,0.21,0.028,0.308,0.086c0.098,0.057,0.174,0.134,0.227,0.23c0.053,0.096,0.08,0.198,0.08,0.305
					c-0.014,0.065-0.036,0.158-0.067,0.28c-0.031,0.12-0.069,0.244-0.114,0.367l-1.841,4.821c-0.159,0.424-0.314,0.756-0.466,0.998
					c-0.152,0.242-0.352,0.428-0.603,0.556c-0.25,0.13-0.587,0.194-1.011,0.194c-0.413,0-0.724-0.045-0.93-0.134
					c-0.208-0.09-0.311-0.254-0.311-0.492c0-0.162,0.049-0.287,0.148-0.375c0.098-0.088,0.244-0.132,0.436-0.132
					c0.076,0,0.15,0.011,0.223,0.032c0.09,0.02,0.167,0.031,0.232,0.031c0.162,0,0.29-0.024,0.383-0.073
					c0.093-0.048,0.176-0.131,0.251-0.251C238.457,477.117,238.543,476.941,238.639,476.711z"/>
			</g>
			<g id="XMLID_481_">
				<path id="XMLID_502_" style="fill:#231F20;" d="M259.097,470.915h0.337v-0.424c0-0.444,0.054-0.794,0.167-1.055
					c0.111-0.261,0.303-0.45,0.57-0.569c0.267-0.118,0.633-0.178,1.098-0.178c0.827,0,1.238,0.2,1.238,0.607
					c0,0.13-0.043,0.242-0.131,0.335c-0.084,0.092-0.187,0.139-0.304,0.139c-0.054,0-0.152-0.01-0.287-0.033
					c-0.129-0.018-0.246-0.03-0.339-0.03c-0.255,0-0.417,0.077-0.493,0.226c-0.069,0.15-0.106,0.364-0.106,0.645v0.336h0.345
					c0.54,0,0.807,0.162,0.807,0.488c0,0.228-0.069,0.376-0.214,0.438c-0.143,0.062-0.34,0.093-0.593,0.093h-0.345v3.742
					c0,0.278-0.065,0.49-0.201,0.636c-0.131,0.148-0.302,0.221-0.513,0.221c-0.2,0-0.365-0.073-0.5-0.221
					c-0.133-0.146-0.198-0.358-0.198-0.636v-3.742h-0.389c-0.212,0-0.372-0.046-0.487-0.143c-0.114-0.093-0.171-0.218-0.171-0.369
					C258.387,471.083,258.623,470.915,259.097,470.915"/>
				<path id="XMLID_501_" style="fill:#231F20;" d="M263.72,474.496v1.181c0,0.285-0.072,0.5-0.204,0.642
					c-0.135,0.145-0.304,0.215-0.511,0.215c-0.208,0-0.375-0.071-0.505-0.218c-0.129-0.144-0.196-0.357-0.196-0.639v-3.934
					c0-0.635,0.229-0.953,0.687-0.953c0.236,0,0.405,0.073,0.508,0.222c0.103,0.149,0.161,0.367,0.173,0.658
					c0.167-0.291,0.34-0.509,0.516-0.658c0.181-0.149,0.415-0.222,0.713-0.222c0.299,0,0.584,0.073,0.863,0.222
					c0.281,0.149,0.42,0.347,0.42,0.591c0,0.171-0.06,0.316-0.178,0.426c-0.12,0.114-0.247,0.17-0.385,0.17
					c-0.054,0-0.18-0.034-0.377-0.098c-0.199-0.062-0.375-0.094-0.524-0.094c-0.207,0-0.377,0.056-0.507,0.162
					c-0.132,0.112-0.235,0.271-0.307,0.483c-0.07,0.215-0.119,0.471-0.148,0.765C263.732,473.711,263.72,474.072,263.72,474.496"/>
				<path id="XMLID_498_" style="fill:#231F20;" d="M270.212,474.009h-2.763c0.005,0.32,0.068,0.605,0.193,0.849
					c0.128,0.243,0.294,0.428,0.504,0.554c0.21,0.124,0.438,0.185,0.691,0.185c0.169,0,0.323-0.018,0.463-0.061
					c0.138-0.038,0.275-0.101,0.406-0.186c0.132-0.083,0.25-0.173,0.362-0.272c0.11-0.095,0.254-0.227,0.43-0.392
					c0.073-0.062,0.177-0.095,0.31-0.095c0.146,0,0.262,0.04,0.354,0.121c0.09,0.08,0.132,0.191,0.132,0.336
					c0,0.128-0.048,0.277-0.146,0.446c-0.102,0.173-0.252,0.336-0.455,0.494c-0.204,0.155-0.457,0.287-0.761,0.389
					c-0.305,0.104-0.657,0.156-1.052,0.156c-0.91,0-1.614-0.258-2.117-0.774c-0.503-0.519-0.758-1.221-0.758-2.107
					c0-0.418,0.064-0.805,0.189-1.163c0.122-0.359,0.304-0.662,0.544-0.919c0.237-0.256,0.528-0.451,0.878-0.587
					c0.347-0.136,0.733-0.204,1.159-0.204c0.551,0,1.024,0.117,1.419,0.352c0.394,0.23,0.694,0.532,0.887,0.901
					c0.197,0.371,0.295,0.745,0.295,1.13c0,0.353-0.103,0.583-0.306,0.689C270.867,473.957,270.581,474.009,270.212,474.009
					 M267.449,473.206h2.56c-0.034-0.482-0.162-0.844-0.389-1.082c-0.228-0.241-0.522-0.36-0.893-0.36
					c-0.352,0-0.641,0.12-0.867,0.364C267.634,472.372,267.496,472.731,267.449,473.206"/>
				<path id="XMLID_495_" style="fill:#231F20;" d="M276.087,474.009h-2.763c0.003,0.32,0.068,0.605,0.193,0.849
					c0.126,0.243,0.294,0.428,0.502,0.554c0.208,0.124,0.439,0.185,0.692,0.185c0.168,0,0.323-0.018,0.46-0.061
					c0.141-0.038,0.275-0.101,0.409-0.186c0.132-0.083,0.25-0.173,0.361-0.272c0.109-0.095,0.253-0.227,0.429-0.392
					c0.073-0.062,0.178-0.095,0.309-0.095c0.146,0,0.263,0.04,0.354,0.121c0.09,0.08,0.131,0.191,0.131,0.336
					c0,0.128-0.047,0.277-0.149,0.446c-0.096,0.173-0.248,0.336-0.452,0.494c-0.202,0.155-0.457,0.287-0.76,0.389
					c-0.304,0.104-0.658,0.156-1.054,0.156c-0.908,0-1.611-0.258-2.117-0.774c-0.503-0.519-0.756-1.221-0.756-2.107
					c0-0.418,0.063-0.805,0.189-1.163c0.123-0.359,0.304-0.662,0.543-0.919c0.237-0.256,0.53-0.451,0.879-0.587
					c0.347-0.136,0.736-0.204,1.159-0.204c0.549,0,1.023,0.117,1.423,0.352c0.392,0.23,0.689,0.532,0.883,0.901
					c0.196,0.371,0.297,0.745,0.297,1.13c0,0.353-0.104,0.583-0.306,0.689C276.741,473.957,276.455,474.009,276.087,474.009
					 M273.324,473.206h2.56c-0.035-0.482-0.165-0.844-0.389-1.082c-0.229-0.241-0.524-0.36-0.895-0.36
					c-0.352,0-0.64,0.12-0.867,0.364C273.508,472.372,273.37,472.731,273.324,473.206"/>
				<path id="XMLID_492_" style="fill:#231F20;" d="M279.18,471.585v0.169c0.265-0.327,0.541-0.567,0.83-0.721
					c0.282-0.155,0.609-0.233,0.971-0.233c0.433,0,0.836,0.113,1.202,0.336c0.365,0.225,0.653,0.553,0.865,0.984
					c0.212,0.433,0.319,0.942,0.319,1.532c0,0.434-0.061,0.834-0.183,1.199c-0.122,0.364-0.293,0.668-0.506,0.915
					c-0.214,0.245-0.466,0.437-0.757,0.57c-0.295,0.131-0.605,0.198-0.941,0.198c-0.402,0-0.743-0.081-1.016-0.244
					c-0.274-0.159-0.535-0.4-0.785-0.711v2.12c0,0.619-0.227,0.931-0.677,0.931c-0.267,0-0.44-0.08-0.529-0.239
					c-0.083-0.163-0.127-0.394-0.127-0.703v-6.096c0-0.27,0.058-0.468,0.174-0.603c0.117-0.13,0.279-0.198,0.482-0.198
					c0.201,0,0.363,0.068,0.488,0.204C279.119,471.132,279.18,471.326,279.18,471.585 M281.949,473.637
					c0-0.373-0.058-0.694-0.171-0.96c-0.114-0.268-0.272-0.472-0.472-0.614c-0.2-0.143-0.426-0.216-0.671-0.216
					c-0.389,0-0.718,0.155-0.985,0.46c-0.268,0.309-0.403,0.76-0.403,1.358c0,0.559,0.133,0.998,0.401,1.311
					c0.265,0.312,0.591,0.467,0.987,0.467c0.233,0,0.452-0.069,0.652-0.203c0.202-0.138,0.362-0.341,0.481-0.614
					C281.888,474.352,281.949,474.022,281.949,473.637"/>
				<path id="XMLID_489_" style="fill:#231F20;" d="M284.79,470.133c-0.197,0-0.364-0.062-0.503-0.182
					c-0.141-0.121-0.211-0.29-0.211-0.51c0-0.201,0.071-0.365,0.216-0.496c0.143-0.128,0.308-0.194,0.498-0.194
					c0.185,0,0.346,0.058,0.487,0.174c0.141,0.119,0.213,0.291,0.213,0.515c0,0.217-0.069,0.387-0.206,0.509
					C285.145,470.07,284.981,470.133,284.79,470.133 M285.489,471.592v4.086c0,0.281-0.068,0.495-0.202,0.638
					c-0.136,0.147-0.305,0.218-0.513,0.218c-0.207,0-0.373-0.073-0.505-0.221c-0.127-0.15-0.194-0.362-0.194-0.635v-4.045
					c0-0.278,0.066-0.487,0.194-0.629c0.132-0.144,0.298-0.213,0.505-0.213c0.208,0,0.377,0.069,0.513,0.213
					C285.422,471.145,285.489,471.342,285.489,471.592"/>
				<path id="XMLID_488_" style="fill:#231F20;" d="M290.042,475.889l-1.244-2.051l-0.767,0.723v1.125
					c0,0.272-0.072,0.48-0.216,0.626c-0.14,0.148-0.309,0.221-0.494,0.221c-0.217,0-0.389-0.071-0.512-0.218
					c-0.123-0.144-0.187-0.357-0.187-0.639v-6.025c0-0.312,0.062-0.551,0.18-0.715c0.121-0.166,0.297-0.246,0.519-0.246
					c0.218,0,0.388,0.074,0.517,0.224c0.128,0.147,0.193,0.367,0.193,0.655v3.427l1.588-1.668c0.197-0.205,0.345-0.349,0.451-0.424
					c0.103-0.076,0.228-0.113,0.375-0.113c0.178,0,0.323,0.056,0.444,0.168c0.115,0.112,0.174,0.254,0.174,0.421
					c0,0.206-0.193,0.484-0.574,0.829l-0.75,0.688l1.448,2.278c0.105,0.171,0.184,0.296,0.231,0.384
					c0.046,0.087,0.071,0.174,0.071,0.252c0,0.225-0.062,0.4-0.186,0.531c-0.122,0.129-0.285,0.193-0.482,0.193
					c-0.172,0-0.307-0.044-0.4-0.139C290.329,476.3,290.2,476.131,290.042,475.889"/>
				<path id="XMLID_487_" style="fill:#231F20;" d="M293.111,476.534c-0.213,0-0.396-0.069-0.552-0.207
					c-0.155-0.136-0.233-0.33-0.233-0.58c0-0.21,0.075-0.391,0.223-0.542c0.149-0.152,0.331-0.228,0.549-0.228
					c0.216,0,0.401,0.076,0.557,0.224c0.152,0.15,0.23,0.333,0.23,0.546c0,0.246-0.078,0.44-0.23,0.577
					C293.498,476.465,293.317,476.534,293.111,476.534"/>
				<path id="XMLID_486_" style="fill:#231F20;" d="M300.136,474.785c0,0.174-0.053,0.364-0.158,0.563
					c-0.104,0.202-0.266,0.391-0.482,0.572c-0.215,0.181-0.486,0.328-0.814,0.438c-0.327,0.11-0.697,0.167-1.106,0.167
					c-0.875,0-1.557-0.256-2.047-0.763c-0.488-0.51-0.733-1.193-0.733-2.048c0-0.581,0.111-1.092,0.337-1.538
					c0.222-0.444,0.547-0.788,0.97-1.031c0.424-0.244,0.934-0.365,1.522-0.365c0.367,0,0.702,0.053,1.009,0.161
					c0.305,0.106,0.562,0.246,0.776,0.413c0.211,0.171,0.373,0.351,0.485,0.54c0.113,0.191,0.167,0.371,0.167,0.538
					c0,0.168-0.062,0.311-0.187,0.429c-0.128,0.117-0.281,0.177-0.457,0.177c-0.119,0-0.216-0.031-0.295-0.09
					c-0.078-0.061-0.166-0.158-0.261-0.295c-0.173-0.261-0.352-0.458-0.542-0.588c-0.187-0.132-0.425-0.197-0.715-0.197
					c-0.415,0-0.754,0.162-1.009,0.489c-0.255,0.324-0.383,0.773-0.383,1.336c0,0.266,0.034,0.512,0.1,0.734
					c0.064,0.222,0.158,0.412,0.283,0.569c0.126,0.156,0.274,0.275,0.45,0.356c0.176,0.083,0.371,0.123,0.579,0.123
					c0.284,0,0.526-0.065,0.728-0.196c0.205-0.131,0.382-0.331,0.537-0.6c0.086-0.159,0.178-0.282,0.277-0.372
					c0.099-0.089,0.223-0.136,0.368-0.136c0.172,0,0.316,0.067,0.428,0.197C300.078,474.497,300.136,474.638,300.136,474.785"/>
				<path id="XMLID_483_" style="fill:#231F20;" d="M306.23,473.663c0,0.419-0.066,0.808-0.194,1.165
					c-0.134,0.355-0.322,0.66-0.572,0.914c-0.248,0.255-0.546,0.451-0.889,0.588c-0.348,0.135-0.735,0.204-1.165,0.204
					c-0.428,0-0.813-0.07-1.155-0.208c-0.339-0.136-0.638-0.335-0.886-0.589c-0.251-0.259-0.44-0.563-0.573-0.913
					c-0.125-0.35-0.191-0.738-0.191-1.16c0-0.428,0.068-0.82,0.195-1.175c0.132-0.356,0.321-0.66,0.566-0.911
					c0.246-0.252,0.541-0.445,0.888-0.583c0.35-0.136,0.735-0.204,1.155-0.204c0.427,0,0.816,0.068,1.165,0.208
					c0.347,0.137,0.644,0.335,0.895,0.588c0.249,0.258,0.437,0.561,0.566,0.911C306.165,472.851,306.23,473.237,306.23,473.663
					 M304.812,473.663c0-0.577-0.128-1.024-0.38-1.345c-0.252-0.324-0.594-0.483-1.021-0.483c-0.276,0-0.52,0.072-0.731,0.214
					c-0.211,0.143-0.371,0.354-0.484,0.634c-0.114,0.28-0.172,0.606-0.172,0.98c0,0.37,0.056,0.69,0.169,0.966
					c0.113,0.278,0.273,0.489,0.482,0.635c0.21,0.145,0.455,0.22,0.737,0.22c0.427,0,0.768-0.161,1.021-0.486
					C304.685,474.677,304.812,474.23,304.812,473.663"/>
				<path id="XMLID_482_" style="fill:#231F20;" d="M311.617,473.767v1.877c0,0.298-0.065,0.518-0.201,0.669
					c-0.136,0.148-0.311,0.222-0.532,0.222c-0.214,0-0.389-0.074-0.518-0.222c-0.135-0.15-0.203-0.371-0.203-0.669v-2.25
					c0-0.356-0.011-0.633-0.035-0.83c-0.025-0.193-0.091-0.357-0.197-0.481c-0.107-0.128-0.277-0.192-0.507-0.192
					c-0.463,0-0.766,0.158-0.913,0.48c-0.146,0.314-0.221,0.77-0.221,1.365v1.907c0,0.293-0.067,0.515-0.197,0.667
					c-0.136,0.149-0.309,0.224-0.526,0.224c-0.215,0-0.39-0.076-0.526-0.224c-0.137-0.151-0.205-0.373-0.205-0.667v-4.04
					c0-0.266,0.061-0.469,0.182-0.605c0.125-0.14,0.287-0.208,0.485-0.208c0.194,0,0.355,0.067,0.486,0.194
					c0.129,0.13,0.193,0.309,0.193,0.536v0.133c0.247-0.292,0.509-0.507,0.787-0.643c0.281-0.141,0.589-0.21,0.933-0.21
					c0.355,0,0.659,0.071,0.914,0.212c0.256,0.142,0.465,0.357,0.632,0.641c0.239-0.288,0.495-0.503,0.768-0.643
					c0.272-0.14,0.573-0.21,0.905-0.21c0.385,0,0.72,0.078,0.999,0.228c0.278,0.152,0.486,0.37,0.625,0.651
					c0.12,0.257,0.18,0.659,0.18,1.207v2.757c0,0.298-0.067,0.518-0.2,0.669c-0.134,0.148-0.313,0.222-0.534,0.222
					c-0.215,0-0.389-0.076-0.525-0.224c-0.136-0.151-0.205-0.373-0.205-0.667v-2.375c0-0.304-0.013-0.546-0.038-0.729
					c-0.026-0.183-0.096-0.338-0.208-0.461c-0.115-0.124-0.289-0.187-0.519-0.187c-0.186,0-0.363,0.058-0.53,0.168
					c-0.167,0.108-0.298,0.26-0.393,0.442C311.671,472.74,311.617,473.162,311.617,473.767"/>
			</g>
			<g id="XMLID_467_">
				<path id="XMLID_480_" style="fill:#231F20;" d="M245.88,473.321c-0.001-0.003-0.001-0.005-0.001-0.01
					C245.879,473.316,245.879,473.319,245.88,473.321z"/>
				<path id="XMLID_479_" style="fill:#231F20;" d="M245.951,473.773c0.001,0,0.001,0,0.002,0c-0.027-0.129-0.048-0.256-0.065-0.382
					C245.905,473.517,245.926,473.646,245.951,473.773z"/>
				<path id="XMLID_478_" style="fill:#231F20;" d="M246.419,475.083c-0.003-0.005-0.006-0.012-0.009-0.018
					C246.413,475.072,246.416,475.078,246.419,475.083z"/>
				<path id="XMLID_477_" style="fill:#231F20;" d="M246.374,474.996c-0.012-0.024-0.024-0.049-0.036-0.073
					C246.35,474.949,246.362,474.972,246.374,474.996z"/>
				<path id="XMLID_476_" style="fill:#231F20;" d="M246.083,474.277c0.069,0.218,0.152,0.429,0.249,0.631
					c-0.098-0.206-0.18-0.418-0.247-0.631H246.083z"/>
				<path id="XMLID_475_" style="fill:#231F20;" d="M251.347,467.91c0.273,0,0.474,0.022,0.705,0.061l0.066-0.415
					c0,0-0.638-0.196-1.476-0.128l-0.066-0.226c0.261-0.055,0.456-0.287,0.456-0.563c0-0.317-0.258-0.574-0.576-0.574
					c-0.317,0-0.575,0.257-0.575,0.574c0,0.276,0.195,0.508,0.455,0.563l0.073,0.252c-0.89,0.122-1.598,0.47-1.598,0.47l0.126,0.384
					c0.538-0.179,1.005-0.288,1.429-0.334C250.78,467.929,251.092,467.91,251.347,467.91z"/>
				<path id="XMLID_474_" style="fill:#231F20;" d="M246.408,470.011l0.003-0.004c0.021-0.027,0.041-0.053,0.062-0.078l-0.17-0.123
					l-0.266-0.194c-0.015,0.021-0.433,0.405-0.763,1.115c-0.014-0.022-0.03-0.044-0.049-0.065c-0.099-0.108-0.237-0.163-0.413-0.16
					c-0.002,0-0.005,0-0.008,0c-0.109,0-0.183-0.036-0.232-0.08c0.049-0.062,0.078-0.139,0.078-0.225
					c0-0.201-0.163-0.364-0.365-0.364c-0.201,0-0.364,0.164-0.364,0.364c0,0.202,0.163,0.364,0.364,0.364
					c0.032,0,0.062-0.005,0.091-0.011c0.09,0.099,0.232,0.186,0.44,0.182c0.107-0.001,0.186,0.027,0.238,0.085
					c0.06,0.066,0.081,0.161,0.087,0.233c-0.001,0.001-0.001,0.003-0.002,0.003c-0.237,0.648-0.169,1.454-0.169,1.454l0.576,0.023
					c0.012-0.294,0.054-0.807,0.202-1.215C246.035,470.525,246.393,470.032,246.408,470.011z"/>
				<path id="XMLID_473_" style="fill:#231F20;" d="M256.357,468.391c-0.201,0-0.364,0.163-0.364,0.364
					c0,0.031,0.005,0.061,0.013,0.09c-0.1,0.09-0.187,0.233-0.184,0.441c0.002,0.107-0.026,0.185-0.084,0.238
					c-0.046,0.041-0.104,0.063-0.161,0.077c-0.429-0.6-0.956-0.967-0.956-0.967l-0.413,0.443c0.312,0.284,0.631,0.64,0.941,1.084
					c0.214,0.307,0.435,0.703,0.619,1.097l0.558-0.265c0,0-0.255-0.629-0.613-1.193c0.062-0.022,0.125-0.056,0.18-0.105
					c0.109-0.098,0.163-0.238,0.16-0.413c-0.001-0.113,0.036-0.19,0.081-0.24c0.062,0.047,0.14,0.078,0.224,0.078
					c0.202,0,0.365-0.163,0.365-0.364C256.721,468.554,256.559,468.391,256.357,468.391z"/>
				<path id="XMLID_472_" style="fill:#231F20;" d="M254.91,473.402c-0.768,0.374-2.031,0.868-3.693,1.1
					c-0.653,0.09-1.285,0.124-1.867,0.124c-0.757,0-1.427-0.056-1.94-0.121c-0.586-0.074-1.044-0.164-1.325-0.228
					c0.067,0.213,0.149,0.425,0.247,0.631c0.002,0.005,0.004,0.011,0.007,0.015c0.012,0.024,0.023,0.049,0.036,0.073
					c0.012,0.024,0.023,0.047,0.035,0.069c0.003,0.006,0.006,0.013,0.009,0.018c0.165,0.311,0.363,0.596,0.589,0.844
					c0.784,0.858,1.583,0.993,1.591,0.995l0.012,0.002l0.012,0.004c0.007,0.003,0.716,0.231,1.793,0.231
					c1.059,0,2.099-0.214,3.09-0.636c0.734-0.375,1.428-0.946,1.772-1.454c0.266-0.393,0.458-0.813,0.572-1.249
					c0.061-0.232,0.109-0.603,0.08-0.994C255.713,472.971,255.372,473.178,254.91,473.402z"/>
				<path id="XMLID_468_" style="fill:#231F20;" d="M246.655,470.193c-0.022,0.033-0.355,0.504-0.618,1.227
					c-0.197,0.542-0.188,1.331-0.188,1.34v0.001c0,0.185,0.01,0.369,0.031,0.551c0,0.004,0,0.007,0.001,0.01
					c0.002,0.023,0.006,0.046,0.008,0.069c0.016,0.126,0.037,0.254,0.065,0.382c0.381,0.097,2.657,0.628,5.2,0.273
					c1.594-0.222,2.804-0.693,3.539-1.049c0.611-0.296,1.003-0.564,1.155-0.674c-0.151-0.56-0.568-1.438-0.949-1.986
					c-1.092-1.56-2.269-1.961-2.874-2.06c-0.231-0.038-0.415-0.06-0.677-0.06c-0.244,0-0.546,0.02-0.949,0.062
					c-0.405,0.042-0.856,0.148-1.379,0.324c-0.734,0.246-1.398,0.631-1.921,1.115l-0.018,0.016
					C247.002,469.806,246.84,469.956,246.655,470.193z M253.337,469.83c0.523,0,0.949,0.426,0.949,0.949
					c0,0.524-0.426,0.95-0.949,0.95c-0.524,0-0.949-0.426-0.949-0.95C252.388,470.255,252.813,469.83,253.337,469.83z
					 M248.848,469.792c0.848,0,1.534,0.687,1.534,1.534s-0.686,1.533-1.534,1.533c-0.847,0-1.534-0.686-1.534-1.533
					S248.001,469.792,248.848,469.792z"/>
			</g>
		</g>
	</g>
</g>
</svg>
