<?xml version="1.0" encoding="UTF-8"?>
<svg id="Calque_1" data-name="Calque 1" xmlns="http://www.w3.org/2000/svg" version="1.1" xmlns:xlink="http://www.w3.org/1999/xlink" viewBox="0 0 500 500">
  <defs>
    <style>
      .cls-1 {
        fill: #ba6a65;
      }

      .cls-1, .cls-2, .cls-3, .cls-4, .cls-5, .cls-6, .cls-7, .cls-8, .cls-9, .cls-10, .cls-11, .cls-12, .cls-13, .cls-14, .cls-15, .cls-16, .cls-17, .cls-18, .cls-19, .cls-20, .cls-21, .cls-22, .cls-23, .cls-24, .cls-25, .cls-26, .cls-27, .cls-28, .cls-29, .cls-30, .cls-31, .cls-32, .cls-33, .cls-34, .cls-35, .cls-36, .cls-37 {
        stroke-width: 0px;
      }

      .cls-2 {
        fill: #7c5233;
      }

      .cls-3 {
        fill: #966335;
      }

      .cls-4 {
        fill: #da9a8e;
      }

      .cls-38 {
        clip-path: url(#clippath-11);
      }

      .cls-5 {
        fill: #cc8279;
      }

      .cls-6 {
        fill: #845215;
      }

      .cls-7 {
        fill: #51331d;
      }

      .cls-8 {
        fill: #f9f2f4;
      }

      .cls-39 {
        clip-path: url(#clippath-2);
      }

      .cls-40 {
        clip-path: url(#clippath-13);
      }

      .cls-9, .cls-15, .cls-31 {
        fill: #231f20;
      }

      .cls-9, .cls-41 {
        display: none;
      }

      .cls-42 {
        clip-path: url(#clippath-6);
      }

      .cls-10 {
        fill: #a06e33;
      }

      .cls-11 {
        fill: none;
      }

      .cls-43 {
        clip-path: url(#clippath-7);
      }

      .cls-12 {
        fill: #e5b991;
      }

      .cls-13 {
        fill: #e5e5e5;
      }

      .cls-14 {
        fill: #e2c6a3;
      }

      .cls-44 {
        clip-path: url(#clippath-1);
      }

      .cls-45 {
        clip-path: url(#clippath-4);
      }

      .cls-15 {
        isolation: isolate;
        opacity: .3;
      }

      .cls-16 {
        fill: #d1ac84;
      }

      .cls-46 {
        clip-path: url(#clippath-12);
      }

      .cls-17 {
        fill: #6b6b6b;
      }

      .cls-18 {
        fill: #c39347;
      }

      .cls-19 {
        fill: #bcbcbc;
      }

      .cls-20 {
        fill: #c69752;
      }

      .cls-21 {
        fill: #605f60;
      }

      .cls-22 {
        fill: #af7c33;
      }

      .cls-23 {
        fill: #ba855d;
      }

      .cls-47 {
        clip-path: url(#clippath-9);
      }

      .cls-24 {
        fill: #8c623f;
      }

      .cls-48 {
        clip-path: url(#clippath);
      }

      .cls-25 {
        fill: #c08b57;
      }

      .cls-26 {
        fill: #c98279;
      }

      .cls-49 {
        clip-path: url(#clippath-3);
      }

      .cls-27 {
        fill: #3a3a3a;
      }

      .cls-28 {
        fill: #ce8278;
      }

      .cls-29 {
        fill: #c1c1c1;
      }

      .cls-50 {
        clip-path: url(#clippath-8);
      }

      .cls-30 {
        fill: #b27844;
      }

      .cls-51 {
        clip-path: url(#clippath-14);
      }

      .cls-52 {
        clip-path: url(#clippath-5);
      }

      .cls-32 {
        fill: #d38e89;
      }

      .cls-33 {
        fill: #b28346;
      }

      .cls-34 {
        fill: #848484;
      }

      .cls-35 {
        fill: #6d6d6d;
      }

      .cls-36 {
        fill: #a0a0a0;
      }

      .cls-53 {
        clip-path: url(#clippath-10);
      }

      .cls-37 {
        fill: #ce9e57;
      }
    </style>
    <clipPath id="clippath">
      <path class="cls-11" d="M84.5,377.9s-4-19.8,6.2-24.5c10.3-4.7,15.4,5.9,12.1,12.7-3.3,6.9-6.8,14.7-9.1,13.1s-2.1-6.2-3.9-4.5c-1.8,1.7-2.4,5.5-5.4,3.2Z"/>
    </clipPath>
    <clipPath id="clippath-1">
      <path class="cls-11" d="M306.6,391.5s-4-19.6,6.2-24.2c10.2-4.6,15.2,5.8,12,12.6-3.2,6.8-6.7,14.5-9,13-2.3-1.6-2-6.2-3.9-4.5s-2.4,5.5-5.3,3.2Z"/>
    </clipPath>
    <clipPath id="clippath-2">
      <path class="cls-11" d="M58,315.6s-8.6,1.7-12.8-4.3.6-22,6.4-29.1,33.8-33.2,58.6-34.4c24.8-1.1,47.5,3,61.2,26.7s3.4,42.1-3.8,44.3-27.6-1.3-27.6-1.3c0,0-20.1,3.9-36.8.6-16.7-3.4-17.1-3.2-45.3-2.4Z"/>
    </clipPath>
    <clipPath id="clippath-3">
      <path class="cls-11" d="M58,315.6s-8.6,1.7-12.8-4.3.6-22,6.4-29.1,33.8-33.2,58.6-34.4c24.8-1.1,47.5,3,61.2,26.7s3.4,42.1-3.8,44.3-27.6-1.3-27.6-1.3c0,0-20.1,3.9-36.8.6-16.7-3.4-17.1-3.2-45.3-2.4Z"/>
    </clipPath>
    <clipPath id="clippath-4">
      <path class="cls-11" d="M82.5,276.7s-10.2-18.8,7.2-29c17.3-10.3,22.4,15.5,15.4,22.3s-11.1,9.9-13,6.7c-1.9-3.2-1.7-4.6-4.5-3-2.7,1.6-2.5,6.5-5.1,3Z"/>
    </clipPath>
    <clipPath id="clippath-5">
      <path class="cls-11" d="M86.4,167.6s3.9-20,13.6-22.9c9.7-2.9,10.4,12.9,4.4,19.3s-10.2,8.2-10.3,4.7-.8-.1-2.3-1.1-1.5-3.6-2.4-1.5c-1,2.2-2.5,4.7-2.9,1.5Z"/>
    </clipPath>
    <clipPath id="clippath-6">
      <path class="cls-11" d="M92.1,155.5c-1.3.2-13.4-.8-29.6,13.4-16.1,14.3-22.2,24.1-20.1,30s10.7,7.5,20.8,5.3c10.1-2.2,22.6.8,32.3,3.5s22,4.4,33.3,2.1,31.2.6,43.6-4.2c12.4-4.8,27.5-3.8,26.4-4.8s-4.8-3.8-2.3-4.4c2.5-.6,3-.4,2.4-2.5s-.5-2.1,1.4-1.9,3.6,2.6,1.7-1.6-11.7-31.1-30.8-38.8-45.1-2.1-47.6-3.4-1.9-5-4.6-2.7-4.8,4.4-4.8,1.5-1.3-2.7-3.4-.4c-2.1,2.3-8.6,5.7-11.7,6.5-3.1.8-6.9,2.5-6.9,2.5Z"/>
    </clipPath>
    <clipPath id="clippath-7">
      <path class="cls-11" d="M92.1,155.5c-1.3.2-13.4-.8-29.6,13.4-16.1,14.3-22.2,24.1-20.1,30s10.7,7.5,20.8,5.3c10.1-2.2,22.6.8,32.3,3.5s22,4.4,33.3,2.1,31.2.6,43.6-4.2c12.4-4.8,27.5-3.8,26.4-4.8s-4.8-3.8-2.3-4.4c2.5-.6,3-.4,2.4-2.5s-.5-2.1,1.4-1.9,3.6,2.6,1.7-1.6-11.7-31.1-30.8-38.8-45.1-2.1-47.6-3.4-1.9-5-4.6-2.7-4.8,4.4-4.8,1.5-1.3-2.7-3.4-.4c-2.1,2.3-8.6,5.7-11.7,6.5-3.1.8-6.9,2.5-6.9,2.5Z"/>
    </clipPath>
    <clipPath id="clippath-8">
      <path class="cls-11" d="M92.1,155.5c-1.3.2-13.4-.8-29.6,13.4-16.1,14.3-22.2,24.1-20.1,30s10.7,7.5,20.8,5.3c10.1-2.2,22.6.8,32.3,3.5s22,4.4,33.3,2.1,31.2.6,43.6-4.2c12.4-4.8,27.5-3.8,26.4-4.8s-4.8-3.8-2.3-4.4c2.5-.6,3-.4,2.4-2.5s-.5-2.1,1.4-1.9,3.6,2.6,1.7-1.6-11.7-31.1-30.8-38.8-45.1-2.1-47.6-3.4-1.9-5-4.6-2.7-4.8,4.4-4.8,1.5-1.3-2.7-3.4-.4c-2.1,2.3-8.6,5.7-11.7,6.5-3.1.8-6.9,2.5-6.9,2.5Z"/>
    </clipPath>
    <clipPath id="clippath-9">
      <path class="cls-11" d="M92.1,155.5c-1.3.2-13.4-.8-29.6,13.4-16.1,14.3-22.2,24.1-20.1,30s10.7,7.5,20.8,5.3c10.1-2.2,22.6.8,32.3,3.5s22,4.4,33.3,2.1,31.2.6,43.6-4.2c12.4-4.8,27.5-3.8,26.4-4.8s-4.8-3.8-2.3-4.4c2.5-.6,3-.4,2.4-2.5s-.5-2.1,1.4-1.9,3.6,2.6,1.7-1.6-11.7-31.1-30.8-38.8-45.1-2.1-47.6-3.4-1.9-5-4.6-2.7-4.8,4.4-4.8,1.5-1.3-2.7-3.4-.4c-2.1,2.3-8.6,5.7-11.7,6.5-3.1.8-6.9,2.5-6.9,2.5Z"/>
    </clipPath>
    <clipPath id="clippath-10">
      <path class="cls-11" d="M85,43s-16.4-1.9-27.4,7.9-16.7,33.4-12.9,39.2,7.7,6,14,5.5c6.3-.5,11.5-3.4,14,.2,2.5,3.6,12,5.8,16.3,8,4.4,2.2,1.9,5.2,3,5.8s3-2.2,5.7-1.1c2.7,1.1,12.1-2.5,13.7-3.8,1.6-1.4,6.1,3.3,10.2,3.6,4.1.3,10.1.8,14,2.7s3.8,5.2,13.4,7.1,23.8-5.5,29.6-11.5c5.8-6,7.9-4.9,6-8.2-1.9-3.3,3.8.8,1.9-3.3-1.9-4.1-4.9-7.8-7.4-14.4s-11.8-25.8-35.6-30.5-15.9-8.5-22.7-7.3-3.6-2.3-7.4-1.5-2.5-5.2-6.6-1.6c-4.1,3.6-7.4-.5-13.4,2.2-6,2.7-8.5,1.1-8.5,1.1Z"/>
    </clipPath>
    <clipPath id="clippath-11">
      <path class="cls-11" d="M85,43s-16.4-1.9-27.4,7.9-16.7,33.4-12.9,39.2,7.7,6,14,5.5c6.3-.5,11.5-3.4,14,.2,2.5,3.6,12,5.8,16.3,8,4.4,2.2,1.9,5.2,3,5.8s3-2.2,5.7-1.1c2.7,1.1,12.1-2.5,13.7-3.8,1.6-1.4,6.1,3.3,10.2,3.6,4.1.3,10.1.8,14,2.7s3.8,5.2,13.4,7.1,23.8-5.5,29.6-11.5c5.8-6,7.9-4.9,6-8.2-1.9-3.3,3.8.8,1.9-3.3-1.9-4.1-4.9-7.8-7.4-14.4s-11.8-25.8-35.6-30.5-15.9-8.5-22.7-7.3-3.6-2.3-7.4-1.5-2.5-5.2-6.6-1.6c-4.1,3.6-7.4-.5-13.4,2.2-6,2.7-8.5,1.1-8.5,1.1Z"/>
    </clipPath>
    <clipPath id="clippath-12">
      <path class="cls-11" d="M92,55.8c-.4.2-2.2.3-2.5-2.1s-4.3,2.5-5.3,0-1.6-7.9,1.6-15.1c3.2-7.2,11.1-13.6,11.1-13.6,0,0,3.5,0,2.8,11.1s-5.6,18.8-7.7,19.6Z"/>
    </clipPath>
    <clipPath id="clippath-13">
      <path class="cls-11" d="M278,314.9s-16.9-5.7-14.9-12.2c2.1-6.5,11.7-9.9,20.1-16.4s24.2-11.7,35.2-9.1,28.7,6.3,39.9,4.2c11.2-2.1,19.3-2.9,27.4-2.3,8.1.5,23.7,3.4,36,19.8s21.9,21.4,18.2,22.9-8.3.5-6.8,2.9c1.6,2.3-.3,2.6-2.9,3.1s1,.8-1.3,2.1-16.2,4.7-21.9,4.4c-5.7-.3-27.1,1.3-28.7,0-1.6-1.3-20.8-1.8-26.5-.5s-15.4,6.8-20.4,2.6c-5-4.2-8.9-6-19-13.3-10.2-7.3-23.7-2.9-34.4-8.1Z"/>
    </clipPath>
    <clipPath id="clippath-14">
      <path class="cls-11" d="M278,314.9s-16.9-5.7-14.9-12.2c2.1-6.5,11.7-9.9,20.1-16.4s24.2-11.7,35.2-9.1,28.7,6.3,39.9,4.2c11.2-2.1,19.3-2.9,27.4-2.3,8.1.5,23.7,3.4,36,19.8s21.9,21.4,18.2,22.9-8.3.5-6.8,2.9c1.6,2.3-.3,2.6-2.9,3.1s1,.8-1.3,2.1-16.2,4.7-21.9,4.4c-5.7-.3-27.1,1.3-28.7,0-1.6-1.3-20.8-1.8-26.5-.5s-15.4,6.8-20.4,2.6c-5-4.2-8.9-6-19-13.3-10.2-7.3-23.7-2.9-34.4-8.1Z"/>
    </clipPath>
  </defs>
  <g id="Objects">
    <path class="cls-9" d="M276.7,476.1c-.5.3-1,.6-1.5.9-.4-.3-.9-.8-1.4-1.1.2-.5.5-1,.7-1.6.5,0,1.1.1,1.7.2.1.4.2,1,.4,1.6Z"/>
    <path class="cls-9" d="M248.8,478.2c.3.2.7.4,1,.6,0,.3-.1.7-.2,1.1-.4,0-.8,0-1.1.1-.2-.3-.3-.7-.5-1,.3-.3.6-.6.8-.8Z"/>
    <g class="cls-41">
      <path class="cls-4" d="M413.9,133s7.6.8,18.1,0,22.2,2.4,16.7,6.2c-5.4,3.8-19,2.7-29.2,1.7s-27.4,2.4-32.3,5.6,7.9-4.2,26.6-2.8,34.1,5.6,41.1-1,1.6-14.3-12.7-15.1c-14.3-.8-27-1.6-27-1.6h-6.7l5.3,7.1Z"/>
      <path class="cls-13" d="M304.9,96.2s6.7-10.3,2.1-17.4-24.9-3.6-33.7-6.3-8.6-10.5-.6-17.6,23.7-13.8,31-16.8c7.3-2.9,26.2-2.1,35.6,4.2s27.4,25.8,39,30.6c11.5,4.8,29.5,27.4,32.9,41.7s9.4,11.3,9.4,11.3c0,0-6.9,2.3-6.1,2.9.8.6,3.6,2.5,1,2.5s-.2,3.1-4.2,2.5-11.9-.8-23.3,1.9c-11.3,2.7-24.9,2.3-27.9.6s-6.9,3.8-6.9,3.8c0,0-9.2-3.1-6.5-7.1,2.7-4-.8-6.3-2.3-11.7,0,0-10.9-8.3-17.5-17.1-2.5-3.4-6.7-5.1-10.8-4.6-2.1.2-4.5.7-7.3,1.4l-4-4.8Z"/>
      <path class="cls-13" d="M304.9,96.2s6.7-10.3,2.1-17.4-24.9-3.6-33.7-6.3-8.6-10.5-.6-17.6,23.7-13.8,31-16.8c7.3-2.9,26.2-2.1,35.6,4.2s27.4,25.8,39,30.6c11.5,4.8,29.5,27.4,32.9,41.7s9.4,11.3,9.4,11.3c0,0-6.9,2.3-6.1,2.9.8.6,3.6,2.5,1,2.5s-.2,3.1-4.2,2.5-11.9-.8-23.3,1.9c-11.3,2.7-24.9,2.3-27.9.6s-6.9,3.8-6.9,3.8c0,0-9.2-3.1-6.5-7.1,2.7-4-.8-6.3-2.3-11.7,0,0-10.9-8.3-17.5-17.1-2.5-3.4-6.7-5.1-10.8-4.6-2.1.2-4.5.7-7.3,1.4l-4-4.8Z"/>
      <path class="cls-21" d="M345.8,47.4c-2.4-2.1-4.6-3.8-6.5-5.1-9.4-6.3-28.3-7.1-35.6-4.2-5,2-14,5.8-21.7,10.3-2.6,4.8-4.2,10.7,1.4,13.4,10.1,4.9,18.6-1.2,29.6,1.8,10.2,2.8,24.3-2,32.8-16.2Z"/>
      <path class="cls-21" d="M303.8,42.7s8.2-20,17.7-19.1c9.5.9,3.3,9,3.3,9l-10.4,11.9-8.2,1.4-2.4-3.2Z"/>
      <path class="cls-4" d="M319.7,49.1s1-5.5-1.6-4c-2.6,1.6-6,2.3-7-.9-1-3.1,3.6-21.9,13.9-21.2,10.4.7,12.2,11.8,8.1,20.2-4.1,8.4-11.5,11.8-13.5,5.8Z"/>
      <path class="cls-4" d="M304.9,96.2s-3.3,4.1-5.3,4.4-4.9.4-6.2-.4-2.2-1.4-4-2.6-3.3-.6-1.6,1.9c1.7,2.4,4.1,2.3,3,3s-7-2.3-5.7-.2c1.3,2.2,3.8,2.4,6.4,2.2s1.3,1.3-1.6,1.3-4.3,1.9,0,2.1,6.5-2,8.5-2.9c2.1-.9,10.5-4,10.5-4l-4-4.8Z"/>
      <path class="cls-4" d="M346.4,133.8s-4.1,5-7,5.1-10.5.5-14.2,0c-3.7-.5-5.1,1.1-6.5,2-1.3.9.3,1.1,3.2.6s3.7.4,1.4.9-4.5,0-7.2,1.6-1.7,2.9.3,2.2,5.5-1.7,7.7-1.8c2.2,0-1.6-.3-3.5,1.1-1.8,1.4-2.9,2.9-.6,2.4s3.8-1.3,11.6-1.6c7.8-.3,15.3-.3,18.3-2.4s3.3-3.7,3.3-3.7l-2.4-5.1-4.4-1.4Z"/>
      <path class="cls-31" d="M291.7,56.5c-.2-.2,2.2-3.4,5.6-4.3,3.4-1,7.3,2.7,7.3,2.7,0,0-4.6,7.9-12.9,1.7Z"/>
      <circle class="cls-8" cx="296.7" cy="55.6" r="1.4"/>
      <path class="cls-4" d="M266.7,65.8s5.6-2.3,6.8-2.2-3.1,1.9-3.9,3.2c-.8,1.4-.7,3.3-.7,3.3,0,0-2.1-1.2-2.2-4.4Z"/>
      <path class="cls-21" d="M377.7,105.2c-9.4-3.2-5.7-11.8-19.8-13s-12.6,17.9-12.6,17.9l-9.7,3.6c4.7,4.5,8.9,7.7,8.9,7.7,1.5,5.4,5,7.8,2.3,11.7-2.7,4,6.5,7.1,6.5,7.1,0,0,4-5.4,6.9-3.8,2.9,1.7,16.6,2.1,27.9-.6,1.6-.4,3-.7,4.5-1,9.6-13.4-5.8-26.6-14.8-29.7Z"/>
      <path class="cls-15" d="M355.1,103.8s-14.4-1.4-16.9,12.2c3.6,3.2,6.3,5.3,6.3,5.3,0-.6-4.8-14,10.6-17.5Z"/>
      <path class="cls-5" d="M319.5,38.9c-3.6,3.7-6.5,5.3-8.1,5.9,1.2,2.5,4.3,1.8,6.7.4,2.6-1.6,1.6,4,1.6,4,.2.5.4.9.6,1.3.9-1.7,1.9-4.1,2.8-7.5,1.8-7.1,1.8-9.6-3.6-4.1Z"/>
    </g>
    <g class="cls-41">
      <path class="cls-34" d="M268.6,219.3s0,0-.2-.2c-1.1-.8-5.4-4.6-3.9-9.5,1.7-5.7,2.2-8.8,1.9-10.7-.3-1.9,1.3.8,1.2,2s1.2-5.9,1.7-5.7.8,2,1.8,1.3,1.8-7.8,2.3-6.9c.6.8.7,3,1.4,2.3s3.7-8.8,7.1-10,.5,1,0,2.2,4.1-1.7,4.7-3.1c.5-1.4,2.4-3.3,2-1.2s-1.6,2.5-.2,2.3,4.8-5.5,5-4.2c.2,1.3,0,1.9,1.5.8,1.4-1.1,6.2-6.6,6.2-4.7s.3.8,2.3-.4c2-1.2,8.3-3.6,7.4-2-.9,1.6,7,3.5,11.6,1.8,4.6-1.7,15.9-2.6,14.9-1.4-1,1.2-2.2,2.5-.7,2.3s4.8-4.2,6.1-3.2c1.3,1-1.8.9-1.8,2.4s4.6-.8,5.5,0-.7,1.3-.3,2.3,6.7-1.6,8.6-1.3c1.9.4-.4.5-.9,1.6-.6,1.1,7-1,6,0-.9,1-.4,2.9,1.3,1.8s6.5-3.8,7.2-3.3c.7.5-1.3.8-1.8,1.7s2.2,1,3.9,0,5.4-1.7,4.3-.5c-1.1,1.2-.4,2.2,1.1,1.7,1.5-.6,4.9-1.5,4.4-.4s3.6-1,3.6,0c0,1,1.2,1.9,2.5.8s2.1-3.1,2.3-2.6c.2.6-.9,1.9.5,2.1,1.4.2,6.9-2.1,5.8-.7-1.1,1.4-1.5,1.9,0,1.9,1.5,0,5.1-.5,4.4.4-.7.9,1,1.2,2.3,1.3s2.7-.2,1.9.8-.7,2.8,1.8,2.8,6.3-.4,5.5.1-.5,2.2.8,2.3,3.6,0,2.6.8c-1,.8-1,1.2.7,1.7s3.1.8,1.9,1.1c-1.1.3,5.2,2.5,6.4,5.3s-1.4,0-2.6.7,3.3,2,3.4,4c.1,2-2.1-.9-2.3.4s5.7,6.1,3.9,6.9c-1.8.8-2.5-.3-3.1.7s6.2.1,4.8,1.2-5.1,1.6-5.4,3.4c-.4,1.8,3.8,0,2.2,1.3-1.6,1.3-3.5,3.7-3.1,5.7.4,2,2.6,1.1,0,2.7s-7.4,3.6-5.9,3.5c1.4,0,4.8-1.4,4.4-.7s-6.3,3.3-8.5,4.1c-2.2.7,3.1.1,1.8,1.1-1.4,1-3.3,2.2-5.6,2.2s.4.6-.9,1.4c-1.3.9-3.9-.2-4.9,0-1,.2-1.1,3-1.7,2.1-.7-.9-1.1-2.3-2.1-.9s-4.9,3.4-4.9,2.3.3-2.8-1.6-1.8-5.6,2.4-5.3,1.3c.3-1,.4-1-2-.3-2.3.7-4.1,1.9-3.6.7s1.3-2.6.4-2.4c-.8.2-6.9,3.6-7.8,2.6s2.5-2.2,1.3-2.3c-1.2-.1-4.1,3.1-5.7,2.4s1.4-2.3.2-2.2-2.8,3.1-3.8,2.4c-.9-.8-1.6-1.8-1.6-1.8,0,0-7.5,2.6-7.2,1.4s1.1-2.2,0-2.2-7,1.6-6.6.5c.4-1.1,1.2-2-.2-2s-5.3,1.3-5.5.2c-.2-1.1-.3-2-2.3-1.1s-4.6,1.3-3.8,0-.7.4-1.5.6,0-1.9-2.5-.6-4.7,1.7-4.5.7c.2-1-.3-.5-2.4-.7s-1.4-1.2-3.5-.3c-2.1.9-5.8,1-5.1-.3s.8-1.8-1.6-1.7c-2.4,0-7.7,1.1-7.4-.4.3-1.6-1.5-2.1-3.8-1.7-2.3.4-.9-.4-1.1-1.8s-3.7-1.2-5.2-.3c-1.5.9-5.1,1.7-4,.7,1.1-1,.6-2.6-1-2.6-1.6,0-5.7-.8-6.5-.9-.8-.1-2.2-.2-3.9,0-1.7.2-.7,2-1.7,1.3-1-.7-1.8-.8-2.7-1-.9-.2.3,1.6-1.4.8s-7.8-3.7-9.4-5.1"/>
      <path class="cls-4" d="M382.2,234.5c-.3-.3-18.8,4.6-20.8,6.3s-7.3,3.9-4.5,3.6,7.5-3.1,9.8-3.4.3.3-2.1,2.8-6.5,5.2-4,4.4,9.1-5.7,11.4-5.8-2.5,1.7-3.6,3.3-2.9,4.1-.7,3,4.6-3.3,8.1-4.1,12.2-3.7,12.8-5.4,1-6.6,1-6.6l-7.4,1.9Z"/>
      <path class="cls-4" d="M417.2,215.4s21.1-6.7,29.6,1c8.5,7.7.7,16.1-8.3,17.5s-18.7-1.1-27.5,4.7,2.7.4,7,0,14.2,1.5,25.6-.8,16.1-8.2,15.7-15.1-9-22-38-16.1c-29,5.9-4,8.9-4,8.9Z"/>
      <path class="cls-4" d="M321.3,230.4s-11.3,2.6-10.1,3.8,7.4-1.5,5.9,0-8.4,4.6-4.3,3.8,9-4,8.5-2.5c-.5,1.5-4.9,3.5-2.9,3.7s7.6-2,8.9-3.1,3.6-6.3,3.6-6.3l-9.6.6Z"/>
      <path class="cls-31" d="M286.6,200.4c-.3-.1,1.4-3.4,4.3-4.8s7,1.2,7,1.2c0,0-2.7,7.9-11.3,3.7Z"/>
      <circle class="cls-8" cx="290.9" cy="198.8" r="1.3"/>
      <path class="cls-27" d="M270.2,210.7c-.6-1-3.4-.1-5.9,1.2.3,2.6,1.8,4.8,3.4,6.3.9-1.7.2-3.2,1-4.3,1.2-1.7,2.2-2,1.5-3.3Z"/>
      <path class="cls-35" d="M364.5,236.8s0-4.2-1.8-4.8-1.8-2.2-1-4.2c.9-2,1.4-3.3,1-5s.8-4,2.3-5c1.5-1,4.8-4,3.2-3.5s-7.2,3.7-7,5.7c.2,2,1,3.1,0,4.6-1,1.5-3.2,5.4-.8,7.4,2.4,2.1,1.8,4.1,1.8,4.1,0,0,1.5-.3,2.2.6Z"/>
      <path class="cls-35" d="M335.1,232s6.3-4.2,5.4-5.7c-.9-1.5-.5-2.2.1-2.6s-.7.9.2,1.9.1,3-1,4-3.3,2.6-3.3,2.6c0,0-2.1,1.3-1.3-.2Z"/>
      <path class="cls-17" d="M313.8,173.5c-2.1-.5-3.5-1.3-3.1-2,.3-.5-.2-.6-1.1-.4-1.1,2.6-3.3,7.8-3.4,9.7l4-2.4,3.6-4.9Z"/>
      <path class="cls-34" d="M306.3,180.8s3.4-4.8,4.2-6.5c.8-1.7.4-1.2.8-.2s1.7-4.8,2.1-4.7.2,1.8.4,1.6c.3-.2,2.1-5.7,2.4-4.8.3,1,.7.5,2.1-1.1s4.4-3.9,5.1-3.7c.6.2.2.9,1.6,0s6.1-1.9,7.1-.8c1,1-3.2,6.4-3.2,6.4l-17.2,15.9h-1.8s-3.7-2-3.7-2Z"/>
      <g>
        <path class="cls-4" d="M331.6,188.2s0-11.9,2.2-20c2.2-7.9-1.4-8.1-3.1-7.6-2,.6-4.1,1.5-6.4,2.6-7.2,3.4-14.4,19.5-14.4,19.5,0,0,1.5.1,2.1,1s2.5-1.4,4.1-.5,2.5.4,3.9-1.8c1.5-2.2.4,2.9,3.6,3.1s2-1.4,2.6,2.2c.4,2.3,3.1,2.2,5.4,1.8,0-.1,0-.2,0-.3h0Z"/>
        <path class="cls-5" d="M325.7,177.8c-2.5-.4-.4-2-1.6-6.1-.9-3.2-7.1,7.1-9.8,11.6.6-.2,1.2-.3,1.8,0,1.6.9,2.5.4,3.9-1.8,1.5-2.2.4,2.9,3.6,3.1,3.1.1,2.1-1.2,2.5,1.9,1.2-3.5,1.4-8.4-.5-8.7Z"/>
      </g>
    </g>
    <g>
      <path class="cls-4" d="M185.5,417.2s32.5-1.9,43.6,4.7,14.2,21.2-3.8,25-33-9.3-34.6-8.6,6.6,12.1,22.4,13.4c15.8,1.4,30.6-1.2,31.3-14.4s-12.3-21.9-26.2-23.3c-13.9-1.4-26.6-4.3-26.6-4.3l-6.1,7.5Z"/>
      <path class="cls-4" d="M87.6,424.6s.5,4.5-1.9,4.9c-2.5.5-9.8.5-8.8,1.8,1.1,1.3,6.8-.2,5.3.6s-6.4,2-5.4,3c.9.9,6.9-2.3,6.4-1.3s-3.6,4-1,3.1c2.6-.9,5.5-4.3,7.5-4.7,2-.5,1.1-6.3,1.4-8.3.4-2-3.5,1-3.5,1Z"/>
      <path class="cls-4" d="M145.2,426.6c-.5,0-10.3,3.1-13.9,3.2-3.6,0-4.5.2-6.5,2.1s.8.9,2.4.6c1.6-.3,3.5-.4,2.5,0s-1.9.5-3.3,2.2c-1.4,1.7-2.5,2.8-.6,2.1,1.9-.6,4.7-2.1,5.7-2,1,.1-1,.5-1.6,1.8s-1.1,2.1-.3,1.7,3.1-1.6,4.7-1.7c1.6,0,8.7-3.2,11-3,2.4.2,3.8.6,4-.3.3-.9.3-5.7.3-5.7l-4.4-1Z"/>
      <path class="cls-13" d="M102.1,373.9s-17.8-7.7-35.9,0c-18.2,7.7-27.2,23.7-25.4,29.6,1.8,5.9,11.8,3.3,18.2,2.6s20.8,2.2,24.1,9.4,2.4,9.7,4.5,10.3c2.1.6,5.6,2.7,6.9,0,1.2-2.7,8.9-7.9,12.5-6.9,3.5,1,25,8.5,34.8,4.8,0,0,1,3.5,2.7,5.2,0,0,4,2.7,12.5,0,8.5-2.7,12.5-1.9,18.9-4,6.5-2.1,10.6-6.5,13.7-7.1,3.1-.6,8.7-2.5,6.7-4.4-2.1-1.9,2.9-1.7.6-4s-6.7-6-9.6-10.6c-2.9-4.6-6.9-28.5-27.7-32.3s-30.8,3.1-37.7,5c-6.9,1.9-7.5,3.7-19.8,2.2Z"/>
      <path class="cls-31" d="M59.4,389.8c-.3-.1,1.6-3.8,4.8-5.5s7.9,1.3,7.9,1.3c0,0-3.1,8.9-12.7,4.2Z"/>
      <circle class="cls-8" cx="64.2" cy="387.9" r="1.5"/>
      <path class="cls-4" d="M40.7,403.5s4.1-4.1,4-3c0,1.2-1.7,2.9-1.5,3.7s-.5,1.9-.5,1.9c0,0-1.3,0-2-2.6Z"/>
      <path class="cls-29" d="M141.6,423.7c.7-.6-3.2-10.7,1.8-16.9,0,0-9.2,8.4-4.8,17.7,0,0,2.2,0,3-.8Z"/>
      <path class="cls-29" d="M80.3,380.2s-4.4-3.8-5.6-8.9c0,0,2.4-.4,3.2-.5.8,0,2.5,7.4,2.4,9.4Z"/>
      <path class="cls-13" d="M90.8,353.4s-7.1,2.3-11.4,10,1.8,18.2,1.7,18.9c-.1.6,8.1-1.5,8.1-1.5l1.6-27.4Z"/>
      <path class="cls-4" d="M84.5,377.9s-4-19.8,6.2-24.5c10.3-4.7,15.4,5.9,12.1,12.7-3.3,6.9-6.8,14.7-9.1,13.1s-2.1-6.2-3.9-4.5c-1.8,1.7-2.4,5.5-5.4,3.2Z"/>
      <g class="cls-48">
        <path class="cls-26" d="M88.3,378.7c-.2-.2-1.1-6.5,2.9-10,4-3.4.2,5.4,1.5,10.7s-4.3-.7-4.3-.7Z"/>
      </g>
    </g>
    <g class="cls-41">
      <path class="cls-4" d="M406.6,430.4s32.2-1.9,43.2,4.6,14.1,21-3.8,24.8c-17.9,3.8-32.7-9.2-34.2-8.5-1.5.8,6.5,11.9,22.2,13.3s30.3-1.2,31-14.3-12.2-21.7-26-23c-13.8-1.4-26.3-4.3-26.3-4.3l-6,7.4Z"/>
      <path class="cls-4" d="M309.7,437.7s.5,4.4-1.9,4.9c-2.5.5-9.7.5-8.7,1.7s6.7-.2,5.3.6-6.3,2-5.4,2.9,6.8-2.2,6.3-1.3-3.5,4-1,3.1,5.5-4.2,7.5-4.7c2-.5,1.1-6.2,1.4-8.2s-3.5,1-3.5,1Z"/>
      <path class="cls-4" d="M366.7,439.7c-.5,0-10.2,3.1-13.7,3.2s-4.4.2-6.5,2,.8.9,2.4.6,3.5-.4,2.4,0c-1.1.4-1.9.5-3.3,2.2s-2.5,2.8-.6,2.1,4.6-2.1,5.6-2-1,.5-1.6,1.8-1.1,2.1-.3,1.6,3-1.6,4.6-1.6,8.6-3.1,10.9-3c2.4.2,3.7.6,4-.3.3-.9.3-5.6.3-5.6l-4.3-.9Z"/>
      <path class="cls-19" d="M324,387.5s-17.6-7.6-35.6,0c-18,7.6-26.9,23.4-25.2,29.3,1.7,5.9,11.7,3.3,18,2.6,6.3-.7,20.6,2.2,23.9,9.3s2.4,9.6,4.5,10.2,5.6,2.7,6.8,0,8.9-7.8,12.4-6.8c3.5,1,24.7,8.4,34.4,4.7,0,0,1,3.5,2.7,5.1,0,0,3.9,2.7,12.4,0,8.4-2.7,12.4-1.9,18.7-3.9s10.5-6.4,13.6-7,8.7-2.5,6.6-4.3c-2.1-1.9,2.9-1.6.6-3.9s-6.6-6-9.5-10.5c-2.9-4.5-6.8-28.2-27.4-31.9-20.6-3.7-30.5,3.1-37.3,4.9-6.8,1.9-7.4,3.7-19.6,2.1Z"/>
      <path class="cls-31" d="M281.7,403.2c-.3-.1,1.5-3.8,4.8-5.4s7.8,1.3,7.8,1.3c0,0-3.1,8.8-12.6,4.1Z"/>
      <circle class="cls-8" cx="286.5" cy="401.4" r="1.5"/>
      <path class="cls-4" d="M263.3,416.8s4-4.1,3.9-2.9c0,1.2-1.7,2.8-1.5,3.7.2.8-.5,1.9-.5,1.9,0,0-1.2,0-2-2.6Z"/>
      <path class="cls-36" d="M363.2,436.9c.7-.6-3.2-10.6,1.8-16.7,0,0-9.2,8.3-4.8,17.5,0,0,2.2,0,3-.8Z"/>
      <path class="cls-36" d="M303.5,393.5s-4.3-3.8-5.5-8.8c0,0,2.4-.4,3.2-.5.8,0,2.5,7.3,2.4,9.3Z"/>
      <path class="cls-19" d="M317.8,373.1s-7.4,0-13.8,6c-6.4,6.1-3.8,17.7-4.1,18.3s8.1,1.1,8.1,1.1l9.8-25.4Z"/>
      <path class="cls-4" d="M304.5,394.3s2.2-19.9,13.3-21.2,12.7,10.2,7.6,15.7c-5.2,5.5-10.8,11.8-12.5,9.6s0-6.5-2.3-5.5c-2.2,1.1-4,4.4-6,1.4Z"/>
      <g class="cls-44">
        <path class="cls-26" d="M310.4,392.3c-.2-.2-1.1-6.5,2.8-9.9s.2,5.4,1.5,10.6c1.2,5.2-4.3-.7-4.3-.7Z"/>
      </g>
    </g>
    <g class="cls-41">
      <path class="cls-28" d="M168.4,315.1c.1.4,9.4,1.3,21.9.9s22.8,3.1,23.8,11.7-14.5,5.7-24.1,4c-9.5-1.7-21,1.2-24.1,4.9-3.1,3.7,9.3-3.5,21.6,0,12.3,3.5,26.6,8.3,32-2.6s-4.7-22-20.1-22.3-28.5-4.4-28.5-4.4l-2.5,7.8Z"/>
      <path class="cls-4" d="M105.8,317.4c-.6-.1-7.8.9-10.3,2.8s-2.4,3.1-1.5,2.6c.9-.5,3.3-1.4,3.4-1.3s-1.2,1-2.1,2.6c-.9,1.6-.5,1.2,1.9,0s3.1-1.6,2.9-1.1c-.1.5-1.5,3.7-.6,3.1.9-.6,4.2-2.8,6.5-3.6s5.7-1.9,6.1-4c.4-2.1-6.5-1.2-6.5-1.2Z"/>
      <path class="cls-4" d="M144.9,317.2s-7.4,2-10.8,2.8c-3.5.8-4.5,2-5.5,3.2-1,1.2,2.6-.4,3.2-.5.6,0-3.4,3.2-2.1,3.1,1.2,0,4.9-2.4,4.9-1.7s-2.8,4.1-1,3.4,4.5-2.7,6.6-3,9.7-2,10.1-3.2.9-4.1.9-4.1h-6.1Z"/>
      <path class="cls-33" d="M58,315.6s-8.6,1.7-12.8-4.3.6-22,6.4-29.1,33.8-33.2,58.6-34.4c24.8-1.1,47.5,3,61.2,26.7s3.4,42.1-3.8,44.3-27.6-1.3-27.6-1.3c0,0-20.1,3.9-36.8.6-16.7-3.4-17.1-3.2-45.3-2.4Z"/>
      <g>
        <g class="cls-39">
          <path class="cls-14" d="M46.8,316s13.7-7.3,18.8-8.9,28.3,1,34.4-2.7,11.4,1.8,23.2,0c11.8-1.8,33-1.6,36.6,1.6,3.7,3.3,14.6,4.4,13.8,12.2-.8,7.7-11.4,16.1-11.4,16.1l-104.3-2.8-19.5-9.6,8.4-5.9Z"/>
        </g>
        <g class="cls-49">
          <path class="cls-10" d="M74.8,277.9s-5.1-7.1-3.8-15,7.7-2.8,7.7-2.8l-4,17.7Z"/>
        </g>
      </g>
      <path class="cls-16" d="M144.7,318.2c7-3.6,9-8.9,9-8.9-6.2,6.5-13.6,8.2-13.6,8.2,0,0,1.8.3,4.6.7Z"/>
      <path class="cls-33" d="M74.8,277.9s-6.5-22.2,12.8-29l-2.5,22.8-1.9,11.9-8.4-5.7Z"/>
      <path class="cls-4" d="M82.5,276.7s-10.2-18.8,7.2-29c17.3-10.3,22.4,15.5,15.4,22.3s-11.1,9.9-13,6.7c-1.9-3.2-1.7-4.6-4.5-3-2.7,1.6-2.5,6.5-5.1,3Z"/>
      <path class="cls-6" d="M44.4,309.7s5.2-3.6,4.8-2.4-2.9,3.4-2.4,5.8c0,0-1.8-.4-2.4-3.4Z"/>
      <g class="cls-45">
        <path class="cls-5" d="M84.6,281s1-18,7.6-19.4c6.7-1.4-2.2,8-2,19.4.2,11.4-5.6,0-5.6,0Z"/>
      </g>
      <path class="cls-31" d="M59.6,293.4c-.3,0,0-3.6,2.3-5.9,2.2-2.3,6.8-1.3,6.8-1.3,0,0,.2,8.1-9,7.2Z"/>
      <circle class="cls-8" cx="63" cy="290.5" r="1.3" transform="translate(-11.1 2.6) rotate(-2.2)"/>
    </g>
    <g class="cls-41">
      <path class="cls-4" d="M198.9,200.8s19.2-2.7,23.1,2.8-1.5,9.5-14.8,8.8c-13.3-.7-30.4-1.5-39.3,5-8.8,6.5,3.6-1.6,14.2-1.5s36.7,4,44.8-.6,8.5-14.5-.6-18.1c-9.1-3.6-22.5-4.6-32.2-7.8-12.9-4.2-6.6,11.3,4.7,11.4Z"/>
      <path class="cls-4" d="M104.5,208.6c-.6-.2-8.9,0-11.9,1.6s-3.1,3.1-2,2.7c1.1-.4,3.9-1.1,4-.9s-1.5.9-2.7,2.6-.8,1.3,2.2.3,3.6-1.3,3.4-.7c-.2.6-2.2,3.9-1.1,3.4,1.1-.5,5.1-2.5,7.8-3.1,2.7-.6,6.6-1.3,7.4-3.6.8-2.2-7-2.3-7-2.3Z"/>
      <path class="cls-4" d="M157.3,205.2s-10.2,2.8-15,3.9-6.3,2.7-7.6,4.5,3.6-.5,4.4-.6-4.6,4.4-2.9,4.3,6.8-3.4,6.7-2.4c0,1-3.9,5.7-1.4,4.6s6.2-3.7,9.1-4.2,13.4-2.7,14-4.5,1.2-5.6,1.2-5.6h-8.5Z"/>
      <path class="cls-24" d="M92.1,155.5c-1.3.2-13.4-.8-29.6,13.4-16.1,14.3-22.2,24.1-20.1,30s10.7,7.5,20.8,5.3c10.1-2.2,22.6.8,32.3,3.5s22,4.4,33.3,2.1,31.2.6,43.6-4.2c12.4-4.8,27.5-3.8,26.4-4.8s-4.8-3.8-2.3-4.4c2.5-.6,3-.4,2.4-2.5s-.5-2.1,1.4-1.9,3.6,2.6,1.7-1.6-11.7-31.1-30.8-38.8-45.1-2.1-47.6-3.4-1.9-5-4.6-2.7-4.8,4.4-4.8,1.5-1.3-2.7-3.4-.4c-2.1,2.3-8.6,5.7-11.7,6.5-3.1.8-6.9,2.5-6.9,2.5Z"/>
      <g>
        <path class="cls-31" d="M63,184.6c-.3,0,.1-4,2.5-6.6s7.6-1.5,7.6-1.5c0,0,.2,9.1-10.1,8.1Z"/>
        <circle class="cls-8" cx="66.8" cy="181.3" r="1.4"/>
      </g>
      <path class="cls-7" d="M42.4,198.9s5.6-4.2,5.2-2.6-3.2,3.4-1.9,6.6c0,0-2.9-1.1-3.3-4Z"/>
      <path class="cls-2" d="M89.8,156.6s-.3-.4-.8-.9c-2.3.2-5.7.9-10,2.6-.8,5.4.3,10.9.3,10.9l10.5-12.6Z"/>
      <path class="cls-24" d="M79.8,166.9s0-.2.2-.7c1.1-3.4,6.5-18.7,17.4-20.2,0,0-1.1,16.9-1.3,17.3s-10.4,13-10.4,13l-6.5-4.9.7-4.5Z"/>
      <path class="cls-28" d="M86.4,167.6s3.9-20,13.6-22.9c9.7-2.9,10.4,12.9,4.4,19.3s-10.2,8.2-10.3,4.7-.8-.1-2.3-1.1-1.5-3.6-2.4-1.5c-1,2.2-2.5,4.7-2.9,1.5Z"/>
      <g class="cls-52">
        <path class="cls-1" d="M89.4,169.2s3.4-10.7,6.4-10.1c3,.6-3.7,14-3.4,14.3s-2.9-4.2-2.9-4.2Z"/>
      </g>
      <g>
        <g class="cls-42">
          <g>
            <path class="cls-23" d="M165.7,211.7s-12.9-9-21.4-10.3c-8.5-1.2-24.2-.3-24.2-3s1.4.5-4.9-2.6c-6.3-3.1-7.1-6.2-11.5-5.5-4.3.6,4.7-4.1,11.5-2.7,6.8,1.4,13,2.1,15.1,3.5,2.1,1.4,4.5,1.4,12.3,2.1s9.6.3,10.8,3c1.2,2.6,13.6.5,14.3,4.2s8.9,5.8,8.3,8.1c-.5,2.3-10.4,3.2-10.4,3.2Z"/>
            <path class="cls-23" d="M186.2,208.5c-.3-1.3-9.6-12.3-17.9-16.6s-14.6-2.8-14.4-5.7-9.7,1.1-9.7-1.5-19.1-3.8-18.1-5.5-9.9-1.6-8.9-2.9-13.4,3.2-12.3,0c1-3.2-7.7-1.1-5.6-2.5s21-4.2,28.3-1.6c7.3,2.6,7.2-.9,11.8,1s9.9-.4,14.5,2.8c4.5,3.1,9.7,4.6,14.6,6.7s15,5.8,16.5,9.1,5.4,6.5,7.7,9.8c2.2,3.3-6.4,6.9-6.4,6.9Z"/>
            <path class="cls-23" d="M201.4,200.5s-9-12.5-16.7-17.8-15.1-5-13.4-7.6-12.9-2.4-11.8-4.7c1-2.3-11.7-3.5-10.8-4.7.9-1.2-13.2-.7-10.3-1.4s9.6-4.7,19.1-1.9c9.6,2.8,8.9-1.2,12.5,1.6s8.2,1.5,10.8,5.2,9.7,4.5,10.8,7,6.8,3.5,7,6.5,11.7,4.7,10.9,7.1c-.9,2.4-3.1,6.7-3.1,6.7l-5,4Z"/>
            <path class="cls-23" d="M195.8,169.2c-.5-1-20.5-12-26.6-12.5-6.1-.5-12.5-1-12.2-2.6.3-1.6-11.3.2-9.9-1,1.4-1.2-11.1.7-10.6-.5.5-1.2-12.2.5-10.8,0s-5.9-.2-3.3-1.7c2.6-1.6,20.6-5.1,27.6-6.1,7-1,29.6,1.3,29.6,1.3l16.9,9.7-.7,13.5Z"/>
          </g>
        </g>
        <g class="cls-43">
          <path class="cls-23" d="M54.2,190.6c.1-.2,8.5-4.5,10.8-2.8,2.3,1.7,7.5-.8,10.5-1.7s4.3-3,5.9-2.9c1.6,0,3.4-5.7,4.6-4.9,1.2.8,12.7-1.1,9.8.7s-7.6,2.7-8.6,5.9-3.8,4.5-7.5,4.3c-3.7-.2-3.6,3.4-7.4,2.7-3.8-.7-7.5-.6-7.5-.6h-4.6s1.5.6-1,0-6.4,1-5-.8Z"/>
        </g>
        <g class="cls-50">
          <path class="cls-23" d="M41.3,198.3c1.4.7,10.7-9.6,9.4-11.6s1.3-3.8,3.2-5.9c1.9-2.1,12.1-9.8,11.4-10.8s3.6-1.2,3.6-2.8c0-1.6,5.1-1.7,5.3-3.3s3.5-1.2,2.4-5.5c-1.1-4.3-16.1,1.7-16.1,1.7l-1.9,5.7-17.3,14.4v9.6s-2.4,6.9,0,8.3Z"/>
        </g>
        <g class="cls-47">
          <path class="cls-23" d="M66.8,173.3c1.7-1,4-3.7,5.5-2.8s3.1-2.5,4.6-1.3c1.4,1.3,5.5.5,2.8,1.8-2.8,1.3-4.6,1.3-6.5,2s-4.1-.4-5.1.8c-1,1.2-2.5,2-2.7,1.7-.1-.4,1.4-2,1.4-2Z"/>
        </g>
      </g>
    </g>
    <g class="cls-41">
      <path class="cls-4" d="M173.4,104.3c1.1,0,15.1-1.4,29.6,1.4,14.5,2.8,31.2-1.3,39.4,0s12.2-2.5,0-6.7c-12.2-4.2-22.2,2.4-32.5,0s-31.5-5-31.5-5l-5,10.3Z"/>
      <path class="cls-25" d="M85,43s-16.4-1.9-27.4,7.9-16.7,33.4-12.9,39.2,7.7,6,14,5.5c6.3-.5,11.5-3.4,14,.2,2.5,3.6,12,5.8,16.3,8,4.4,2.2,1.9,5.2,3,5.8s3-2.2,5.7-1.1c2.7,1.1,12.1-2.5,13.7-3.8,1.6-1.4,6.1,3.3,10.2,3.6,4.1.3,10.1.8,14,2.7s3.8,5.2,13.4,7.1,23.8-5.5,29.6-11.5c5.8-6,7.9-4.9,6-8.2-1.9-3.3,3.8.8,1.9-3.3-1.9-4.1-4.9-7.8-7.4-14.4s-11.8-25.8-35.6-30.5-15.9-8.5-22.7-7.3-3.6-2.3-7.4-1.5-2.5-5.2-6.6-1.6c-4.1,3.6-7.4-.5-13.4,2.2-6,2.7-8.5,1.1-8.5,1.1Z"/>
      <path class="cls-3" d="M46.4,92.3s5.6-6,5.1-4-2.1,4.5-.8,6.8c0,0-2.5-.7-4.2-2.9Z"/>
      <g>
        <g class="cls-53">
          <path class="cls-12" d="M61.6,99.7c.3-1.4,1-14.4,7.1-13.9,6.1.5,22.6,14.8,30.6,11.9s25.2-3.7,26.9-.3c1.7,3.4,28.5,13.7,36.7,10.5s14.9-6.6,16.6.2c1.7,6.8-26.6,21-26.6,21l-48.7-3.1-31.2-6.3-11.4-20Z"/>
        </g>
        <g class="cls-38">
          <path class="cls-30" d="M74.7,52s-1.5-7.2,1.1-12.7c2.6-5.5,9.1,1.1,9.1,1.1l-10.3,11.6Z"/>
        </g>
      </g>
      <path class="cls-25" d="M74.7,52s6-23,22.2-27c0,0-4,18.2-8.8,26.1-4.7,7.8-6.7,12.5-8.1,9.9s-6-6.7-5.3-8.9Z"/>
      <path class="cls-4" d="M92,55.8c-.4.2-2.2.3-2.5-2.1s-4.3,2.5-5.3,0-1.6-7.9,1.6-15.1c3.2-7.2,11.1-13.6,11.1-13.6,0,0,3.5,0,2.8,11.1-.7,11.1-5.6,18.8-7.7,19.6Z"/>
      <g>
        <path class="cls-31" d="M58.5,70.9c-.3,0,.1-3.6,2.3-6,2.2-2.4,6.9-1.3,6.9-1.3,0,0,.2,8.3-9.2,7.3Z"/>
        <circle class="cls-8" cx="61.9" cy="67.9" r="1.3"/>
      </g>
      <path class="cls-25" d="M88.5,95s3.6,3.3,3,7c-.6,3.7.8,6.9-.4,9.7-1.2,2.8-3.6,6-5.2,5.7s-4.7.1-6.9,2c-2.1,1.9,3.1.2,3.9.8.8.6,0,2.7,3.5,1.2s5.1-1.2,7.2-1.8,2.5-2.2,3.1-6.1,4.5-10.1,9-11.5c4.5-1.3,6.6-6.2,10.2-7.1s-7.5-5.6-7.5-5.6l-20,5.6Z"/>
      <path class="cls-25" d="M147.6,105.7c.3.4,6.7,3.8,5.2,7.1s-11.9,5.9-15.3,5.6c-3.5-.4-7,2.7-8.4,3.6-1.4.9,5-.1,8.4,0s-.5,1.9,2.4,1c2.9-.9,6.2-2.3,10.3-2,4.1.3,22.4-4.8,28.4-14.5s-14-11.4-14-11.4l-17,10.5Z"/>
      <g class="cls-46">
        <path class="cls-32" d="M85.7,57.8s1.2-16.8,5.1-15.5.2,14.4-1.4,16.4c-1.7,2-3.7-.9-3.7-.9Z"/>
      </g>
    </g>
    <g class="cls-41">
      <path class="cls-32" d="M425.9,327.1c.6,0,15.7-.6,14.6,10.7-1.1,11.2-18.5,6.4-27.2,8.3s-17.1,9.9-17.1,13,7.8-7.4,18.6-7.6,29.5,3.1,33.4-7-3.3-22.1-14-25.4c-10.7-3.3-8.3,8-8.3,8Z"/>
      <path class="cls-32" d="M329.4,330c-.6.2-17.9,5.1-12.9,5.8,5.1.8,10.3-1.6,6.8.6s-9.9,5.6-4.7,4.7c5.2-.9,7.9-1.8,10.8-2.6,2.9-.8,8.6-4.3,8.6-5.6s-7.3-3.3-8.6-3Z"/>
      <path class="cls-32" d="M394.6,332.3c-.6-.1-20.4,3.3-23.8,5.5-3.4,2.2-1.6,2.2,2.7,1.5,4.3-.6-4.8,3-2.3,3s8.6-4,8.3-2.3c-.3,1.7.4,2.1,5.5,0s8.4-2.3,13.1-2.7,11.6-1.9,9.9-6.6-13.4,1.6-13.4,1.6Z"/>
      <path class="cls-18" d="M278,314.9s-16.9-5.7-14.9-12.2c2.1-6.5,11.7-9.9,20.1-16.4s24.2-11.7,35.2-9.1,28.7,6.3,39.9,4.2c11.2-2.1,19.3-2.9,27.4-2.3,8.1.5,23.7,3.4,36,19.8s21.9,21.4,18.2,22.9-8.3.5-6.8,2.9c1.6,2.3-.3,2.6-2.9,3.1s1,.8-1.3,2.1-16.2,4.7-21.9,4.4c-5.7-.3-27.1,1.3-28.7,0-1.6-1.3-20.8-1.8-26.5-.5s-15.4,6.8-20.4,2.6c-5-4.2-8.9-6-19-13.3-10.2-7.3-23.7-2.9-34.4-8.1Z"/>
      <g>
        <g class="cls-40">
          <path class="cls-37" d="M354.4,281.8s-18.1,8.1-9.7,8.1,25.5-1.9,20.5.3c-5,2.2-9.2,4.1-5.4,3.8s23.9,4.2,3.2,8.5c-20.7,4.3-26.1,7.4-18.3,7.4s39.2,1.7,30.1,4.1c-9.1,2.4-11.8,4.8-3.5,3.8,8.2-1,44.2,4.1,32.5,4.7-11.8.6-22.6,4.5-12.7,3.9s29.4,0,18.5,2.8-31.3,7.5-15.8,6.6c15.5-.8,48.8-1.8,43.9-3.8-4.9-1.9-25.1-4.9-18.3-6.8s9.6-4.4.2-7.3c-9.4-3-24.7-7.2-12-9s23.9-8.6-1.9-9.1c-25.8-.5-14.1-7.1-7.1-8.5,7-1.4-36.9-3.9-33.1-6.3s25.8-7.8,17.3-9.4c-8.5-1.6-28.2,6.3-28.2,6.3Z"/>
        </g>
        <g class="cls-51">
          <path class="cls-20" d="M346.3,337.2c0,.5-23.1-6.1-17.4-8.1,5.7-2.1,4-4.4-5.6-7.8-9.6-3.4,17.8-11.2,9.4-12.2s-33-2.3-22.2-4,17.7-3.4,7.8-4.2-28.7-1.4-23.4.1-17,4.1-15.3,1.1-.9-1.5-5.6-4.9c-4.7-3.4-6.9-8.5-6.9-8.5l-10.5,12.6,21.1,20.7,52,21.5,17.9-4.3-1.5-2Z"/>
        </g>
      </g>
      <path class="cls-22" d="M263.4,302s8.4,0,7,.8-5.9,1-6.4,3.7c0,0-2.1-2-.6-4.5Z"/>
      <path class="cls-22" d="M321.8,277.9c-1.2-.3-2.3-.5-3.4-.8-2.6-.6-5.5-.8-8.5-.6-.6,2.7-1.2,6.9,0,10.4,1.5,4.2,8.2-4.1,11.8-9Z"/>
      <path class="cls-18" d="M310,286.9c0-.5,4.8-17.3,22.8-14.6l-4.2,14.6-16.5,5.7s-2.6,0-2.1-5.7Z"/>
      <path class="cls-32" d="M316.3,286.4c-.7,0,3.9-16.2,18.8-14,14.9,2.2,10.5,17.6-.6,19.5s-17.7-.1-16-2.4c1.7-2.3,3.4-3.5-2.2-3.1Z"/>
      <path class="cls-31" d="M287.7,293.1c-.2-.1,1.3-3.3,4.1-4.6s6.7,1.1,6.7,1.1c0,0-2.6,7.5-10.8,3.5Z"/>
      <circle class="cls-8" cx="291.8" cy="291.6" r="1.3"/>
    </g>
  </g>
  <g id="Designed_by_Freepik" data-name="Designed by Freepik" class="cls-41">
    <g>
      <g>
        <path class="cls-31" d="M189.3,475.7h0c-.2,0-.4.3-.6.4-.2.1-.4.2-.6.3-.2,0-.4.1-.7.1s-.7,0-.9-.2c-.3-.1-.5-.3-.7-.6-.2-.3-.4-.6-.5-.9-.1-.4-.2-.7-.2-1.2,0-.9.2-1.6.6-2.1.4-.5,1-.7,1.7-.7s.8,0,1,.2c.3.1.6.4.8.6v-2.1c0-.3,0-.5.2-.7.1-.1.3-.2.5-.2s.4,0,.5.2c.1.1.2.3.2.6v6.2c0,.3,0,.5-.2.6-.1.1-.3.2-.5.2s-.4,0-.5-.2c-.1-.1-.2-.3-.2-.6ZM186.5,473.7c0,.4,0,.7.2,1,.1.3.3.5.5.6.2.1.4.2.7.2s.5,0,.7-.2c.2-.1.4-.3.5-.6.1-.3.2-.6.2-1s0-.7-.2-1c-.1-.3-.3-.5-.5-.6-.2-.1-.4-.2-.7-.2s-.5,0-.7.2c-.2.1-.4.4-.5.6-.1.3-.2.6-.2,1Z"/>
        <path class="cls-31" d="M195.5,474h-2.8c0,.3,0,.6.2.8s.3.4.5.6.4.2.7.2.3,0,.5,0c.1,0,.3-.1.4-.2.1,0,.3-.2.4-.3.1,0,.3-.2.4-.4,0,0,.2,0,.3,0s.3,0,.4.1c0,0,.1.2.1.3s0,.3-.1.4c-.1.2-.3.3-.5.5-.2.2-.5.3-.8.4-.3.1-.7.2-1.1.2-.9,0-1.6-.3-2.1-.8s-.8-1.2-.8-2.1,0-.8.2-1.2c.1-.4.3-.7.5-.9.2-.3.5-.5.9-.6.3-.1.7-.2,1.2-.2s1,.1,1.4.3c.4.2.7.5.9.9.2.4.3.7.3,1.1s-.1.6-.3.7c-.2.1-.5.2-.9.2ZM192.7,473.2h2.6c0-.5-.2-.8-.4-1.1-.2-.2-.5-.4-.9-.4s-.6.1-.9.4c-.2.2-.4.6-.4,1.1Z"/>
        <path class="cls-31" d="M201.9,474.7c0,.4,0,.7-.3,1-.2.3-.5.5-.8.6-.4.1-.8.2-1.4.2s-.9,0-1.3-.2-.6-.3-.8-.6c-.2-.2-.3-.5-.3-.7s0-.3.2-.4c.1-.1.2-.2.4-.2s.3,0,.3.1c0,0,.2.2.2.3.1.3.3.4.5.6.2.1.5.2.8.2s.5,0,.7-.2c.2-.1.3-.3.3-.4,0-.2,0-.4-.3-.5s-.5-.2-.9-.3c-.5-.1-.9-.2-1.2-.4-.3-.1-.5-.3-.7-.5-.2-.2-.3-.5-.3-.8s0-.5.3-.8c.2-.3.4-.5.7-.6.3-.1.7-.2,1.2-.2s.7,0,1,.1c.3,0,.5.2.7.3.2.1.3.3.4.4s.2.3.2.5,0,.3-.2.4c-.1.1-.3.2-.5.2s-.3,0-.4-.1c-.1,0-.2-.2-.3-.4-.1-.1-.2-.2-.4-.3s-.3-.1-.6-.1-.5,0-.6.2c-.2.1-.3.2-.3.4s0,.3.2.4c.1,0,.3.2.5.2.2,0,.5.1.9.2.4.1.8.2,1.1.4.3.1.5.3.6.5.1.2.2.4.2.7Z"/>
        <path class="cls-31" d="M203.4,470.1c-.2,0-.4,0-.5-.2-.1-.1-.2-.3-.2-.5s0-.4.2-.5c.1-.1.3-.2.5-.2s.3,0,.5.2c.1.1.2.3.2.5s0,.4-.2.5c-.1.1-.3.2-.5.2ZM204.1,471.6v4.1c0,.3,0,.5-.2.6s-.3.2-.5.2-.4,0-.5-.2c-.1-.1-.2-.4-.2-.6v-4c0-.3,0-.5.2-.6.1-.1.3-.2.5-.2s.4,0,.5.2c.1.1.2.3.2.6Z"/>
        <path class="cls-31" d="M210.3,471.8v4.1c0,.5,0,.9-.2,1.2,0,.3-.3.6-.5.8-.2.2-.5.4-.9.5-.4.1-.8.2-1.3.2s-.9,0-1.3-.2c-.4-.1-.7-.3-.9-.5-.2-.2-.3-.4-.3-.7s0-.3.2-.4c.1-.1.3-.2.4-.2s.4,0,.5.3c0,0,.2.2.2.3,0,0,.2.2.3.2,0,0,.2.1.4.1.1,0,.3,0,.5,0,.4,0,.6,0,.9-.2.2-.1.3-.2.4-.4,0-.2.1-.4.1-.6,0-.2,0-.5,0-1-.2.3-.5.5-.8.7-.3.2-.6.2-1,.2s-.9-.1-1.2-.4c-.4-.2-.6-.6-.8-1-.2-.4-.3-.9-.3-1.5s0-.8.2-1.1c.1-.3.3-.6.5-.9.2-.2.5-.4.7-.5.3-.1.6-.2.9-.2s.7,0,1,.2c.3.2.6.4.8.7v-.2c0-.2,0-.4.2-.6.1-.1.3-.2.5-.2.3,0,.5,0,.5.3,0,.2.1.4.1.8ZM206.2,473.6c0,.6.1,1,.4,1.3.2.3.6.4,1,.4s.5,0,.7-.2c.2-.1.4-.3.5-.6.1-.3.2-.6.2-.9,0-.6-.1-1-.4-1.3-.3-.3-.6-.5-1-.5s-.7.2-1,.5c-.2.3-.4.7-.4,1.3Z"/>
        <path class="cls-31" d="M212.5,471.6v.2c.2-.3.5-.6.8-.7.3-.2.6-.2,1-.2s.7,0,1,.2c.3.2.5.4.7.7,0,.2.2.4.2.6,0,.2,0,.5,0,.8v2.6c0,.3,0,.5-.2.6s-.3.2-.5.2-.4,0-.5-.2c-.1-.1-.2-.4-.2-.6v-2.4c0-.5,0-.8-.2-1.1-.1-.2-.4-.4-.8-.4s-.5,0-.7.2c-.2.2-.4.4-.5.6,0,.2-.1.6-.1,1.2v1.8c0,.3,0,.5-.2.6-.1.1-.3.2-.5.2s-.4,0-.5-.2c-.1-.1-.2-.4-.2-.6v-4.1c0-.3,0-.5.2-.6.1-.1.3-.2.5-.2s.2,0,.3,0c0,0,.2.1.2.3,0,.1,0,.3,0,.4Z"/>
        <path class="cls-31" d="M221.1,474h-2.8c0,.3,0,.6.2.8s.3.4.5.6c.2.1.4.2.7.2s.3,0,.5,0c.1,0,.3-.1.4-.2.1,0,.3-.2.4-.3.1,0,.3-.2.4-.4,0,0,.2,0,.3,0s.3,0,.4.1c0,0,.1.2.1.3s0,.3-.1.4c-.1.2-.3.3-.5.5s-.5.3-.8.4-.7.2-1.1.2c-.9,0-1.6-.3-2.1-.8-.5-.5-.8-1.2-.8-2.1s0-.8.2-1.2c.1-.4.3-.7.5-.9.2-.3.5-.5.9-.6.3-.1.7-.2,1.2-.2s1,.1,1.4.3c.4.2.7.5.9.9.2.4.3.7.3,1.1s-.1.6-.3.7c-.2.1-.5.2-.9.2ZM218.3,473.2h2.6c0-.5-.2-.8-.4-1.1-.2-.2-.5-.4-.9-.4s-.6.1-.9.4c-.2.2-.4.6-.4,1.1Z"/>
        <path class="cls-31" d="M226.9,475.7h0c-.2,0-.4.3-.6.4-.2.1-.4.2-.6.3-.2,0-.5.1-.7.1s-.7,0-.9-.2c-.3-.1-.5-.3-.7-.6-.2-.3-.4-.6-.5-.9-.1-.4-.2-.7-.2-1.2,0-.9.2-1.6.6-2.1.4-.5,1-.7,1.7-.7s.8,0,1,.2c.3.1.6.4.8.6v-2.1c0-.3,0-.5.2-.7.1-.1.3-.2.5-.2s.4,0,.5.2c.1.1.2.3.2.6v6.2c0,.3,0,.5-.2.6-.1.1-.3.2-.5.2s-.4,0-.5-.2c-.1-.1-.2-.3-.2-.6ZM224.1,473.7c0,.4,0,.7.2,1,.1.3.3.5.5.6.2.1.4.2.7.2s.5,0,.7-.2c.2-.1.4-.3.5-.6.1-.3.2-.6.2-1s0-.7-.2-1c-.1-.3-.3-.5-.5-.6-.2-.1-.4-.2-.7-.2s-.5,0-.7.2c-.2.1-.4.4-.5.6-.1.3-.2.6-.2,1Z"/>
        <path class="cls-31" d="M232.6,469.5v2.2c.3-.3.5-.5.8-.6s.6-.2,1-.2.9.1,1.2.3c.4.2.6.5.8,1s.3.9.3,1.5,0,.8-.2,1.2c-.1.4-.3.7-.5.9-.2.3-.5.5-.8.6-.3.1-.6.2-1,.2s-.4,0-.6,0c-.2,0-.4-.1-.5-.2-.1,0-.2-.2-.3-.3,0,0-.2-.2-.4-.4h0c0,.4,0,.6-.2.7-.1.1-.3.2-.5.2s-.4,0-.5-.2c-.1-.1-.2-.3-.2-.6v-6.2c0-.3,0-.5.2-.6.1-.1.3-.2.5-.2s.4,0,.5.2c.1.1.2.3.2.6ZM232.7,473.7c0,.6.1,1,.4,1.3.3.3.6.5,1,.5s.7-.2.9-.5c.3-.3.4-.8.4-1.3s0-.7-.2-1c-.1-.3-.3-.5-.5-.6s-.4-.2-.7-.2-.5,0-.7.2c-.2.1-.4.4-.5.6-.1.3-.2.6-.2,1Z"/>
        <path class="cls-31" d="M238.6,476.7v-.3c.1,0-1.6-4.4-1.6-4.4-.1-.3-.2-.4-.2-.5s0-.2,0-.3.1-.2.3-.2c.1,0,.2,0,.3,0,.2,0,.4,0,.5.2s.2.3.3.6l1.2,3.5,1.1-3.2c0-.3.2-.5.2-.6,0-.1.1-.2.2-.3,0,0,.2,0,.3,0s.2,0,.3,0c0,0,.2.1.2.2,0,0,0,.2,0,.3,0,0,0,.2,0,.3,0,.1,0,.2-.1.4l-1.8,4.8c-.2.4-.3.8-.5,1-.2.2-.4.4-.6.6-.2.1-.6.2-1,.2s-.7,0-.9-.1c-.2,0-.3-.3-.3-.5s0-.3.1-.4c0,0,.2-.1.4-.1s.1,0,.2,0c0,0,.2,0,.2,0,.2,0,.3,0,.4,0,0,0,.2-.1.3-.3,0-.1.2-.3.3-.5Z"/>
      </g>
      <g>
        <path class="cls-31" d="M259.1,470.9h.3v-.4c0-.4,0-.8.2-1.1.1-.3.3-.5.6-.6.3-.1.6-.2,1.1-.2.8,0,1.2.2,1.2.6s0,.2-.1.3c0,0-.2.1-.3.1s-.2,0-.3,0c-.1,0-.2,0-.3,0-.3,0-.4,0-.5.2,0,.1-.1.4-.1.6v.3h.3c.5,0,.8.2.8.5s0,.4-.2.4c-.1,0-.3,0-.6,0h-.3v3.7c0,.3,0,.5-.2.6-.1.1-.3.2-.5.2s-.4,0-.5-.2c-.1-.1-.2-.4-.2-.6v-3.7h-.4c-.2,0-.4,0-.5-.1-.1,0-.2-.2-.2-.4,0-.3.2-.5.7-.5"/>
        <path class="cls-31" d="M263.7,474.5v1.2c0,.3,0,.5-.2.6-.1.1-.3.2-.5.2s-.4,0-.5-.2c-.1-.1-.2-.4-.2-.6v-3.9c0-.6.2-1,.7-1s.4,0,.5.2.2.4.2.7c.2-.3.3-.5.5-.7.2-.1.4-.2.7-.2s.6,0,.9.2c.3.1.4.3.4.6s0,.3-.2.4c-.1.1-.2.2-.4.2s-.2,0-.4,0c-.2,0-.4,0-.5,0s-.4,0-.5.2c-.1.1-.2.3-.3.5,0,.2-.1.5-.1.8,0,.3,0,.7,0,1.1"/>
        <path class="cls-31" d="M270.2,474h-2.8c0,.3,0,.6.2.8.1.2.3.4.5.6.2.1.4.2.7.2s.3,0,.5,0c.1,0,.3-.1.4-.2.1,0,.2-.2.4-.3.1,0,.3-.2.4-.4,0,0,.2,0,.3,0s.3,0,.4.1c0,0,.1.2.1.3s0,.3-.1.4c-.1.2-.3.3-.5.5-.2.2-.5.3-.8.4-.3.1-.7.2-1.1.2-.9,0-1.6-.3-2.1-.8-.5-.5-.8-1.2-.8-2.1s0-.8.2-1.2c.1-.4.3-.7.5-.9.2-.3.5-.5.9-.6.3-.1.7-.2,1.2-.2s1,.1,1.4.4c.4.2.7.5.9.9.2.4.3.7.3,1.1s-.1.6-.3.7c-.2.1-.5.2-.9.2M267.4,473.2h2.6c0-.5-.2-.8-.4-1.1-.2-.2-.5-.4-.9-.4s-.6.1-.9.4c-.2.2-.4.6-.4,1.1"/>
        <path class="cls-31" d="M276.1,474h-2.8c0,.3,0,.6.2.8.1.2.3.4.5.6.2.1.4.2.7.2s.3,0,.5,0c.1,0,.3-.1.4-.2.1,0,.2-.2.4-.3.1,0,.3-.2.4-.4,0,0,.2,0,.3,0s.3,0,.4.1c0,0,.1.2.1.3s0,.3-.1.4c0,.2-.2.3-.5.5-.2.2-.5.3-.8.4-.3.1-.7.2-1.1.2-.9,0-1.6-.3-2.1-.8-.5-.5-.8-1.2-.8-2.1s0-.8.2-1.2c.1-.4.3-.7.5-.9.2-.3.5-.5.9-.6.3-.1.7-.2,1.2-.2s1,.1,1.4.4c.4.2.7.5.9.9.2.4.3.7.3,1.1s-.1.6-.3.7c-.2.1-.5.2-.9.2M273.3,473.2h2.6c0-.5-.2-.8-.4-1.1-.2-.2-.5-.4-.9-.4s-.6.1-.9.4c-.2.2-.4.6-.4,1.1"/>
        <path class="cls-31" d="M279.2,471.6v.2c.3-.3.5-.6.8-.7.3-.2.6-.2,1-.2s.8.1,1.2.3c.4.2.7.6.9,1,.2.4.3.9.3,1.5s0,.8-.2,1.2c-.1.4-.3.7-.5.9-.2.2-.5.4-.8.6-.3.1-.6.2-.9.2s-.7,0-1-.2c-.3-.2-.5-.4-.8-.7v2.1c0,.6-.2.9-.7.9s-.4,0-.5-.2c0-.2-.1-.4-.1-.7v-6.1c0-.3,0-.5.2-.6.1-.1.3-.2.5-.2s.4,0,.5.2c.1.1.2.3.2.6M281.9,473.6c0-.4,0-.7-.2-1-.1-.3-.3-.5-.5-.6-.2-.1-.4-.2-.7-.2-.4,0-.7.2-1,.5-.3.3-.4.8-.4,1.4s.1,1,.4,1.3c.3.3.6.5,1,.5s.5,0,.7-.2c.2-.1.4-.3.5-.6.1-.3.2-.6.2-1"/>
        <path class="cls-31" d="M284.8,470.1c-.2,0-.4,0-.5-.2-.1-.1-.2-.3-.2-.5s0-.4.2-.5c.1-.1.3-.2.5-.2s.3,0,.5.2c.1.1.2.3.2.5s0,.4-.2.5c-.1.1-.3.2-.5.2M285.5,471.6v4.1c0,.3,0,.5-.2.6-.1.1-.3.2-.5.2s-.4,0-.5-.2c-.1-.1-.2-.4-.2-.6v-4c0-.3,0-.5.2-.6.1-.1.3-.2.5-.2s.4,0,.5.2c.1.1.2.3.2.6"/>
        <path class="cls-31" d="M290,475.9l-1.2-2.1-.8.7v1.1c0,.3,0,.5-.2.6-.1.1-.3.2-.5.2s-.4,0-.5-.2c-.1-.1-.2-.4-.2-.6v-6c0-.3,0-.6.2-.7.1-.2.3-.2.5-.2s.4,0,.5.2c.1.1.2.4.2.7v3.4l1.6-1.7c.2-.2.3-.3.5-.4.1,0,.2-.1.4-.1s.3,0,.4.2c.1.1.2.3.2.4s-.2.5-.6.8l-.8.7,1.4,2.3c.1.2.2.3.2.4,0,0,0,.2,0,.3,0,.2,0,.4-.2.5-.1.1-.3.2-.5.2s-.3,0-.4-.1c0,0-.2-.3-.4-.5"/>
        <path class="cls-31" d="M293.1,476.5c-.2,0-.4,0-.6-.2-.2-.1-.2-.3-.2-.6s0-.4.2-.5c.1-.2.3-.2.5-.2s.4,0,.6.2c.2.1.2.3.2.5s0,.4-.2.6c-.2.1-.3.2-.5.2"/>
        <path class="cls-31" d="M300.1,474.8c0,.2,0,.4-.2.6-.1.2-.3.4-.5.6-.2.2-.5.3-.8.4-.3.1-.7.2-1.1.2-.9,0-1.6-.3-2-.8-.5-.5-.7-1.2-.7-2s.1-1.1.3-1.5c.2-.4.5-.8,1-1,.4-.2.9-.4,1.5-.4s.7,0,1,.2c.3.1.6.2.8.4.2.2.4.4.5.5.1.2.2.4.2.5s0,.3-.2.4c-.1.1-.3.2-.5.2s-.2,0-.3,0c0,0-.2-.2-.3-.3-.2-.3-.4-.5-.5-.6-.2-.1-.4-.2-.7-.2-.4,0-.8.2-1,.5-.3.3-.4.8-.4,1.3s0,.5.1.7c0,.2.2.4.3.6.1.2.3.3.5.4.2,0,.4.1.6.1s.5,0,.7-.2c.2-.1.4-.3.5-.6,0-.2.2-.3.3-.4,0,0,.2-.1.4-.1s.3,0,.4.2c.1.1.2.3.2.4"/>
        <path class="cls-31" d="M306.2,473.7c0,.4,0,.8-.2,1.2-.1.4-.3.7-.6.9-.2.3-.5.5-.9.6-.3.1-.7.2-1.2.2s-.8,0-1.2-.2c-.3-.1-.6-.3-.9-.6-.3-.3-.4-.6-.6-.9-.1-.4-.2-.7-.2-1.2s0-.8.2-1.2c.1-.4.3-.7.6-.9.2-.3.5-.4.9-.6.4-.1.7-.2,1.2-.2s.8,0,1.2.2c.3.1.6.3.9.6.2.3.4.6.6.9.1.4.2.7.2,1.2M304.8,473.7c0-.6-.1-1-.4-1.3-.3-.3-.6-.5-1-.5s-.5,0-.7.2c-.2.1-.4.4-.5.6-.1.3-.2.6-.2,1s0,.7.2,1c.1.3.3.5.5.6.2.1.5.2.7.2.4,0,.8-.2,1-.5.3-.3.4-.8.4-1.3"/>
        <path class="cls-31" d="M311.6,473.8v1.9c0,.3,0,.5-.2.7-.1.1-.3.2-.5.2s-.4,0-.5-.2c-.1-.1-.2-.4-.2-.7v-2.2c0-.4,0-.6,0-.8,0-.2,0-.4-.2-.5-.1-.1-.3-.2-.5-.2-.5,0-.8.2-.9.5-.1.3-.2.8-.2,1.4v1.9c0,.3,0,.5-.2.7-.1.1-.3.2-.5.2s-.4,0-.5-.2c-.1-.2-.2-.4-.2-.7v-4c0-.3,0-.5.2-.6.1-.1.3-.2.5-.2s.4,0,.5.2c.1.1.2.3.2.5h0c.2-.2.5-.4.8-.5.3-.1.6-.2.9-.2s.7,0,.9.2c.3.1.5.4.6.6.2-.3.5-.5.8-.6.3-.1.6-.2.9-.2s.7,0,1,.2c.3.2.5.4.6.7.1.3.2.7.2,1.2v2.8c0,.3,0,.5-.2.7-.1.1-.3.2-.5.2s-.4,0-.5-.2c-.1-.2-.2-.4-.2-.7v-2.4c0-.3,0-.5,0-.7,0-.2,0-.3-.2-.5-.1-.1-.3-.2-.5-.2s-.4,0-.5.2c-.2.1-.3.3-.4.4-.1.2-.2.7-.2,1.3"/>
      </g>
      <g>
        <path class="cls-31" d="M245.9,473.3s0,0,0,0c0,0,0,0,0,0Z"/>
        <path class="cls-31" d="M246,473.8h0c0-.1,0-.3,0-.4,0,.1,0,.3,0,.4Z"/>
        <path class="cls-31" d="M246.4,475.1s0,0,0,0c0,0,0,0,0,0Z"/>
        <path class="cls-31" d="M246.4,475s0,0,0,0c0,0,0,0,0,0Z"/>
        <path class="cls-31" d="M246.1,474.3c0,.2.2.4.2.6,0-.2-.2-.4-.2-.6h0Z"/>
        <path class="cls-31" d="M251.3,467.9c.3,0,.5,0,.7,0v-.4c0,0-.6-.2-1.4-.1v-.2c.2,0,.4-.3.4-.6s-.3-.6-.6-.6-.6.3-.6.6.2.5.5.6v.3c-.8.1-1.5.5-1.5.5v.4c.7-.2,1.1-.3,1.6-.3.4,0,.7,0,1,0Z"/>
        <path class="cls-31" d="M246.4,470h0s0,0,0,0h-.2c0-.1-.3-.3-.3-.3,0,0-.4.4-.8,1.1,0,0,0,0,0,0,0-.1-.2-.2-.4-.2h0c-.1,0-.2,0-.2,0,0,0,0-.1,0-.2,0-.2-.2-.4-.4-.4s-.4.2-.4.4.2.4.4.4,0,0,0,0c0,0,.2.2.4.2.1,0,.2,0,.2,0,0,0,0,.2,0,.2,0,0,0,0,0,0-.2.6-.2,1.5-.2,1.5h.6c0-.3,0-.8.2-1.2.3-.8.6-1.3.7-1.3Z"/>
        <path class="cls-31" d="M256.4,468.4c-.2,0-.4.2-.4.4s0,0,0,0c-.1,0-.2.2-.2.4,0,.1,0,.2,0,.2,0,0-.1,0-.2,0-.4-.6-1-1-1-1l-.4.4c.3.3.6.6.9,1.1.2.3.4.7.6,1.1l.6-.3s-.3-.6-.6-1.2c0,0,.1,0,.2-.1.1,0,.2-.2.2-.4,0-.1,0-.2,0-.2,0,0,.1,0,.2,0,.2,0,.4-.2.4-.4,0-.2-.2-.4-.4-.4Z"/>
        <path class="cls-31" d="M254.9,473.4c-.8.4-2,.9-3.7,1.1-.7,0-1.3.1-1.9.1s-1.4,0-1.9-.1c-.6,0-1-.2-1.3-.2,0,.2.1.4.2.6,0,0,0,0,0,0,0,0,0,0,0,0,0,0,0,0,0,0,0,0,0,0,0,0,.2.3.4.6.6.8.8.9,1.6,1,1.6,1h0s0,0,0,0c0,0,.7.2,1.8.2s2.1-.2,3.1-.6c.7-.4,1.4-.9,1.8-1.5.3-.4.5-.8.6-1.2,0-.2.1-.6,0-1-.2.1-.6.4-1,.6Z"/>
        <path class="cls-31" d="M246.7,470.2s-.4.5-.6,1.2c-.2.5-.2,1.3-.2,1.3h0c0,.2,0,.4,0,.6,0,0,0,0,0,0,0,0,0,0,0,0,0,.1,0,.3,0,.4.4,0,2.7.6,5.2.3,1.6-.2,2.8-.7,3.5-1,.6-.3,1-.6,1.2-.7-.2-.6-.6-1.4-.9-2-1.1-1.6-2.3-2-2.9-2.1-.2,0-.4,0-.7,0s-.5,0-.9,0c-.4,0-.9.1-1.4.3-.7.2-1.4.6-1.9,1.1h0c0,0-.2.2-.4.5ZM253.3,469.8c.5,0,.9.4.9.9s-.4,1-.9,1-.9-.4-.9-1,.4-.9.9-.9ZM248.8,469.8c.8,0,1.5.7,1.5,1.5s-.7,1.5-1.5,1.5-1.5-.7-1.5-1.5.7-1.5,1.5-1.5Z"/>
      </g>
    </g>
  </g>
</svg>