<svg xmlns="http://www.w3.org/2000/svg" width="640" height="384" viewBox="0 0 640 384">
  <path id="gamepad-solid" d="M448,64H192a192,192,0,0,0,0,384H448c106,0,192-85.96,192-192S554,64,448,64ZM247.1,280h-32v32a24,24,0,1,1-48,0V280l-31.1-.9c-13.2,0-24.9-9.9-24.9-23.1a24.122,24.122,0,0,1,24.05-24.01l31.95.01V200a24,24,0,1,1,48,0v32h32a24.088,24.088,0,0,1,24.02,24C271.1,269.2,261.2,280,247.1,280Zm184,64A39,39,0,0,1,392,304.9c0-21.23,17.87-40,39.1-40s39.1,17.88,39.1,40S454.1,344,431.1,344Zm64-96A39,39,0,0,1,456,208.9c0-21.23,17.87-40,39.1-40,22.12,0,39.1,17.88,39.1,40S518.1,248,495.1,248Z" transform="translate(0 -64)" fill="#3d6f34"/>
</svg>
