<svg xmlns="http://www.w3.org/2000/svg" width="512" height="480" viewBox="0 0 512 480">
  <path id="cat-solid" d="M322.6,192c-20.2,0-106.8,2-162.6,86V192A96.025,96.025,0,0,0,64,96a32,32,0,0,0,0,64,32.068,32.068,0,0,1,32,32V448a64.124,64.124,0,0,0,64,64H336c8.875,0,16-7.125,16-15.1V480a32.068,32.068,0,0,0-32-32H288l128-96V496a15.951,15.951,0,0,0,16,16h32a15.951,15.951,0,0,0,16-16V289.9A126.235,126.235,0,0,1,322.6,192ZM480,96H416L352,32V166.4c0,53,43,95.1,96,95.1s96-42.1,96-95.1V32Zm-72,80a16,16,0,1,1,16-16A15.951,15.951,0,0,1,408,176Zm80,0a16,16,0,1,1,16-16A15.951,15.951,0,0,1,488,176Z" transform="translate(-32 -32)" fill="#3d6f34"/>
</svg>
